<?xml version="1.0" encoding="UTF-8"?>
<!DOCTYPE svg PUBLIC "-//W3C//DTD SVG 1.1//EN" "http://www.w3.org/Graphics/SVG/1.1/DTD/svg11.dtd">
<svg xmlns="http://www.w3.org/2000/svg" version="1.1" width="1526px" height="1246px" style="shape-rendering:geometricPrecision; text-rendering:geometricPrecision; image-rendering:optimizeQuality; fill-rule:evenodd; clip-rule:evenodd" xmlns:xlink="http://www.w3.org/1999/xlink">
<g><path style="opacity:1" fill="#030303" d="M 745.5,-0.5 C 757.167,-0.5 768.833,-0.5 780.5,-0.5C 782.948,0.473067 785.615,0.8064 788.5,0.5C 789.263,1.26791 790.263,1.76791 791.5,2C 795.152,2.49863 798.818,2.6653 802.5,2.5C 805.902,2.34243 809.236,2.67577 812.5,3.5C 818.302,6.19199 824.636,7.52532 831.5,7.5C 833.565,7.51715 835.565,7.85048 837.5,8.5C 838.918,10.3079 840.918,10.9746 843.5,10.5C 901.81,25.1425 952.143,53.4759 994.5,95.5C 994.525,98.179 995.858,99.5123 998.5,99.5C 1037.62,139.701 1064.95,187.034 1080.5,241.5C 1080.8,244.522 1081.3,247.522 1082,250.5C 1082.38,251.942 1083.21,252.942 1084.5,253.5C 1088.66,268.942 1091.66,284.609 1093.5,300.5C 1093.16,306.098 1093.82,311.432 1095.5,316.5C 1097.36,342.623 1096.36,368.623 1092.5,394.5C 1090.6,397.337 1089.93,400.671 1090.5,404.5C 1090.57,408.425 1089.9,412.091 1088.5,415.5C 1087.88,415.611 1087.38,415.944 1087,416.5C 1086.36,420.491 1085.86,424.491 1085.5,428.5C 1085.1,432.761 1084.1,436.761 1082.5,440.5C 1080.69,441.918 1080.03,443.918 1080.5,446.5C 1069.93,482.631 1053.77,515.965 1032,546.5C 1016.28,567.22 1000.95,588.22 986,609.5C 976.299,625.566 968.799,642.566 963.5,660.5C 962.034,661.347 961.2,662.68 961,664.5C 960.502,667.482 960.335,670.482 960.5,673.5C 960.026,680.163 959.526,686.829 959,693.5C 958.333,775.833 958.333,858.167 959,940.5C 960.319,947.464 962.485,954.13 965.5,960.5C 965.427,962.027 966.094,963.027 967.5,963.5C 974.763,973.126 984.097,979.792 995.5,983.5C 999.072,984.903 1002.91,985.569 1007,985.5C 1009.36,985.496 1011.53,985.163 1013.5,984.5C 1015.44,983.85 1017.44,983.517 1019.5,983.5C 1022.72,983.655 1025.38,982.655 1027.5,980.5C 1035.12,975.879 1041.46,969.879 1046.5,962.5C 1049.37,960.751 1050.71,958.085 1050.5,954.5C 1050.5,954.167 1050.5,953.833 1050.5,953.5C 1052.21,952.365 1052.88,950.698 1052.5,948.5C 1052.83,945.833 1053.17,943.167 1053.5,940.5C 1054.65,935.015 1054.82,929.349 1054,923.5C 1053.72,922.584 1053.22,921.918 1052.5,921.5C 1048.9,907.957 1041.57,896.957 1030.5,888.5C 1030.03,887.094 1029.03,886.427 1027.5,886.5C 1025.6,886.204 1023.93,885.537 1022.5,884.5C 1021.36,882.787 1019.7,882.12 1017.5,882.5C 1014.14,882.384 1010.81,882.051 1007.5,881.5C 1003.6,880.508 999.596,879.508 995.5,878.5C 994.508,878.672 993.842,878.338 993.5,877.5C 993.027,876.094 992.027,875.427 990.5,875.5C 983.996,871.492 979.663,865.825 977.5,858.5C 977.173,850.397 977.839,842.397 979.5,834.5C 983.322,826.675 989.322,821.342 997.5,818.5C 1005.47,817.635 1013.47,817.302 1021.5,817.5C 1022.17,817.5 1022.83,817.5 1023.5,817.5C 1025.64,819.369 1028.3,820.036 1031.5,819.5C 1031.62,820.586 1032.29,821.253 1033.5,821.5C 1036.11,822.269 1038.78,822.603 1041.5,822.5C 1058.39,828.439 1072.72,838.106 1084.5,851.5C 1084.74,853.404 1085.74,854.738 1087.5,855.5C 1088.08,857.749 1089.41,859.415 1091.5,860.5C 1093.33,862.147 1094.66,864.147 1095.5,866.5C 1095.43,868.027 1096.09,869.027 1097.5,869.5C 1098.34,869.842 1098.67,870.508 1098.5,871.5C 1098.43,873.027 1099.09,874.027 1100.5,874.5C 1104.23,879.96 1106.89,885.96 1108.5,892.5C 1108.72,896.162 1109.72,899.495 1111.5,902.5C 1114.66,912.462 1115.99,922.795 1115.5,933.5C 1115.85,943.355 1114.85,953.021 1112.5,962.5C 1111.41,962.62 1110.75,963.287 1110.5,964.5C 1108.88,969.058 1107.88,973.725 1107.5,978.5C 1092.95,1014.21 1066.95,1037.04 1029.5,1047C 1025.56,1048.02 1021.56,1048.52 1017.5,1048.5C 1008.15,1048.57 998.815,1048.23 989.5,1047.5C 972.648,1045.23 957.648,1038.9 944.5,1028.5C 943.738,1026.74 942.404,1025.74 940.5,1025.5C 939.5,1025.17 938.833,1024.5 938.5,1023.5C 938.027,1022.09 937.027,1021.43 935.5,1021.5C 926.24,1013.63 918.906,1004.29 913.5,993.5C 913.401,990.361 912.068,988.027 909.5,986.5C 907.771,982.979 906.438,979.313 905.5,975.5C 905.975,972.918 905.308,970.918 903.5,969.5C 902.566,968.432 902.232,967.099 902.5,965.5C 902.662,963.473 902.495,961.473 902,959.5C 901.617,958.944 901.117,958.611 900.5,958.5C 899.701,955.57 899.368,952.57 899.5,949.5C 899.5,861.5 899.5,773.5 899.5,685.5C 899.037,679.886 899.371,674.22 900.5,668.5C 902.633,663.156 903.633,657.489 903.5,651.5C 903.298,649.05 903.631,646.717 904.5,644.5C 906.277,641.495 907.277,638.162 907.5,634.5C 908.924,632.485 909.59,630.152 909.5,627.5C 909.971,625.421 910.637,623.421 911.5,621.5C 913.897,618.691 915.23,615.358 915.5,611.5C 920.831,596.508 927.497,582.174 935.5,568.5C 936.906,568.027 937.573,567.027 937.5,565.5C 937.328,564.508 937.662,563.842 938.5,563.5C 939.906,563.027 940.573,562.027 940.5,560.5C 940.328,559.508 940.662,558.842 941.5,558.5C 942.906,558.027 943.573,557.027 943.5,555.5C 949.346,544.989 956.346,535.322 964.5,526.5C 966.587,525.415 967.92,523.749 968.5,521.5C 970.935,520.73 972.269,519.063 972.5,516.5C 974.587,515.415 975.92,513.749 976.5,511.5C 978.062,507.608 980.395,504.275 983.5,501.5C 984.906,501.027 985.573,500.027 985.5,498.5C 986.906,498.027 987.573,497.027 987.5,495.5C 988.906,495.027 989.573,494.027 989.5,492.5C 990.11,490.566 991.11,488.899 992.5,487.5C 993.906,487.027 994.573,486.027 994.5,484.5C 1002.95,468.128 1010.62,451.462 1017.5,434.5C 1020.2,431.101 1021.53,427.101 1021.5,422.5C 1023.28,419.495 1024.28,416.162 1024.5,412.5C 1024.5,412.167 1024.5,411.833 1024.5,411.5C 1026.07,409.898 1026.74,407.898 1026.5,405.5C 1035.26,368.777 1036.6,331.777 1030.5,294.5C 1031.05,290.988 1030.39,287.988 1028.5,285.5C 1027.5,280.172 1026.5,274.839 1025.5,269.5C 1026.01,266.612 1025.34,264.279 1023.5,262.5C 1024.01,259.612 1023.34,257.279 1021.5,255.5C 1022.01,252.612 1021.34,250.279 1019.5,248.5C 1005.34,207.806 983.336,172.14 953.5,141.5C 953.512,138.858 952.179,137.525 949.5,137.5C 879.859,72.9669 798.193,49.9669 704.5,68.5C 609.136,95.2014 544.136,154.868 509.5,247.5C 508.503,247.47 507.836,247.97 507.5,249C 506.678,251.434 506.344,253.934 506.5,256.5C 506.5,256.833 506.5,257.167 506.5,257.5C 505.069,257.881 504.236,258.881 504,260.5C 503.503,262.81 503.337,265.143 503.5,267.5C 494.181,305.475 492.348,343.809 498,382.5C 499.977,393.554 502.144,404.554 504.5,415.5C 504.41,418.152 505.076,420.485 506.5,422.5C 512.979,440.914 520.645,458.914 529.5,476.5C 529.427,478.027 530.094,479.027 531.5,479.5C 532.338,479.842 532.672,480.508 532.5,481.5C 532.427,483.027 533.094,484.027 534.5,484.5C 542.908,496.971 551.575,509.304 560.5,521.5C 560.427,523.027 561.094,524.027 562.5,524.5C 564.633,526.091 566.299,528.091 567.5,530.5C 567.427,532.027 568.094,533.027 569.5,533.5C 578.985,544.46 586.985,556.46 593.5,569.5C 593.427,571.027 594.094,572.027 595.5,572.5C 602.171,583.512 607.505,595.179 611.5,607.5C 611.166,610.491 612.166,612.824 614.5,614.5C 614.804,617.522 615.304,620.522 616,623.5C 616.708,624.381 617.542,625.047 618.5,625.5C 618.5,625.833 618.5,626.167 618.5,626.5C 618.41,629.152 619.076,631.485 620.5,633.5C 620.41,636.152 621.076,638.485 622.5,640.5C 624.237,645.23 625.237,650.23 625.5,655.5C 625.765,662.736 626.765,669.736 628.5,676.5C 628.793,769.507 628.459,862.507 627.5,955.5C 619.396,1002.1 592.73,1032.27 547.5,1046C 493.957,1056.47 453.457,1038.31 426,991.5C 413.334,966.183 409.334,939.517 414,911.5C 416.498,896.194 421.998,882.194 430.5,869.5C 431.906,869.027 432.573,868.027 432.5,866.5C 436.027,859.636 440.694,853.636 446.5,848.5C 448.749,847.92 450.415,846.587 451.5,844.5C 461.566,834.128 473.566,826.794 487.5,822.5C 490.152,822.59 492.485,821.924 494.5,820.5C 495.568,819.566 496.901,819.232 498.5,819.5C 510.183,818.398 521.849,818.398 533.5,819.5C 534.609,819.557 535.609,819.89 536.5,820.5C 537.539,822.531 539.205,823.864 541.5,824.5C 543.167,825.5 544.5,826.833 545.5,828.5C 545.427,830.027 546.094,831.027 547.5,831.5C 557.527,851.925 552.527,867.758 532.5,879C 525.273,880.857 517.94,882.19 510.5,883C 494.142,888.195 482.808,898.695 476.5,914.5C 474.656,916.279 473.99,918.612 474.5,921.5C 472.442,926.072 472.109,930.738 473.5,935.5C 476.147,961.162 489.814,977.496 514.5,984.5C 521.705,985.764 529.039,985.598 536.5,984C 537.056,983.617 537.389,983.117 537.5,982.5C 545.977,978.361 553.311,972.694 559.5,965.5C 560.906,965.027 561.573,964.027 561.5,962.5C 565.322,954.863 567.989,946.863 569.5,938.5C 570.666,860.334 570.832,782.001 570,703.5C 569.825,698.981 569.325,694.647 568.5,690.5C 567.037,679.937 565.37,669.27 563.5,658.5C 564.01,655.612 563.344,653.279 561.5,651.5C 553.658,629.816 543.158,609.483 530,590.5C 508.45,564.407 489.117,536.74 472,507.5C 457.777,481.664 447.611,454.331 441.5,425.5C 441.423,421.123 440.923,416.79 440,412.5C 439.617,411.944 439.117,411.611 438.5,411.5C 436.362,403.09 435.028,394.423 434.5,385.5C 434.816,379.25 434.15,373.25 432.5,367.5C 430.33,340.509 431.663,313.843 436.5,287.5C 437.117,287.389 437.617,287.056 438,286.5C 438.498,283.183 438.665,279.85 438.5,276.5C 439.42,268.885 441.087,261.551 443.5,254.5C 444.924,252.485 445.59,250.152 445.5,247.5C 467.465,170.032 510.799,107.532 575.5,60C 611.806,34.2785 651.806,16.7785 695.5,7.5C 699.897,7.57544 704.23,7.07544 708.5,6C 709.056,5.61742 709.389,5.11742 709.5,4.5C 721.559,2.32765 733.559,0.660985 745.5,-0.5 Z M 627.5,378.5 C 625.343,377.593 623.01,376.927 620.5,376.5C 610.04,372.041 601.707,365.041 595.5,355.5C 594.342,352.011 593.009,348.678 591.5,345.5C 591.425,342.794 591.092,340.127 590.5,337.5C 590.324,332.12 590.658,326.787 591.5,321.5C 600.906,293.795 619.906,283.295 648.5,290C 671.988,301.814 680.821,320.647 675,346.5C 666.611,368.034 650.777,378.7 627.5,378.5 Z M 930.5,325.5 C 930.653,331.869 930.32,338.203 929.5,344.5C 927.125,352.253 923.458,359.253 918.5,365.5C 915.911,366.419 913.911,368.086 912.5,370.5C 893.336,381.834 877.169,378.5 864,360.5C 855.067,342.619 856.067,325.286 867,308.5C 879.011,293.605 893.844,289.772 911.5,297C 921.718,303.942 928.051,313.442 930.5,325.5 Z"/></g>
<g><path style="opacity:0.957" fill="#535253" d="M 788.5,0.5 C 793.353,0.81271 798.02,1.47938 802.5,2.5C 798.818,2.6653 795.152,2.49863 791.5,2C 790.263,1.76791 789.263,1.26791 788.5,0.5 Z"/></g>
<g><path style="opacity:0.994" fill="#424142" d="M 812.5,3.5 C 819.057,4.34345 825.39,5.67678 831.5,7.5C 824.636,7.52532 818.302,6.19199 812.5,3.5 Z"/></g>
<g><path style="opacity:1" fill="#2d2d2e" d="M 709.5,4.5 C 709.389,5.11742 709.056,5.61742 708.5,6C 704.23,7.07544 699.897,7.57544 695.5,7.5C 699.942,6.0099 704.609,5.0099 709.5,4.5 Z"/></g>
<g><path style="opacity:0.994" fill="#424141" d="M 837.5,8.5 C 839.698,8.87513 841.698,9.5418 843.5,10.5C 840.918,10.9746 838.918,10.3079 837.5,8.5 Z"/></g>
<g><path style="opacity:1" fill="#423f3f" d="M 994.5,95.5 C 996.167,96.5 997.5,97.8333 998.5,99.5C 995.858,99.5123 994.525,98.179 994.5,95.5 Z"/></g>
<g><path style="opacity:1" fill="#3f3f40" d="M 949.5,137.5 C 952.179,137.525 953.512,138.858 953.5,141.5C 951.833,140.5 950.5,139.167 949.5,137.5 Z"/></g>
<g><path style="opacity:1" fill="#020202" d="M 87.5,201.5 C 87.427,203.027 88.0937,204.027 89.5,204.5C 94.3103,211.79 97.1436,219.79 98,228.5C 168.782,299.449 239.616,370.116 310.5,440.5C 310.525,443.179 311.858,444.512 314.5,444.5C 314.525,447.179 315.858,448.512 318.5,448.5C 318.525,451.179 319.858,452.512 322.5,452.5C 348.527,478.194 374.527,503.861 400.5,529.5C 401.659,531.25 403.326,532.25 405.5,532.5C 405.791,537.141 407.458,537.807 410.5,534.5C 413.421,534.283 416.087,534.949 418.5,536.5C 424.167,541.5 429.5,546.833 434.5,552.5C 434.958,555.309 436.291,555.976 438.5,554.5C 442.864,547.543 448.864,545.71 456.5,549C 458.923,550.571 460.256,552.737 460.5,555.5C 460.13,559.233 459.463,562.899 458.5,566.5C 449.713,577.792 440.713,588.959 431.5,600C 432.252,600.671 432.586,601.504 432.5,602.5C 432.859,604.371 433.859,605.871 435.5,607C 441.842,607.475 448.176,607.975 454.5,608.5C 454.833,608.5 455.167,608.5 455.5,608.5C 461.226,611.356 467.226,613.69 473.5,615.5C 481.984,618.813 488.484,624.479 493,632.5C 493.425,638.153 491.258,642.653 486.5,646C 484.833,646.667 483.167,646.667 481.5,646C 476.264,638.092 469.264,632.425 460.5,629C 437.728,625.131 424.395,634.465 420.5,657C 421.018,663.574 422.851,669.741 426,675.5C 429.752,680.018 433.252,684.684 436.5,689.5C 436.5,692.167 436.5,694.833 436.5,697.5C 432.219,707.019 428.553,716.686 425.5,726.5C 423.933,727.681 423.099,729.347 423,731.5C 422.389,738.164 421.889,744.83 421.5,751.5C 420.982,761.648 419.648,771.648 417.5,781.5C 416.883,781.611 416.383,781.944 416,782.5C 415.502,785.482 415.335,788.482 415.5,791.5C 414.277,798.822 412.277,805.822 409.5,812.5C 407.744,813.552 407.077,815.219 407.5,817.5C 393.239,854.165 370.572,884.665 339.5,909C 336.97,910.422 334.303,910.755 331.5,910C 322.25,904.887 313.583,899.053 305.5,892.5C 305.027,891.094 304.027,890.427 302.5,890.5C 283.765,876.766 267.765,860.432 254.5,841.5C 252.251,835.995 249.251,830.995 245.5,826.5C 236.807,817.927 236.474,809.094 244.5,800C 249.968,798.097 255.301,795.93 260.5,793.5C 262.848,793.408 264.514,792.408 265.5,790.5C 269.323,787.084 273.657,784.418 278.5,782.5C 282.704,780.967 286.037,778.3 288.5,774.5C 291.089,773.581 293.089,771.914 294.5,769.5C 295.167,768.167 296.167,767.167 297.5,766.5C 301.167,764.833 303.833,762.167 305.5,758.5C 315.892,746.25 324.058,732.583 330,717.5C 330.788,710.444 330.455,703.444 329,696.5C 328.586,696.043 328.086,695.709 327.5,695.5C 319.911,699.966 311.911,703.299 303.5,705.5C 293.468,705.729 283.468,705.396 273.5,704.5C 273.167,704.5 272.833,704.5 272.5,704.5C 270.824,702.166 268.491,701.166 265.5,701.5C 262.515,700.674 259.849,699.341 257.5,697.5C 257.027,696.094 256.027,695.427 254.5,695.5C 250.544,693.212 247.211,690.212 244.5,686.5C 241.352,682.226 238.185,677.892 235,673.5C 231.363,667.567 228.863,661.234 227.5,654.5C 226.563,646.555 226.23,638.555 226.5,630.5C 228.16,625.176 229.826,619.843 231.5,614.5C 232.128,611.91 233.295,609.577 235,607.5C 239.93,602.231 245.096,597.398 250.5,593C 243.068,582.567 234.568,573.067 225,564.5C 218.742,557.066 217.075,548.732 220,539.5C 222.084,533.661 224.917,528.327 228.5,523.5C 230.931,521.954 232.264,519.621 232.5,516.5C 235.091,510.565 237.591,504.565 240,498.5C 240.635,496.365 240.301,494.365 239,492.5C 158.938,412.605 79.105,332.605 -0.5,252.5C -0.5,251.833 -0.5,251.167 -0.5,250.5C 4.76959,244.729 10.2696,239.062 16,233.5C 14.6667,230.833 13.3333,228.167 12,225.5C 16.6988,220.466 21.6988,215.8 27,211.5C 28.9481,206.533 32.1147,202.367 36.5,199C 42.1667,194.667 47.8333,190.333 53.5,186C 54.5,185.333 55.5,185.333 56.5,186C 58.6414,187.308 60.6414,188.808 62.5,190.5C 71.1261,185.476 78.2928,187.143 84,195.5C 85.3937,197.388 86.5604,199.388 87.5,201.5 Z M 313.5,673.5 C 312.094,673.973 311.427,674.973 311.5,676.5C 298.349,686.669 284.682,687.169 270.5,678C 257.759,670.418 250.426,659.252 248.5,644.5C 248.372,640.119 248.705,635.785 249.5,631.5C 252.782,621.381 259.615,615.381 270,613.5C 271.967,613.542 273.801,614.042 275.5,615C 289.064,627.895 301.897,641.395 314,655.5C 316.05,661.568 315.883,667.568 313.5,673.5 Z"/></g>
<g><path style="opacity:1" fill="#020202" d="M 1479.5,193.5 C 1479.06,193.435 1478.73,193.601 1478.5,194C 1480.87,197.226 1483.87,199.392 1487.5,200.5C 1496.5,209.328 1505.66,217.995 1515,226.5C 1514.51,230.268 1513.84,233.935 1513,237.5C 1517.38,241.41 1521.55,245.41 1525.5,249.5C 1525.5,251.5 1525.5,253.5 1525.5,255.5C 1446.53,336.139 1366.86,416.139 1286.5,495.5C 1285.86,496.097 1285.53,496.93 1285.5,498C 1285.39,499.699 1286.05,500.866 1287.5,501.5C 1288.67,502.514 1289.34,503.847 1289.5,505.5C 1289.43,507.027 1290.09,508.027 1291.5,508.5C 1292.67,509.514 1293.34,510.847 1293.5,512.5C 1293.43,514.027 1294.09,515.027 1295.5,515.5C 1296.34,515.842 1296.67,516.508 1296.5,517.5C 1296.43,519.027 1297.09,520.027 1298.5,520.5C 1299.67,521.514 1300.34,522.847 1300.5,524.5C 1300.43,526.027 1301.09,527.027 1302.5,527.5C 1303.34,527.842 1303.67,528.508 1303.5,529.5C 1303.43,531.027 1304.09,532.027 1305.5,532.5C 1307.01,534.181 1308.01,536.181 1308.5,538.5C 1309.29,544.13 1309.63,549.797 1309.5,555.5C 1308.47,558.891 1306.47,561.557 1303.5,563.5C 1302.09,563.973 1301.43,564.973 1301.5,566.5C 1293.83,574.839 1285.83,582.839 1277.5,590.5C 1298.43,606.363 1307.26,627.363 1304,653.5C 1297.77,676.075 1283.93,692.241 1262.5,702C 1250.07,707.569 1237.4,708.736 1224.5,705.5C 1222.49,704.076 1220.15,703.41 1217.5,703.5C 1211.47,701.654 1205.81,698.987 1200.5,695.5C 1199.91,695.709 1199.41,696.043 1199,696.5C 1197.15,706.869 1198.48,716.869 1203,726.5C 1207.44,737.063 1213.61,746.396 1221.5,754.5C 1221.43,756.027 1222.09,757.027 1223.5,757.5C 1237.74,770.083 1253.07,781.083 1269.5,790.5C 1270.98,793.083 1273.32,794.416 1276.5,794.5C 1280.11,796.307 1283.78,798.14 1287.5,800C 1289.14,801.129 1290.14,802.629 1290.5,804.5C 1289.95,807.807 1289.62,811.14 1289.5,814.5C 1268.46,857.042 1236.79,889.209 1194.5,911C 1192.83,911.667 1191.17,911.667 1189.5,911C 1174.19,896.864 1160.19,881.698 1147.5,865.5C 1147.45,863.368 1146.45,862.035 1144.5,861.5C 1133.25,847.01 1124.58,831.01 1118.5,813.5C 1118.41,809.786 1117.41,806.452 1115.5,803.5C 1113.16,797.493 1111.83,791.159 1111.5,784.5C 1111.81,779.234 1111.14,774.234 1109.5,769.5C 1108.2,765.057 1107.53,760.391 1107.5,755.5C 1107.67,751.818 1107.5,748.152 1107,744.5C 1106.77,743.263 1106.27,742.263 1105.5,741.5C 1104.45,738.272 1103.79,734.939 1103.5,731.5C 1103.89,728.447 1103.22,725.78 1101.5,723.5C 1099.97,718.907 1098.64,714.24 1097.5,709.5C 1096.93,705.463 1095.6,701.797 1093.5,698.5C 1093.77,696.62 1093.1,695.287 1091.5,694.5C 1090.28,692.716 1090.28,691.05 1091.5,689.5C 1093.59,688.415 1094.92,686.749 1095.5,684.5C 1098.24,682.761 1100.24,680.427 1101.5,677.5C 1102.91,677.027 1103.57,676.027 1103.5,674.5C 1106.34,672.36 1107.67,669.36 1107.5,665.5C 1107.5,660.833 1107.5,656.167 1107.5,651.5C 1107.74,649.102 1107.07,647.102 1105.5,645.5C 1103.25,640.681 1100.25,636.348 1096.5,632.5C 1096.03,631.094 1095.03,630.427 1093.5,630.5C 1085.8,627.568 1077.8,626.735 1069.5,628C 1065.89,629.139 1062.55,630.806 1059.5,633C 1055.59,637.485 1051.93,642.152 1048.5,647C 1045.83,647.667 1043.17,647.667 1040.5,647C 1039.18,646.184 1038.51,645.017 1038.5,643.5C 1038.47,639.131 1038.8,634.798 1039.5,630.5C 1042.56,623.772 1047.56,619.106 1054.5,616.5C 1056.97,616.245 1058.97,615.245 1060.5,613.5C 1068.06,611.964 1075.72,611.13 1083.5,611C 1084.42,610.722 1085.08,610.222 1085.5,609.5C 1085.84,608.662 1086.51,608.328 1087.5,608.5C 1090.83,607.167 1093.17,604.833 1094.5,601.5C 1095.52,599.423 1095.19,597.423 1093.5,595.5C 1093.51,592.858 1092.18,591.525 1089.5,591.5C 1087.83,589.5 1086.17,587.5 1084.5,585.5C 1084.51,582.858 1083.18,581.525 1080.5,581.5C 1078.17,578.997 1076,576.331 1074,573.5C 1073.81,572.181 1073.97,570.847 1074.5,569.5C 1073.5,566.5 1071.5,564.5 1068.5,563.5C 1067.78,561.236 1067.45,558.903 1067.5,556.5C 1069.83,554.833 1071.83,552.833 1073.5,550.5C 1073.5,549.833 1073.83,549.5 1074.5,549.5C 1076.14,547.919 1078.14,547.253 1080.5,547.5C 1082.23,548.026 1083.56,549.026 1084.5,550.5C 1085.03,552.446 1086.37,553.446 1088.5,553.5C 1089.5,553.5 1090.5,553.5 1091.5,553.5C 1093.03,553.573 1094.03,552.906 1094.5,551.5C 1097.83,550.167 1100.17,547.833 1101.5,544.5C 1104.5,543.5 1106.5,541.5 1107.5,538.5C 1108.83,537.833 1109.83,536.833 1110.5,535.5C 1114.71,535.885 1118.71,535.885 1122.5,535.5C 1130.45,529.224 1137.78,522.224 1144.5,514.5C 1153.42,504.908 1162.76,495.575 1172.5,486.5C 1176.17,484.833 1178.83,482.167 1180.5,478.5C 1189.78,470.889 1198.45,462.555 1206.5,453.5C 1213.17,446.167 1220.17,439.167 1227.5,432.5C 1236.83,423.833 1245.83,414.833 1254.5,405.5C 1258.5,400.833 1262.83,396.5 1267.5,392.5C 1272.5,389.5 1276.5,385.5 1279.5,380.5C 1282.18,380.475 1283.51,379.142 1283.5,376.5C 1297.83,361.5 1312.5,346.833 1327.5,332.5C 1331.21,330.789 1333.88,328.123 1335.5,324.5C 1367.47,292.035 1399.63,259.701 1432,227.5C 1433.56,220.494 1435.22,213.494 1437,206.5C 1439.68,197.153 1445.68,191.153 1455,188.5C 1458.94,189.97 1462.61,191.97 1466,194.5C 1470.36,187.327 1474.86,186.994 1479.5,193.5 Z M 1260.5,612.5 C 1262.05,613.441 1263.72,614.107 1265.5,614.5C 1265.97,615.906 1266.97,616.573 1268.5,616.5C 1270.8,619.297 1273.3,621.964 1276,624.5C 1281.37,635.621 1281.87,646.954 1277.5,658.5C 1276.09,658.973 1275.43,659.973 1275.5,661.5C 1274.09,661.973 1273.43,662.973 1273.5,664.5C 1272.09,664.973 1271.43,665.973 1271.5,667.5C 1264.33,675.084 1255.67,680.084 1245.5,682.5C 1239.45,682.697 1233.45,682.363 1227.5,681.5C 1224.87,679.847 1222.2,678.181 1219.5,676.5C 1219.26,674.596 1218.26,673.262 1216.5,672.5C 1216.2,670.597 1215.54,668.93 1214.5,667.5C 1214.09,662.308 1214.76,657.308 1216.5,652.5C 1219.14,649.526 1221.8,646.526 1224.5,643.5C 1227.76,641.906 1230.43,639.573 1232.5,636.5C 1240.5,629.167 1248.17,621.5 1255.5,613.5C 1257.12,612.962 1258.78,612.629 1260.5,612.5 Z"/></g>
<g><path style="opacity:1" fill="#343434" d="M 1479.5,193.5 C 1482.76,195.094 1485.43,197.427 1487.5,200.5C 1483.87,199.392 1480.87,197.226 1478.5,194C 1478.73,193.601 1479.06,193.435 1479.5,193.5 Z"/></g>
<g><path style="opacity:0.224" fill="#797a79" d="M 87.5,201.5 C 88.9063,201.973 89.573,202.973 89.5,204.5C 88.0937,204.027 87.427,203.027 87.5,201.5 Z"/></g>
<g><path style="opacity:1" fill="#030303" d="M 656.5,231.5 C 657.749,233.136 659.416,234.303 661.5,235C 665.438,236.474 669.438,237.641 673.5,238.5C 692.842,246.669 707.676,260.002 718,278.5C 721.679,284.852 724.512,291.519 726.5,298.5C 726.41,301.152 727.076,303.485 728.5,305.5C 728.502,310.021 728.836,314.521 729.5,319C 729.569,320.986 730.235,322.486 731.5,323.5C 732.833,328.833 732.833,334.167 731.5,339.5C 730.732,340.263 730.232,341.263 730,342.5C 729.316,347.822 728.816,353.156 728.5,358.5C 728.5,359.167 728.5,359.833 728.5,360.5C 726.692,361.918 726.025,363.918 726.5,366.5C 716.21,399.79 694.543,421.79 661.5,432.5C 658.626,432.451 655.792,432.784 653,433.5C 651.624,433.684 650.791,434.351 650.5,435.5C 605.378,440.189 571.211,423.189 548,384.5C 545.928,381.029 544.428,377.362 543.5,373.5C 544.251,369.146 542.917,365.813 539.5,363.5C 539.5,363.167 539.5,362.833 539.5,362.5C 539.829,359.772 539.163,357.438 537.5,355.5C 536.631,353.283 536.298,350.95 536.5,348.5C 536.334,339.494 536.5,330.494 537,321.5C 538.918,313.576 540.418,305.576 541.5,297.5C 552.074,266.592 572.741,245.592 603.5,234.5C 606.152,234.59 608.485,233.924 610.5,232.5C 625.644,227.632 640.977,227.299 656.5,231.5 Z M 627.5,378.5 C 625.343,377.593 623.01,376.927 620.5,376.5C 610.04,372.041 601.707,365.041 595.5,355.5C 594.342,352.011 593.009,348.678 591.5,345.5C 591.425,342.794 591.092,340.127 590.5,337.5C 590.324,332.12 590.658,326.787 591.5,321.5C 600.906,293.795 619.906,283.295 648.5,290C 671.988,301.814 680.821,320.647 675,346.5C 666.611,368.034 650.777,378.7 627.5,378.5 Z"/></g>
<g><path style="opacity:0.976" fill="#414141" d="M 610.5,232.5 C 608.485,233.924 606.152,234.59 603.5,234.5C 605.515,233.076 607.848,232.41 610.5,232.5 Z"/></g>
<g><path style="opacity:0.98" fill="#2f302f" d="M 656.5,231.5 C 662.577,233.045 668.244,235.378 673.5,238.5C 669.438,237.641 665.438,236.474 661.5,235C 659.416,234.303 657.749,233.136 656.5,231.5 Z"/></g>
<g><path style="opacity:1" fill="#040404" d="M 930.5,247.5 C 930.821,249.048 931.821,249.715 933.5,249.5C 953.194,260.862 966.194,277.529 972.5,299.5C 972.41,302.152 973.076,304.485 974.5,306.5C 975.895,310.591 976.562,314.924 976.5,319.5C 976.718,331.276 976.051,342.943 974.5,354.5C 974.44,357.341 973.774,360.007 972.5,362.5C 970.744,363.552 970.077,365.219 970.5,367.5C 961.168,394.004 943.835,413.504 918.5,426C 904.793,431.702 890.793,433.202 876.5,430.5C 874.485,429.076 872.152,428.41 869.5,428.5C 863.64,427.234 858.307,424.9 853.5,421.5C 853.027,420.094 852.027,419.427 850.5,419.5C 833.571,408.011 822.238,392.344 816.5,372.5C 816.515,368.44 816.015,364.44 815,360.5C 814.617,359.944 814.117,359.611 813.5,359.5C 807.905,332.404 812.238,307.071 826.5,283.5C 827.906,283.027 828.573,282.027 828.5,280.5C 850.084,247.048 880.417,234.548 919.5,243C 923.397,244.019 927.064,245.519 930.5,247.5 Z M 930.5,325.5 C 930.653,331.869 930.32,338.203 929.5,344.5C 927.125,352.253 923.458,359.253 918.5,365.5C 915.911,366.419 913.911,368.086 912.5,370.5C 893.336,381.834 877.169,378.5 864,360.5C 855.067,342.619 856.067,325.286 867,308.5C 879.011,293.605 893.844,289.772 911.5,297C 921.718,303.942 928.051,313.442 930.5,325.5 Z"/></g>
<g><path style="opacity:1" fill="#313131" d="M 509.5,247.5 C 509.072,250.785 508.072,253.785 506.5,256.5C 506.344,253.934 506.678,251.434 507.5,249C 507.836,247.97 508.503,247.47 509.5,247.5 Z"/></g>
<g><path style="opacity:0.941" fill="#5c5c5b" d="M 930.5,247.5 C 931.71,247.932 932.71,248.599 933.5,249.5C 931.821,249.715 930.821,249.048 930.5,247.5 Z"/></g>
<g><path style="opacity:0.992" fill="#45484f" d="M 1019.5,248.5 C 1021.34,250.279 1022.01,252.612 1021.5,255.5C 1020.39,253.401 1019.72,251.067 1019.5,248.5 Z"/></g>
<g><path style="opacity:1" fill="#313130" d="M 1080.5,241.5 C 1082.12,245.303 1083.46,249.303 1084.5,253.5C 1083.21,252.942 1082.38,251.942 1082,250.5C 1081.3,247.522 1080.8,244.522 1080.5,241.5 Z"/></g>
<g><path style="opacity:0.976" fill="#474748" d="M 445.5,247.5 C 445.59,250.152 444.924,252.485 443.5,254.5C 443.41,251.848 444.076,249.515 445.5,247.5 Z"/></g>
<g><path style="opacity:1" fill="#3d3f44" d="M 1021.5,255.5 C 1023.34,257.279 1024.01,259.612 1023.5,262.5C 1022.39,260.401 1021.72,258.067 1021.5,255.5 Z"/></g>
<g><path style="opacity:1" fill="#383839" d="M 506.5,257.5 C 505.87,261.048 504.87,264.381 503.5,267.5C 503.337,265.143 503.503,262.81 504,260.5C 504.236,258.881 505.069,257.881 506.5,257.5 Z"/></g>
<g><path style="opacity:1" fill="#3c3d41" d="M 1023.5,262.5 C 1025.34,264.279 1026.01,266.612 1025.5,269.5C 1024.39,267.401 1023.72,265.067 1023.5,262.5 Z"/></g>
<g><path style="opacity:0.698" fill="#575758" d="M 828.5,280.5 C 828.573,282.027 827.906,283.027 826.5,283.5C 826.427,281.973 827.094,280.973 828.5,280.5 Z"/></g>
<g><path style="opacity:1" fill="#313031" d="M 438.5,276.5 C 438.665,279.85 438.498,283.183 438,286.5C 437.617,287.056 437.117,287.389 436.5,287.5C 436.43,283.575 437.097,279.909 438.5,276.5 Z"/></g>
<g><path style="opacity:1" fill="#49494a" d="M 1028.5,285.5 C 1030.39,287.988 1031.05,290.988 1030.5,294.5C 1029.53,291.689 1028.86,288.689 1028.5,285.5 Z"/></g>
<g><path style="opacity:0.965" fill="#4f4e4f" d="M 726.5,298.5 C 727.924,300.515 728.59,302.848 728.5,305.5C 727.076,303.485 726.41,301.152 726.5,298.5 Z"/></g>
<g><path style="opacity:0.812" fill="#515150" d="M 972.5,299.5 C 973.924,301.515 974.59,303.848 974.5,306.5C 973.076,304.485 972.41,302.152 972.5,299.5 Z"/></g>
<g><path style="opacity:0.816" fill="#545555" d="M 1093.5,300.5 C 1094.81,305.616 1095.47,310.949 1095.5,316.5C 1093.82,311.432 1093.16,306.098 1093.5,300.5 Z"/></g>
<g><path style="opacity:1" fill="#242425" d="M 728.5,305.5 C 730.505,311.209 731.505,317.209 731.5,323.5C 730.235,322.486 729.569,320.986 729.5,319C 728.836,314.521 728.502,310.021 728.5,305.5 Z"/></g>
<g><path style="opacity:0.97" fill="#333333" d="M 541.5,297.5 C 540.418,305.576 538.918,313.576 537,321.5C 536.5,330.494 536.334,339.494 536.5,348.5C 535.341,338.342 535.175,328.008 536,317.5C 537.236,310.544 539.069,303.878 541.5,297.5 Z"/></g>
<g><path style="opacity:0.941" fill="#474747" d="M 1335.5,324.5 C 1333.88,328.123 1331.21,330.789 1327.5,332.5C 1329.83,329.5 1332.5,326.833 1335.5,324.5 Z"/></g>
<g><path style="opacity:0.192" fill="#6d6d6d" d="M 591.5,321.5 C 590.658,326.787 590.324,332.12 590.5,337.5C 589.352,333.019 589.185,328.352 590,323.5C 590.278,322.584 590.778,321.918 591.5,321.5 Z"/></g>
<g><path style="opacity:1" fill="#373738" d="M 731.5,339.5 C 731.873,346.178 730.873,352.511 728.5,358.5C 728.816,353.156 729.316,347.822 730,342.5C 730.232,341.263 730.732,340.263 731.5,339.5 Z"/></g>
<g><path style="opacity:1" fill="#464647" d="M 976.5,319.5 C 978.101,331.278 977.434,342.945 974.5,354.5C 976.051,342.943 976.718,331.276 976.5,319.5 Z"/></g>
<g><path style="opacity:1" fill="#363738" d="M 930.5,325.5 C 931.165,328.482 931.498,331.648 931.5,335C 931.485,338.576 930.818,341.742 929.5,344.5C 930.32,338.203 930.653,331.869 930.5,325.5 Z"/></g>
<g><path style="opacity:1" fill="#2d2d2d" d="M 591.5,345.5 C 593.009,348.678 594.342,352.011 595.5,355.5C 594.504,355.586 593.671,355.252 593,354.5C 592.304,351.522 591.804,348.522 591.5,345.5 Z"/></g>
<g><path style="opacity:0.953" fill="#464748" d="M 537.5,355.5 C 539.163,357.438 539.829,359.772 539.5,362.5C 538.388,360.401 537.721,358.067 537.5,355.5 Z"/></g>
<g><path style="opacity:0.996" fill="#424243" d="M 728.5,360.5 C 728.125,362.698 727.458,364.698 726.5,366.5C 726.025,363.918 726.692,361.918 728.5,360.5 Z"/></g>
<g><path style="opacity:1" fill="#3a3b3b" d="M 813.5,359.5 C 814.117,359.611 814.617,359.944 815,360.5C 816.015,364.44 816.515,368.44 816.5,372.5C 814.74,368.453 813.74,364.12 813.5,359.5 Z"/></g>
<g><path style="opacity:1" fill="#3e3e3f" d="M 972.5,362.5 C 972.598,364.553 971.931,366.22 970.5,367.5C 970.077,365.219 970.744,363.552 972.5,362.5 Z"/></g>
<g><path style="opacity:1" fill="#303031" d="M 539.5,363.5 C 542.917,365.813 544.251,369.146 543.5,373.5C 541.6,370.482 540.267,367.149 539.5,363.5 Z"/></g>
<g><path style="opacity:0.965" fill="#434442" d="M 918.5,365.5 C 917.089,367.914 915.089,369.581 912.5,370.5C 913.911,368.086 915.911,366.419 918.5,365.5 Z"/></g>
<g><path style="opacity:0.737" fill="#646667" d="M 432.5,367.5 C 434.15,373.25 434.816,379.25 434.5,385.5C 433.423,379.688 432.757,373.688 432.5,367.5 Z"/></g>
<g><path style="opacity:0.996" fill="#474747" d="M 620.5,376.5 C 623.01,376.927 625.343,377.593 627.5,378.5C 624.612,379.01 622.279,378.344 620.5,376.5 Z"/></g>
<g><path style="opacity:1" fill="#3f3f3f" d="M 1283.5,376.5 C 1283.51,379.142 1282.18,380.475 1279.5,380.5C 1280.5,378.833 1281.83,377.5 1283.5,376.5 Z"/></g>
<g><path style="opacity:0.824" fill="#585857" d="M 1279.5,380.5 C 1276.5,385.5 1272.5,389.5 1267.5,392.5C 1271.17,388.167 1275.17,384.167 1279.5,380.5 Z"/></g>
<g><path style="opacity:1" fill="#464646" d="M 1092.5,394.5 C 1092.45,398.078 1091.78,401.411 1090.5,404.5C 1089.93,400.671 1090.6,397.337 1092.5,394.5 Z"/></g>
<g><path style="opacity:0.867" fill="#6a6a6b" d="M 1026.5,405.5 C 1026.74,407.898 1026.07,409.898 1024.5,411.5C 1024.59,409.214 1025.26,407.214 1026.5,405.5 Z"/></g>
<g><path style="opacity:1" fill="#3d3e3f" d="M 438.5,411.5 C 439.117,411.611 439.617,411.944 440,412.5C 440.923,416.79 441.423,421.123 441.5,425.5C 439.754,421.111 438.754,416.444 438.5,411.5 Z"/></g>
<g><path style="opacity:0.925" fill="#626363" d="M 1024.5,412.5 C 1024.28,416.162 1023.28,419.495 1021.5,422.5C 1021.72,418.838 1022.72,415.505 1024.5,412.5 Z"/></g>
<g><path style="opacity:0.608" fill="#777777" d="M 1254.5,405.5 C 1245.83,414.833 1236.83,423.833 1227.5,432.5C 1235.24,423.254 1243.57,414.421 1252.5,406C 1253.09,405.536 1253.76,405.369 1254.5,405.5 Z"/></g>
<g><path style="opacity:1" fill="#4c4c4e" d="M 1088.5,415.5 C 1088.12,420.092 1087.12,424.425 1085.5,428.5C 1085.86,424.491 1086.36,420.491 1087,416.5C 1087.38,415.944 1087.88,415.611 1088.5,415.5 Z"/></g>
<g><path style="opacity:0.965" fill="#4b4a4a" d="M 504.5,415.5 C 505.924,417.515 506.59,419.848 506.5,422.5C 505.076,420.485 504.41,418.152 504.5,415.5 Z"/></g>
<g><path style="opacity:0.659" fill="#575858" d="M 850.5,419.5 C 852.027,419.427 853.027,420.094 853.5,421.5C 851.973,421.573 850.973,420.906 850.5,419.5 Z"/></g>
<g><path style="opacity:0.922" fill="#434445" d="M 869.5,428.5 C 872.152,428.41 874.485,429.076 876.5,430.5C 873.848,430.59 871.515,429.924 869.5,428.5 Z"/></g>
<g><path style="opacity:1" fill="#383839" d="M 1021.5,422.5 C 1021.53,427.101 1020.2,431.101 1017.5,434.5C 1018.26,430.233 1019.59,426.233 1021.5,422.5 Z"/></g>
<g><path style="opacity:1" fill="#38393a" d="M 661.5,432.5 C 658.063,433.945 654.397,434.945 650.5,435.5C 650.791,434.351 651.624,433.684 653,433.5C 655.792,432.784 658.626,432.451 661.5,432.5 Z"/></g>
<g><path style="opacity:1" fill="#3e3e3f" d="M 1082.5,440.5 C 1082.41,442.786 1081.74,444.786 1080.5,446.5C 1080.03,443.918 1080.69,441.918 1082.5,440.5 Z"/></g>
<g><path style="opacity:1" fill="#404141" d="M 310.5,440.5 C 312.167,441.5 313.5,442.833 314.5,444.5C 311.858,444.512 310.525,443.179 310.5,440.5 Z"/></g>
<g><path style="opacity:1" fill="#3e3f3e" d="M 314.5,444.5 C 316.167,445.5 317.5,446.833 318.5,448.5C 315.858,448.512 314.525,447.179 314.5,444.5 Z"/></g>
<g><path style="opacity:0.996" fill="#3e3f3f" d="M 318.5,448.5 C 320.167,449.5 321.5,450.833 322.5,452.5C 319.858,452.512 318.525,451.179 318.5,448.5 Z"/></g>
<g><path style="opacity:0.816" fill="#646564" d="M 1206.5,453.5 C 1198.45,462.555 1189.78,470.889 1180.5,478.5C 1188.55,469.445 1197.22,461.111 1206.5,453.5 Z"/></g>
<g><path style="opacity:0.478" fill="#666667" d="M 529.5,476.5 C 530.906,476.973 531.573,477.973 531.5,479.5C 530.094,479.027 529.427,478.027 529.5,476.5 Z"/></g>
<g><path style="opacity:0.643" fill="#5d5e5e" d="M 532.5,481.5 C 533.906,481.973 534.573,482.973 534.5,484.5C 533.094,484.027 532.427,483.027 532.5,481.5 Z"/></g>
<g><path style="opacity:0.906" fill="#4c4c4c" d="M 1180.5,478.5 C 1178.83,482.167 1176.17,484.833 1172.5,486.5C 1174.83,483.5 1177.5,480.833 1180.5,478.5 Z"/></g>
<g><path style="opacity:0.651" fill="#5a5a5a" d="M 994.5,484.5 C 994.573,486.027 993.906,487.027 992.5,487.5C 992.427,485.973 993.094,484.973 994.5,484.5 Z"/></g>
<g><path style="opacity:0.69" fill="#595958" d="M 989.5,492.5 C 989.573,494.027 988.906,495.027 987.5,495.5C 987.427,493.973 988.094,492.973 989.5,492.5 Z"/></g>
<g><path style="opacity:0.624" fill="#5d5d5d" d="M 987.5,495.5 C 987.573,497.027 986.906,498.027 985.5,498.5C 985.427,496.973 986.094,495.973 987.5,495.5 Z"/></g>
<g><path style="opacity:0.937" fill="#5c5d5d" d="M 1286.5,495.5 C 1286.52,497.565 1286.85,499.565 1287.5,501.5C 1286.05,500.866 1285.39,499.699 1285.5,498C 1285.53,496.93 1285.86,496.097 1286.5,495.5 Z"/></g>
<g><path style="opacity:0.616" fill="#606161" d="M 985.5,498.5 C 985.573,500.027 984.906,501.027 983.5,501.5C 983.427,499.973 984.094,498.973 985.5,498.5 Z"/></g>
<g><path style="opacity:0.424" fill="#6a6a6b" d="M 1289.5,505.5 C 1290.91,505.973 1291.57,506.973 1291.5,508.5C 1290.09,508.027 1289.43,507.027 1289.5,505.5 Z"/></g>
<g><path style="opacity:0.69" fill="#626363" d="M 976.5,511.5 C 975.92,513.749 974.587,515.415 972.5,516.5C 973.08,514.251 974.413,512.585 976.5,511.5 Z"/></g>
<g><path style="opacity:0.431" fill="#686868" d="M 1293.5,512.5 C 1294.91,512.973 1295.57,513.973 1295.5,515.5C 1294.09,515.027 1293.43,514.027 1293.5,512.5 Z"/></g>
<g><path style="opacity:1" fill="#424242" d="M 972.5,516.5 C 972.269,519.063 970.935,520.73 968.5,521.5C 969.08,519.251 970.413,517.585 972.5,516.5 Z"/></g>
<g><path style="opacity:0.345" fill="#747575" d="M 1296.5,517.5 C 1297.91,517.973 1298.57,518.973 1298.5,520.5C 1297.09,520.027 1296.43,519.027 1296.5,517.5 Z"/></g>
<g><path style="opacity:1" fill="#3e3d3e" d="M 232.5,516.5 C 232.264,519.621 230.931,521.954 228.5,523.5C 229.079,520.669 230.412,518.336 232.5,516.5 Z"/></g>
<g><path style="opacity:0.882" fill="#606061" d="M 560.5,521.5 C 561.906,521.973 562.573,522.973 562.5,524.5C 561.094,524.027 560.427,523.027 560.5,521.5 Z"/></g>
<g><path style="opacity:0.58" fill="#6a6a6a" d="M 1144.5,514.5 C 1137.78,522.224 1130.45,529.224 1122.5,535.5C 1129.22,527.776 1136.55,520.776 1144.5,514.5 Z"/></g>
<g><path style="opacity:0.6" fill="#6c6c6b" d="M 968.5,521.5 C 967.92,523.749 966.587,525.415 964.5,526.5C 965.08,524.251 966.413,522.585 968.5,521.5 Z"/></g>
<g><path style="opacity:0.533" fill="#616261" d="M 1300.5,524.5 C 1301.91,524.973 1302.57,525.973 1302.5,527.5C 1301.09,527.027 1300.43,526.027 1300.5,524.5 Z"/></g>
<g><path style="opacity:0.478" fill="#757676" d="M 400.5,529.5 C 402.933,529.273 404.599,530.273 405.5,532.5C 403.326,532.25 401.659,531.25 400.5,529.5 Z"/></g>
<g><path style="opacity:0.914" fill="#5a5a5a" d="M 567.5,530.5 C 568.906,530.973 569.573,531.973 569.5,533.5C 568.094,533.027 567.427,532.027 567.5,530.5 Z"/></g>
<g><path style="opacity:0.533" fill="#5f6060" d="M 1303.5,529.5 C 1304.91,529.973 1305.57,530.973 1305.5,532.5C 1304.09,532.027 1303.43,531.027 1303.5,529.5 Z"/></g>
<g><path style="opacity:0.89" fill="#606161" d="M 418.5,536.5 C 416.087,534.949 413.421,534.283 410.5,534.5C 413.948,531.645 416.615,532.312 418.5,536.5 Z"/></g>
<g><path style="opacity:1" fill="#404041" d="M 405.5,532.5 C 406.82,533.942 408.486,534.608 410.5,534.5C 407.458,537.807 405.791,537.141 405.5,532.5 Z"/></g>
<g><path style="opacity:0.412" fill="#676767" d="M 1122.5,535.5 C 1118.71,535.885 1114.71,535.885 1110.5,535.5C 1111.37,534.475 1112.54,533.808 1114,533.5C 1116.79,534.406 1119.62,535.073 1122.5,535.5 Z"/></g>
<g><path style="opacity:0.275" fill="#878788" d="M 1110.5,535.5 C 1109.83,536.833 1108.83,537.833 1107.5,538.5C 1107.5,536.5 1108.5,535.5 1110.5,535.5 Z"/></g>
<g><path style="opacity:0.922" fill="#484949" d="M 1107.5,538.5 C 1106.5,541.5 1104.5,543.5 1101.5,544.5C 1103.17,542.167 1105.17,540.167 1107.5,538.5 Z"/></g>
<g><path style="opacity:0.424" fill="#777777" d="M 1080.5,547.5 C 1078.14,547.253 1076.14,547.919 1074.5,549.5C 1074.41,548.504 1074.75,547.671 1075.5,547C 1077.39,546.22 1079.05,546.387 1080.5,547.5 Z"/></g>
<g><path style="opacity:0.994" fill="#484849" d="M 1308.5,538.5 C 1311.9,544.021 1312.23,549.688 1309.5,555.5C 1309.63,549.797 1309.29,544.13 1308.5,538.5 Z"/></g>
<g><path style="opacity:0.937" fill="#4b4b4b" d="M 1101.5,544.5 C 1100.17,547.833 1097.83,550.167 1094.5,551.5C 1096.5,548.833 1098.83,546.5 1101.5,544.5 Z"/></g>
<g><path style="opacity:0.804" fill="#5a5a5a" d="M 1084.5,550.5 C 1086.23,551.026 1087.56,552.026 1088.5,553.5C 1086.37,553.446 1085.03,552.446 1084.5,550.5 Z"/></g>
<g><path style="opacity:0.804" fill="#5d5d5c" d="M 1094.5,551.5 C 1094.03,552.906 1093.03,553.573 1091.5,553.5C 1091.97,552.094 1092.97,551.427 1094.5,551.5 Z"/></g>
<g><path style="opacity:0.855" fill="#5d5d5d" d="M 434.5,552.5 C 435.605,553.6 436.938,554.267 438.5,554.5C 436.291,555.976 434.958,555.309 434.5,552.5 Z"/></g>
<g><path style="opacity:0.412" fill="#7c7c7c" d="M 1073.5,550.5 C 1071.83,552.833 1069.83,554.833 1067.5,556.5C 1068.5,553.5 1070.5,551.5 1073.5,550.5 Z"/></g>
<g><path style="opacity:0.608" fill="#5c5c5c" d="M 943.5,555.5 C 943.573,557.027 942.906,558.027 941.5,558.5C 941.427,556.973 942.094,555.973 943.5,555.5 Z"/></g>
<g><path style="opacity:0.588" fill="#747474" d="M 1067.5,556.5 C 1067.45,558.903 1067.78,561.236 1068.5,563.5C 1065.72,561.254 1065.38,558.92 1067.5,556.5 Z"/></g>
<g><path style="opacity:0.996" fill="#343434" d="M 460.5,555.5 C 462.069,559.506 461.402,563.173 458.5,566.5C 459.463,562.899 460.13,559.233 460.5,555.5 Z"/></g>
<g><path style="opacity:0.561" fill="#5e5f5f" d="M 940.5,560.5 C 940.573,562.027 939.906,563.027 938.5,563.5C 938.427,561.973 939.094,560.973 940.5,560.5 Z"/></g>
<g><path style="opacity:0.914" fill="#636464" d="M 1068.5,563.5 C 1071.5,564.5 1073.5,566.5 1074.5,569.5C 1072.17,567.833 1070.17,565.833 1068.5,563.5 Z"/></g>
<g><path style="opacity:0.012" fill="#8a8b8c" d="M 1303.5,563.5 C 1303.57,565.027 1302.91,566.027 1301.5,566.5C 1301.43,564.973 1302.09,563.973 1303.5,563.5 Z"/></g>
<g><path style="opacity:0.478" fill="#646564" d="M 937.5,565.5 C 937.573,567.027 936.906,568.027 935.5,568.5C 935.427,566.973 936.094,565.973 937.5,565.5 Z"/></g>
<g><path style="opacity:0.412" fill="#666767" d="M 593.5,569.5 C 594.906,569.973 595.573,570.973 595.5,572.5C 594.094,572.027 593.427,571.027 593.5,569.5 Z"/></g>
<g><path style="opacity:1" fill="#434343" d="M 1080.5,581.5 C 1083.18,581.525 1084.51,582.858 1084.5,585.5C 1082.83,584.5 1081.5,583.167 1080.5,581.5 Z"/></g>
<g><path style="opacity:1" fill="#414141" d="M 1089.5,591.5 C 1092.18,591.525 1093.51,592.858 1093.5,595.5C 1091.83,594.5 1090.5,593.167 1089.5,591.5 Z"/></g>
<g><path style="opacity:0.443" fill="#757474" d="M 1094.5,601.5 C 1093.17,604.833 1090.83,607.167 1087.5,608.5C 1089.5,605.833 1091.83,603.5 1094.5,601.5 Z"/></g>
<g><path style="opacity:0.765" fill="#535354" d="M 432.5,602.5 C 433.962,603.458 435.295,604.624 436.5,606C 442.747,606.1 448.747,606.933 454.5,608.5C 448.176,607.975 441.842,607.475 435.5,607C 433.859,605.871 432.859,604.371 432.5,602.5 Z"/></g>
<g><path style="opacity:0.949" fill="#3e3d3d" d="M 455.5,608.5 C 462.204,609.329 468.204,611.662 473.5,615.5C 467.226,613.69 461.226,611.356 455.5,608.5 Z"/></g>
<g><path style="opacity:0.996" fill="#464747" d="M 611.5,607.5 C 613.065,609.509 614.065,611.843 614.5,614.5C 612.166,612.824 611.166,610.491 611.5,607.5 Z"/></g>
<g><path style="opacity:0.796" fill="#676768" d="M 1085.5,609.5 C 1085.08,610.222 1084.42,610.722 1083.5,611C 1075.72,611.13 1068.06,611.964 1060.5,613.5C 1062.28,612.4 1064.28,611.566 1066.5,611C 1072.83,610.349 1079.16,609.849 1085.5,609.5 Z"/></g>
<g><path style="opacity:0.588" fill="#575b5d" d="M 1260.5,612.5 C 1258.78,612.629 1257.12,612.962 1255.5,613.5C 1256.88,611.403 1258.55,611.07 1260.5,612.5 Z"/></g>
<g><path style="opacity:0.996" fill="#535354" d="M 915.5,611.5 C 915.23,615.358 913.897,618.691 911.5,621.5C 912.267,617.851 913.6,614.518 915.5,611.5 Z"/></g>
<g><path style="opacity:0.878" fill="#4f504f" d="M 1060.5,613.5 C 1058.97,615.245 1056.97,616.245 1054.5,616.5C 1056.03,614.755 1058.03,613.755 1060.5,613.5 Z"/></g>
<g><path style="opacity:0.737" fill="#585a5b" d="M 1265.5,614.5 C 1267.03,614.427 1268.03,615.094 1268.5,616.5C 1266.97,616.573 1265.97,615.906 1265.5,614.5 Z"/></g>
<g><path style="opacity:1" fill="#3f3f40" d="M 614.5,614.5 C 616.204,617.939 617.538,621.605 618.5,625.5C 617.542,625.047 616.708,624.381 616,623.5C 615.304,620.522 614.804,617.522 614.5,614.5 Z"/></g>
<g><path style="opacity:0.706" fill="#575654" d="M 231.5,614.5 C 229.826,619.843 228.16,625.176 226.5,630.5C 226.167,630.5 225.833,630.5 225.5,630.5C 225.75,624.407 227.75,619.074 231.5,614.5 Z"/></g>
<g><path style="opacity:0.906" fill="#5d5e60" d="M 618.5,626.5 C 619.924,628.515 620.59,630.848 620.5,633.5C 619.076,631.485 618.41,629.152 618.5,626.5 Z"/></g>
<g><path style="opacity:0.906" fill="#606062" d="M 909.5,627.5 C 909.59,630.152 908.924,632.485 907.5,634.5C 907.41,631.848 908.076,629.515 909.5,627.5 Z"/></g>
<g><path style="opacity:1" fill="#383838" d="M 249.5,631.5 C 248.705,635.785 248.372,640.119 248.5,644.5C 247.837,642.527 247.504,640.361 247.5,638C 247.533,635.39 248.2,633.223 249.5,631.5 Z"/></g>
<g><path style="opacity:0.49" fill="#6c6d6e" d="M 1093.5,630.5 C 1095.03,630.427 1096.03,631.094 1096.5,632.5C 1094.97,632.573 1093.97,631.906 1093.5,630.5 Z"/></g>
<g><path style="opacity:0.267" fill="#757575" d="M 1039.5,630.5 C 1038.8,634.798 1038.47,639.131 1038.5,643.5C 1037.84,642.036 1037.51,640.369 1037.5,638.5C 1037.38,635.514 1038.05,632.848 1039.5,630.5 Z"/></g>
<g><path style="opacity:0.922" fill="#606062" d="M 907.5,634.5 C 907.277,638.162 906.277,641.495 904.5,644.5C 904.723,640.838 905.723,637.505 907.5,634.5 Z"/></g>
<g><path style="opacity:0.996" fill="#3d3e3f" d="M 1232.5,636.5 C 1230.43,639.573 1227.76,641.906 1224.5,643.5C 1224.9,640.594 1226.57,638.761 1229.5,638C 1229.17,637.667 1228.83,637.333 1228.5,637C 1229.79,636.51 1231.13,636.343 1232.5,636.5 Z"/></g>
<g><path style="opacity:0.995" fill="#2d2d2d" d="M 225.5,630.5 C 225.833,630.5 226.167,630.5 226.5,630.5C 226.23,638.555 226.563,646.555 227.5,654.5C 226.833,654.5 226.167,654.5 225.5,654.5C 224.216,646.371 224.216,638.371 225.5,630.5 Z"/></g>
<g><path style="opacity:0.525" fill="#6f7072" d="M 620.5,633.5 C 621.924,635.515 622.59,637.848 622.5,640.5C 621.076,638.485 620.41,636.152 620.5,633.5 Z"/></g>
<g><path style="opacity:0.424" fill="#747575" d="M 1105.5,645.5 C 1107.07,647.102 1107.74,649.102 1107.5,651.5C 1106.26,649.786 1105.59,647.786 1105.5,645.5 Z"/></g>
<g><path style="opacity:1" fill="#414142" d="M 561.5,651.5 C 563.344,653.279 564.01,655.612 563.5,658.5C 562.388,656.401 561.721,654.067 561.5,651.5 Z"/></g>
<g><path style="opacity:1" fill="#404041" d="M 903.5,651.5 C 903.633,657.489 902.633,663.156 900.5,668.5C 900.863,662.593 901.863,656.927 903.5,651.5 Z"/></g>
<g><path style="opacity:0.451" fill="#676767" d="M 1277.5,658.5 C 1277.57,660.027 1276.91,661.027 1275.5,661.5C 1275.43,659.973 1276.09,658.973 1277.5,658.5 Z"/></g>
<g><path style="opacity:0.996" fill="#111010" d="M 248.5,602.5 C 249.043,602.56 249.376,602.893 249.5,603.5C 230.761,625.623 229.761,648.456 246.5,672C 245.549,672.718 245.383,673.551 246,674.5C 248,676.5 250,678.5 252,680.5C 252.688,681.332 252.521,681.998 251.5,682.5C 235.329,667.49 229.496,649.157 234,627.5C 235.667,622.833 237.333,618.167 239,613.5C 241.287,609.048 244.454,605.382 248.5,602.5 Z"/></g>
<g><path style="opacity:0.953" fill="#58595c" d="M 625.5,655.5 C 627.322,662.251 628.322,669.251 628.5,676.5C 626.765,669.736 625.765,662.736 625.5,655.5 Z"/></g>
<g><path style="opacity:0.043" fill="#828384" d="M 1216.5,652.5 C 1214.76,657.308 1214.09,662.308 1214.5,667.5C 1213.35,663.689 1213.19,659.689 1214,655.5C 1214.38,654.058 1215.21,653.058 1216.5,652.5 Z"/></g>
<g><path style="opacity:0.424" fill="#717171" d="M 1275.5,661.5 C 1275.57,663.027 1274.91,664.027 1273.5,664.5C 1273.43,662.973 1274.09,661.973 1275.5,661.5 Z"/></g>
<g><path style="opacity:0.847" fill="#464646" d="M 225.5,654.5 C 226.167,654.5 226.833,654.5 227.5,654.5C 228.863,661.234 231.363,667.567 235,673.5C 238.185,677.892 241.352,682.226 244.5,686.5C 234.6,678.047 228.267,667.38 225.5,654.5 Z"/></g>
<g><path style="opacity:1" fill="#3b3c3c" d="M 963.5,660.5 C 962.863,665.035 961.863,669.368 960.5,673.5C 960.335,670.482 960.502,667.482 961,664.5C 961.2,662.68 962.034,661.347 963.5,660.5 Z"/></g>
<g><path style="opacity:0.812" fill="#656565" d="M 1273.5,664.5 C 1273.57,666.027 1272.91,667.027 1271.5,667.5C 1271.43,665.973 1272.09,664.973 1273.5,664.5 Z"/></g>
<g><path style="opacity:0.988" fill="#464646" d="M 1107.5,665.5 C 1107.67,669.36 1106.34,672.36 1103.5,674.5C 1104.6,671.314 1105.93,668.314 1107.5,665.5 Z"/></g>
<g><path style="opacity:0.784" fill="#5d5d5e" d="M 1216.5,672.5 C 1218.26,673.262 1219.26,674.596 1219.5,676.5C 1217.74,675.738 1216.74,674.404 1216.5,672.5 Z"/></g>
<g><path style="opacity:0.714" fill="#595a5a" d="M 313.5,673.5 C 313.573,675.027 312.906,676.027 311.5,676.5C 311.427,674.973 312.094,673.973 313.5,673.5 Z"/></g>
<g><path style="opacity:0.412" fill="#737473" d="M 1103.5,674.5 C 1103.57,676.027 1102.91,677.027 1101.5,677.5C 1101.43,675.973 1102.09,674.973 1103.5,674.5 Z"/></g>
<g><path style="opacity:0.839" fill="#606060" d="M 1101.5,677.5 C 1100.24,680.427 1098.24,682.761 1095.5,684.5C 1096.76,681.573 1098.76,679.239 1101.5,677.5 Z"/></g>
<g><path style="opacity:0.004" fill="#9c9d9d" d="M 1227.5,681.5 C 1233.45,682.363 1239.45,682.697 1245.5,682.5C 1240.35,683.651 1235.02,683.817 1229.5,683C 1228.58,682.722 1227.92,682.222 1227.5,681.5 Z"/></g>
<g><path style="opacity:0.243" fill="#6c6c6b" d="M 1095.5,684.5 C 1094.92,686.749 1093.59,688.415 1091.5,689.5C 1092.08,687.251 1093.41,685.585 1095.5,684.5 Z"/></g>
<g><path style="opacity:0.906" fill="#4a4a4b" d="M 436.5,689.5 C 437.627,690.122 438.627,690.955 439.5,692C 438.771,694.058 437.771,695.891 436.5,697.5C 436.5,694.833 436.5,692.167 436.5,689.5 Z"/></g>
<g><path style="opacity:0.431" fill="#71706f" d="M 254.5,695.5 C 256.027,695.427 257.027,696.094 257.5,697.5C 255.973,697.573 254.973,696.906 254.5,695.5 Z"/></g>
<g><path style="opacity:0.251" fill="#838383" d="M 1091.5,694.5 C 1093.1,695.287 1093.77,696.62 1093.5,698.5C 1092.33,697.486 1091.66,696.153 1091.5,694.5 Z"/></g>
<g><path style="opacity:0.992" fill="#484949" d="M 265.5,701.5 C 268.491,701.166 270.824,702.166 272.5,704.5C 269.843,704.065 267.509,703.065 265.5,701.5 Z"/></g>
<g><path style="opacity:0.361" fill="#777878" d="M 1093.5,698.5 C 1095.6,701.797 1096.93,705.463 1097.5,709.5C 1095.4,706.203 1094.07,702.537 1093.5,698.5 Z"/></g>
<g><path style="opacity:0.992" fill="#3d3e3f" d="M 1217.5,703.5 C 1220.15,703.41 1222.49,704.076 1224.5,705.5C 1221.85,705.59 1219.51,704.924 1217.5,703.5 Z"/></g>
<g><path style="opacity:1" fill="#404041" d="M 273.5,704.5 C 283.468,705.396 293.468,705.729 303.5,705.5C 299.246,706.895 294.746,707.561 290,707.5C 284.163,707.613 278.663,706.613 273.5,704.5 Z"/></g>
<g><path style="opacity:0.89" fill="#58595a" d="M 1101.5,723.5 C 1103.22,725.78 1103.89,728.447 1103.5,731.5C 1102.47,729.039 1101.8,726.373 1101.5,723.5 Z"/></g>
<g><path style="opacity:1" fill="#393a3b" d="M 425.5,726.5 C 424.523,735.022 423.19,743.355 421.5,751.5C 421.889,744.83 422.389,738.164 423,731.5C 423.099,729.347 423.933,727.681 425.5,726.5 Z"/></g>
<g><path style="opacity:0.251" fill="#7e8589" d="M 1105.5,741.5 C 1106.27,742.263 1106.77,743.263 1107,744.5C 1107.5,748.152 1107.67,751.818 1107.5,755.5C 1106.48,751.02 1105.81,746.353 1105.5,741.5 Z"/></g>
<g><path style="opacity:0.792" fill="#696a6b" d="M 1221.5,754.5 C 1222.91,754.973 1223.57,755.973 1223.5,757.5C 1222.09,757.027 1221.43,756.027 1221.5,754.5 Z"/></g>
<g><path style="opacity:0.91" fill="#474747" d="M 305.5,758.5 C 303.833,762.167 301.167,764.833 297.5,766.5C 299.833,763.5 302.5,760.833 305.5,758.5 Z"/></g>
<g><path style="opacity:0.412" fill="#707172" d="M 1109.5,769.5 C 1111.14,774.234 1111.81,779.234 1111.5,784.5C 1110.11,779.731 1109.44,774.731 1109.5,769.5 Z"/></g>
<g><path style="opacity:0.914" fill="#4b4b4b" d="M 294.5,769.5 C 293.089,771.914 291.089,773.581 288.5,774.5C 289.911,772.086 291.911,770.419 294.5,769.5 Z"/></g>
<g><path style="opacity:1" fill="#040404" d="M 740.5,1164.5 C 737.956,1169.7 736.623,1175.36 736.5,1181.5C 736.737,1182.79 736.404,1183.79 735.5,1184.5C 733.744,1185.55 733.077,1187.22 733.5,1189.5C 720.7,1220.31 698.034,1238.98 665.5,1245.5C 657.5,1245.5 649.5,1245.5 641.5,1245.5C 630.799,1243.27 620.799,1239.27 611.5,1233.5C 611.027,1232.09 610.027,1231.43 608.5,1231.5C 606.596,1231.26 605.262,1230.26 604.5,1228.5C 604.027,1227.09 603.027,1226.43 601.5,1226.5C 586.5,1214.52 576.5,1199.19 571.5,1180.5C 570.81,1172.92 569.476,1165.59 567.5,1158.5C 566.302,1150.56 566.635,1142.56 568.5,1134.5C 569.924,1132.49 570.59,1130.15 570.5,1127.5C 570.232,1125.9 570.566,1124.57 571.5,1123.5C 572.924,1121.49 573.59,1119.15 573.5,1116.5C 573.796,1114.6 574.463,1112.93 575.5,1111.5C 578.415,1109.35 580.082,1106.35 580.5,1102.5C 580.328,1101.51 580.662,1100.84 581.5,1100.5C 582.906,1100.03 583.573,1099.03 583.5,1097.5C 592.491,1083.18 604.824,1072.84 620.5,1066.5C 625.01,1065.83 629.343,1064.66 633.5,1063C 634.056,1062.62 634.389,1062.12 634.5,1061.5C 635.919,1060.55 637.585,1060.22 639.5,1060.5C 648.3,1060.14 656.966,1060.8 665.5,1062.5C 667.411,1063.08 669.078,1064.08 670.5,1065.5C 670.427,1067.03 671.094,1068.03 672.5,1068.5C 674.262,1069.26 675.262,1070.6 675.5,1072.5C 676.756,1076.37 677.423,1080.37 677.5,1084.5C 677.165,1088.51 676.832,1092.51 676.5,1096.5C 673.738,1102.43 669.405,1106.93 663.5,1110C 656.66,1111.99 649.66,1112.99 642.5,1113C 632.421,1116.74 625.254,1123.58 621,1133.5C 618.38,1139.92 616.88,1146.59 616.5,1153.5C 616.335,1156.52 616.502,1159.52 617,1162.5C 617.278,1163.42 617.778,1164.08 618.5,1164.5C 619.786,1167.76 621.12,1171.09 622.5,1174.5C 622.427,1176.03 623.094,1177.03 624.5,1177.5C 631.015,1185.08 639.015,1190.08 648.5,1192.5C 652.981,1193.65 657.648,1193.82 662.5,1193C 663.416,1192.72 664.082,1192.22 664.5,1191.5C 680.072,1185.27 689.405,1173.93 692.5,1157.5C 693.5,1036 693.833,914.334 693.5,792.5C 693.659,788.326 695.325,784.992 698.5,782.5C 699.833,781.833 700.833,780.833 701.5,779.5C 708.205,772.666 716.205,770.832 725.5,774C 734.364,777.56 739.53,784.06 741,793.5C 741.83,917.207 741.663,1040.87 740.5,1164.5 Z"/></g>
<g><path style="opacity:1" fill="#030304" d="M 829.5,781.5 C 829.427,783.027 830.094,784.027 831.5,784.5C 833.446,786.734 834.613,789.401 835,792.5C 835.333,913.5 835.667,1034.5 836,1155.5C 837.762,1170.7 845.262,1182.04 858.5,1189.5C 859.723,1191.77 861.723,1192.94 864.5,1193C 869.684,1193.82 874.684,1193.65 879.5,1192.5C 885.083,1191.08 890.417,1189.08 895.5,1186.5C 898.833,1185.17 901.167,1182.83 902.5,1179.5C 909.748,1169.4 912.748,1158.07 911.5,1145.5C 912.036,1142.3 911.369,1139.64 909.5,1137.5C 906.308,1128.8 900.974,1121.63 893.5,1116C 891.283,1114.72 888.949,1113.72 886.5,1113C 879.08,1112.51 871.747,1111.51 864.5,1110C 849.287,1102.04 844.453,1089.87 850,1073.5C 850.66,1071.68 851.827,1070.34 853.5,1069.5C 854.906,1069.03 855.573,1068.03 855.5,1066.5C 857.027,1066.57 858.027,1065.91 858.5,1064.5C 862.07,1063.71 865.403,1062.38 868.5,1060.5C 900.521,1057.68 925.521,1069.68 943.5,1096.5C 943.427,1098.03 944.094,1099.03 945.5,1099.5C 945.427,1101.03 946.094,1102.03 947.5,1102.5C 964.016,1131.47 965.85,1161.47 953,1192.5C 939.718,1221.29 917.552,1238.62 886.5,1244.5C 876.815,1244.58 867.148,1244.25 857.5,1243.5C 849.82,1242.94 842.82,1240.61 836.5,1236.5C 836.027,1235.09 835.027,1234.43 833.5,1234.5C 832.508,1234.67 831.842,1234.34 831.5,1233.5C 831.027,1232.09 830.027,1231.43 828.5,1231.5C 823.591,1228.93 819.258,1225.59 815.5,1221.5C 815.512,1218.86 814.179,1217.52 811.5,1217.5C 799.036,1203.9 791.37,1187.9 788.5,1169.5C 788.5,1043.83 788.5,918.167 788.5,792.5C 789.15,790.565 789.483,788.565 789.5,786.5C 789.427,784.973 790.094,783.973 791.5,783.5C 792.906,783.027 793.573,782.027 793.5,780.5C 801.822,772.258 811.489,770.425 822.5,775C 825.331,776.666 827.664,778.832 829.5,781.5 Z"/></g>
<g><path style="opacity:0.929" fill="#424142" d="M 288.5,774.5 C 286.037,778.3 282.704,780.967 278.5,782.5C 281.539,779.46 284.873,776.794 288.5,774.5 Z"/></g>
<g><path style="opacity:0.814" fill="#5d5e5e" d="M 568.5,690.5 C 569.325,694.647 569.825,698.981 570,703.5C 570.832,782.001 570.666,860.334 569.5,938.5C 568.669,855.779 568.336,773.113 568.5,690.5 Z"/></g>
<g><path style="opacity:0.797" fill="#3e3e3e" d="M 899.5,685.5 C 899.5,773.5 899.5,861.5 899.5,949.5C 898.828,869.646 898.161,789.646 897.5,709.5C 898.107,701.35 898.774,693.35 899.5,685.5 Z"/></g>
<g><path style="opacity:0.757" fill="#5f5f5e" d="M 701.5,779.5 C 700.833,780.833 699.833,781.833 698.5,782.5C 698.5,780.5 699.5,779.5 701.5,779.5 Z"/></g>
<g><path style="opacity:0.871" fill="#5c5e5d" d="M 793.5,780.5 C 793.573,782.027 792.906,783.027 791.5,783.5C 791.427,781.973 792.094,780.973 793.5,780.5 Z"/></g>
<g><path style="opacity:0.994" fill="#444445" d="M 417.5,781.5 C 417.451,785.078 416.785,788.411 415.5,791.5C 415.335,788.482 415.502,785.482 416,782.5C 416.383,781.944 416.883,781.611 417.5,781.5 Z"/></g>
<g><path style="opacity:0.624" fill="#5e5e5f" d="M 829.5,781.5 C 830.906,781.973 831.573,782.973 831.5,784.5C 830.094,784.027 829.427,783.027 829.5,781.5 Z"/></g>
<g><path style="opacity:0.706" fill="#565656" d="M 789.5,786.5 C 789.483,788.565 789.15,790.565 788.5,792.5C 788.167,792.5 787.833,792.5 787.5,792.5C 787.259,790.102 787.926,788.102 789.5,786.5 Z"/></g>
<g><path style="opacity:0.976" fill="#5d5d5d" d="M 1269.5,790.5 C 1272.03,791.596 1274.36,792.929 1276.5,794.5C 1273.32,794.416 1270.98,793.083 1269.5,790.5 Z"/></g>
<g><path style="opacity:0.906" fill="#3f4040" d="M 265.5,790.5 C 264.514,792.408 262.848,793.408 260.5,793.5C 261.659,791.75 263.326,790.75 265.5,790.5 Z"/></g>
<g><path style="opacity:0.804" fill="#616162" d="M 1115.5,803.5 C 1117.41,806.452 1118.41,809.786 1118.5,813.5C 1116.9,810.45 1115.9,807.116 1115.5,803.5 Z"/></g>
<g><path style="opacity:1" fill="#464646" d="M 1290.5,804.5 C 1291.86,807.959 1291.53,811.292 1289.5,814.5C 1289.62,811.14 1289.95,807.807 1290.5,804.5 Z"/></g>
<g><path style="opacity:1" fill="#404041" d="M 409.5,812.5 C 409.598,814.553 408.931,816.22 407.5,817.5C 407.077,815.219 407.744,813.552 409.5,812.5 Z"/></g>
<g><path style="opacity:0.892" fill="#4a4b4b" d="M 1021.5,817.5 C 1013.47,817.302 1005.47,817.635 997.5,818.5C 998.263,817.732 999.263,817.232 1000.5,817C 1007.68,816.179 1014.68,816.345 1021.5,817.5 Z"/></g>
<g><path style="opacity:1" fill="#302f30" d="M 533.5,819.5 C 521.849,818.398 510.183,818.398 498.5,819.5C 507.861,816.753 517.528,815.92 527.5,817C 529.852,817.24 531.852,818.073 533.5,819.5 Z"/></g>
<g><path style="opacity:1" fill="#424242" d="M 1023.5,817.5 C 1026.43,817.565 1029.09,818.232 1031.5,819.5C 1028.3,820.036 1025.64,819.369 1023.5,817.5 Z"/></g>
<g><path style="opacity:1" fill="#3f3f3f" d="M 1031.5,819.5 C 1035.16,819.723 1038.5,820.723 1041.5,822.5C 1038.78,822.603 1036.11,822.269 1033.5,821.5C 1032.29,821.253 1031.62,820.586 1031.5,819.5 Z"/></g>
<g><path style="opacity:0.961" fill="#414142" d="M 494.5,820.5 C 492.485,821.924 490.152,822.59 487.5,822.5C 489.515,821.076 491.848,820.41 494.5,820.5 Z"/></g>
<g><path style="opacity:0.969" fill="#5a5b5b" d="M 536.5,820.5 C 538.754,821.124 540.421,822.457 541.5,824.5C 539.205,823.864 537.539,822.531 536.5,820.5 Z"/></g>
<g><path style="opacity:0.992" fill="#3c3c3d" d="M 628.5,676.5 C 629.328,682.653 629.828,688.987 630,695.5C 630.667,776.5 630.667,857.5 630,938.5C 629.79,944.4 628.956,950.066 627.5,955.5C 628.459,862.507 628.793,769.507 628.5,676.5 Z"/></g>
<g><path style="opacity:0.337" fill="#757678" d="M 245.5,826.5 C 249.251,830.995 252.251,835.995 254.5,841.5C 252.983,841.489 251.816,840.823 251,839.5C 249.063,835.183 247.23,830.85 245.5,826.5 Z"/></g>
<g><path style="opacity:0.478" fill="#6a6b6c" d="M 545.5,828.5 C 546.906,828.973 547.573,829.973 547.5,831.5C 546.094,831.027 545.427,830.027 545.5,828.5 Z"/></g>
<g><path style="opacity:1" fill="#323233" d="M 979.5,834.5 C 977.839,842.397 977.173,850.397 977.5,858.5C 976.732,857.737 976.232,856.737 976,855.5C 975.333,851.167 975.333,846.833 976,842.5C 976.387,839.401 977.554,836.734 979.5,834.5 Z"/></g>
<g><path style="opacity:0.922" fill="#505151" d="M 451.5,844.5 C 450.415,846.587 448.749,847.92 446.5,848.5C 447.585,846.413 449.251,845.08 451.5,844.5 Z"/></g>
<g><path style="opacity:0.914" fill="#626263" d="M 1084.5,851.5 C 1086.26,852.262 1087.26,853.596 1087.5,855.5C 1085.74,854.738 1084.74,853.404 1084.5,851.5 Z"/></g>
<g><path style="opacity:0.812" fill="#565657" d="M 1087.5,855.5 C 1089.59,856.585 1090.92,858.251 1091.5,860.5C 1089.41,859.415 1088.08,857.749 1087.5,855.5 Z"/></g>
<g><path style="opacity:0.773" fill="#606060" d="M 1144.5,861.5 C 1146.45,862.035 1147.45,863.368 1147.5,865.5C 1146.03,864.564 1145.03,863.23 1144.5,861.5 Z"/></g>
<g><path style="opacity:0.682" fill="#575858" d="M 432.5,866.5 C 432.573,868.027 431.906,869.027 430.5,869.5C 430.427,867.973 431.094,866.973 432.5,866.5 Z"/></g>
<g><path style="opacity:0.6" fill="#5c5d5d" d="M 1095.5,866.5 C 1096.91,866.973 1097.57,867.973 1097.5,869.5C 1096.09,869.027 1095.43,868.027 1095.5,866.5 Z"/></g>
<g><path style="opacity:0.514" fill="#646465" d="M 1098.5,871.5 C 1099.91,871.973 1100.57,872.973 1100.5,874.5C 1099.09,874.027 1098.43,873.027 1098.5,871.5 Z"/></g>
<g><path style="opacity:0.643" fill="#58595a" d="M 990.5,875.5 C 992.027,875.427 993.027,876.094 993.5,877.5C 991.973,877.573 990.973,876.906 990.5,875.5 Z"/></g>
<g><path style="opacity:0.749" fill="#4b4c4d" d="M 995.5,878.5 C 999.596,879.508 1003.6,880.508 1007.5,881.5C 1002.97,882.114 998.968,881.114 995.5,878.5 Z"/></g>
<g><path style="opacity:0.878" fill="#626464" d="M 1017.5,882.5 C 1019.7,882.12 1021.36,882.787 1022.5,884.5C 1020.6,884.204 1018.93,883.537 1017.5,882.5 Z"/></g>
<g><path style="opacity:0.553" fill="#666767" d="M 1027.5,886.5 C 1029.03,886.427 1030.03,887.094 1030.5,888.5C 1028.97,888.573 1027.97,887.906 1027.5,886.5 Z"/></g>
<g><path style="opacity:0.882" fill="#605f60" d="M 302.5,890.5 C 304.027,890.427 305.027,891.094 305.5,892.5C 303.973,892.573 302.973,891.906 302.5,890.5 Z"/></g>
<g><path style="opacity:0.941" fill="#575859" d="M 1108.5,892.5 C 1110.28,895.505 1111.28,898.838 1111.5,902.5C 1109.72,899.495 1108.72,896.162 1108.5,892.5 Z"/></g>
<g><path style="opacity:1" fill="#414142" d="M 476.5,914.5 C 476.279,917.067 475.612,919.401 474.5,921.5C 473.99,918.612 474.656,916.279 476.5,914.5 Z"/></g>
<g><path style="opacity:0.835" fill="#484849" d="M 474.5,921.5 C 474.167,926.167 473.833,930.833 473.5,935.5C 472.109,930.738 472.442,926.072 474.5,921.5 Z"/></g>
<g><path style="opacity:0.035" fill="#909090" d="M 1052.5,921.5 C 1053.22,921.918 1053.72,922.584 1054,923.5C 1054.82,929.349 1054.65,935.015 1053.5,940.5C 1053.71,934.122 1053.37,927.789 1052.5,921.5 Z"/></g>
<g><path style="opacity:0.89" fill="#666666" d="M 1052.5,948.5 C 1052.88,950.698 1052.21,952.365 1050.5,953.5C 1050.8,951.597 1051.46,949.93 1052.5,948.5 Z"/></g>
<g><path style="opacity:0.996" fill="#424142" d="M 1050.5,954.5 C 1050.71,958.085 1049.37,960.751 1046.5,962.5C 1047.33,959.515 1048.66,956.849 1050.5,954.5 Z"/></g>
<g><path style="opacity:0.961" fill="#525253" d="M 900.5,958.5 C 901.117,958.611 901.617,958.944 902,959.5C 902.495,961.473 902.662,963.473 902.5,965.5C 901.388,963.401 900.721,961.067 900.5,958.5 Z"/></g>
<g><path style="opacity:0.6" fill="#5d5d5d" d="M 965.5,960.5 C 966.906,960.973 967.573,961.973 967.5,963.5C 966.094,963.027 965.427,962.027 965.5,960.5 Z"/></g>
<g><path style="opacity:0.667" fill="#5e5e5e" d="M 561.5,962.5 C 561.573,964.027 560.906,965.027 559.5,965.5C 559.427,963.973 560.094,962.973 561.5,962.5 Z"/></g>
<g><path style="opacity:1" fill="#3f3f40" d="M 903.5,969.5 C 905.308,970.918 905.975,972.918 905.5,975.5C 904.262,973.786 903.595,971.786 903.5,969.5 Z"/></g>
<g><path style="opacity:1" fill="#353535" d="M 1112.5,962.5 C 1111.61,968.172 1109.94,973.506 1107.5,978.5C 1107.88,973.725 1108.88,969.058 1110.5,964.5C 1110.75,963.287 1111.41,962.62 1112.5,962.5 Z"/></g>
<g><path style="opacity:0.949" fill="#444445" d="M 1027.5,980.5 C 1025.38,982.655 1022.72,983.655 1019.5,983.5C 1021.94,982.129 1024.6,981.129 1027.5,980.5 Z"/></g>
<g><path style="opacity:1" fill="#484949" d="M 537.5,982.5 C 537.389,983.117 537.056,983.617 536.5,984C 529.039,985.598 521.705,985.764 514.5,984.5C 522.258,984.732 529.924,984.065 537.5,982.5 Z"/></g>
<g><path style="opacity:0.531" fill="#535354" d="M 995.5,983.5 C 1001.48,984.165 1007.48,984.498 1013.5,984.5C 1011.53,985.163 1009.36,985.496 1007,985.5C 1002.91,985.569 999.072,984.903 995.5,983.5 Z"/></g>
<g><path style="opacity:1" fill="#404041" d="M 909.5,986.5 C 912.068,988.027 913.401,990.361 913.5,993.5C 911.428,991.65 910.095,989.317 909.5,986.5 Z"/></g>
<g><path style="opacity:0.869" fill="#373738" d="M 693.5,792.5 C 693.833,914.334 693.5,1036 692.5,1157.5C 692.829,1041.81 692.496,926.145 691.5,810.5C 692.086,804.347 692.753,798.347 693.5,792.5 Z"/></g>
<g><path style="opacity:0.964" fill="#424343" d="M 787.5,792.5 C 787.833,792.5 788.167,792.5 788.5,792.5C 788.5,918.167 788.5,1043.83 788.5,1169.5C 787.679,1166.36 787.179,1163.03 787,1159.5C 786.167,1037 786.334,914.666 787.5,792.5 Z"/></g>
<g><path style="opacity:0.847" fill="#616161" d="M 935.5,1021.5 C 937.027,1021.43 938.027,1022.09 938.5,1023.5C 936.973,1023.57 935.973,1022.91 935.5,1021.5 Z"/></g>
<g><path style="opacity:0.949" fill="#595959" d="M 940.5,1025.5 C 942.404,1025.74 943.738,1026.74 944.5,1028.5C 942.596,1028.26 941.262,1027.26 940.5,1025.5 Z"/></g>
<g><path style="opacity:0.424" fill="#656668" d="M 989.5,1047.5 C 998.815,1048.23 1008.15,1048.57 1017.5,1048.5C 1014.18,1049.17 1010.68,1049.5 1007,1049.5C 1000.93,1049.61 995.1,1048.94 989.5,1047.5 Z"/></g>
<g><path style="opacity:0.792" fill="#525252" d="M 639.5,1060.5 C 645.987,1059.35 652.654,1059.18 659.5,1060C 661.723,1060.57 663.723,1061.4 665.5,1062.5C 656.966,1060.8 648.3,1060.14 639.5,1060.5 Z"/></g>
<g><path style="opacity:1" fill="#333334" d="M 868.5,1060.5 C 865.403,1062.38 862.07,1063.71 858.5,1064.5C 861.192,1061.82 864.525,1060.49 868.5,1060.5 Z"/></g>
<g><path style="opacity:1" fill="#303131" d="M 634.5,1061.5 C 634.389,1062.12 634.056,1062.62 633.5,1063C 629.343,1064.66 625.01,1065.83 620.5,1066.5C 624.664,1063.67 629.331,1062 634.5,1061.5 Z"/></g>
<g><path style="opacity:0.784" fill="#636264" d="M 858.5,1064.5 C 858.027,1065.91 857.027,1066.57 855.5,1066.5C 855.973,1065.09 856.973,1064.43 858.5,1064.5 Z"/></g>
<g><path style="opacity:0.706" fill="#737474" d="M 670.5,1065.5 C 671.906,1065.97 672.573,1066.97 672.5,1068.5C 671.094,1068.03 670.427,1067.03 670.5,1065.5 Z"/></g>
<g><path style="opacity:0.835" fill="#646262" d="M 855.5,1066.5 C 855.573,1068.03 854.906,1069.03 853.5,1069.5C 853.427,1067.97 854.094,1066.97 855.5,1066.5 Z"/></g>
<g><path style="opacity:0.943" fill="#4d4d4e" d="M 675.5,1072.5 C 680.263,1080.35 680.597,1088.35 676.5,1096.5C 676.832,1092.51 677.165,1088.51 677.5,1084.5C 677.423,1080.37 676.756,1076.37 675.5,1072.5 Z"/></g>
<g><path style="opacity:0.675" fill="#59595a" d="M 943.5,1096.5 C 944.906,1096.97 945.573,1097.97 945.5,1099.5C 944.094,1099.03 943.427,1098.03 943.5,1096.5 Z"/></g>
<g><path style="opacity:0.553" fill="#616261" d="M 583.5,1097.5 C 583.573,1099.03 582.906,1100.03 581.5,1100.5C 581.427,1098.97 582.094,1097.97 583.5,1097.5 Z"/></g>
<g><path style="opacity:0.541" fill="#636364" d="M 945.5,1099.5 C 946.906,1099.97 947.573,1100.97 947.5,1102.5C 946.094,1102.03 945.427,1101.03 945.5,1099.5 Z"/></g>
<g><path style="opacity:1" fill="#343534" d="M 580.5,1102.5 C 580.082,1106.35 578.415,1109.35 575.5,1111.5C 576.41,1108.01 578.076,1105.01 580.5,1102.5 Z"/></g>
<g><path style="opacity:0.969" fill="#545656" d="M 573.5,1116.5 C 573.59,1119.15 572.924,1121.49 571.5,1123.5C 571.41,1120.85 572.076,1118.51 573.5,1116.5 Z"/></g>
<g><path style="opacity:0.871" fill="#4c4d4d" d="M 570.5,1127.5 C 570.59,1130.15 569.924,1132.49 568.5,1134.5C 568.41,1131.85 569.076,1129.51 570.5,1127.5 Z"/></g>
<g><path style="opacity:1" fill="#49494b" d="M 909.5,1137.5 C 911.369,1139.64 912.036,1142.3 911.5,1145.5C 910.469,1143.04 909.802,1140.37 909.5,1137.5 Z"/></g>
<g><path style="opacity:1" fill="#3a3a3b" d="M 567.5,1158.5 C 569.476,1165.59 570.81,1172.92 571.5,1180.5C 568.776,1173.54 567.443,1166.2 567.5,1158.5 Z"/></g>
<g><path style="opacity:0.925" fill="#5d5d5e" d="M 616.5,1153.5 C 617.525,1156.97 618.192,1160.64 618.5,1164.5C 617.778,1164.08 617.278,1163.42 617,1162.5C 616.502,1159.52 616.335,1156.52 616.5,1153.5 Z"/></g>
<g><path style="opacity:1" fill="#4d4d4f" d="M 740.5,1164.5 C 740.167,1170.52 738.834,1176.18 736.5,1181.5C 736.623,1175.36 737.956,1169.7 740.5,1164.5 Z"/></g>
<g><path style="opacity:0.561" fill="#656565" d="M 622.5,1174.5 C 623.906,1174.97 624.573,1175.97 624.5,1177.5C 623.094,1177.03 622.427,1176.03 622.5,1174.5 Z"/></g>
<g><path style="opacity:0.965" fill="#3f3f3f" d="M 902.5,1179.5 C 901.167,1182.83 898.833,1185.17 895.5,1186.5C 897.5,1183.83 899.833,1181.5 902.5,1179.5 Z"/></g>
<g><path style="opacity:1" fill="#414142" d="M 735.5,1184.5 C 735.598,1186.55 734.931,1188.22 733.5,1189.5C 733.077,1187.22 733.744,1185.55 735.5,1184.5 Z"/></g>
<g><path style="opacity:0.98" fill="#454645" d="M 664.5,1191.5 C 664.082,1192.22 663.416,1192.72 662.5,1193C 657.648,1193.82 652.981,1193.65 648.5,1192.5C 653.87,1192.61 659.203,1192.27 664.5,1191.5 Z"/></g>
<g><path style="opacity:0.341" fill="#5a5a59" d="M 858.5,1189.5 C 865.23,1192.07 872.23,1193.07 879.5,1192.5C 874.684,1193.65 869.684,1193.82 864.5,1193C 861.723,1192.94 859.723,1191.77 858.5,1189.5 Z"/></g>
<g><path style="opacity:1" fill="#3d3d3e" d="M 811.5,1217.5 C 814.179,1217.52 815.512,1218.86 815.5,1221.5C 813.833,1220.5 812.5,1219.17 811.5,1217.5 Z"/></g>
<g><path style="opacity:0.851" fill="#636262" d="M 601.5,1226.5 C 603.027,1226.43 604.027,1227.09 604.5,1228.5C 602.973,1228.57 601.973,1227.91 601.5,1226.5 Z"/></g>
<g><path style="opacity:0.659" fill="#5a5a5a" d="M 608.5,1231.5 C 610.027,1231.43 611.027,1232.09 611.5,1233.5C 609.973,1233.57 608.973,1232.91 608.5,1231.5 Z"/></g>
<g><path style="opacity:0.6" fill="#5b5b5b" d="M 828.5,1231.5 C 830.027,1231.43 831.027,1232.09 831.5,1233.5C 829.973,1233.57 828.973,1232.91 828.5,1231.5 Z"/></g>
<g><path style="opacity:0.588" fill="#5f605f" d="M 833.5,1234.5 C 835.027,1234.43 836.027,1235.09 836.5,1236.5C 834.973,1236.57 833.973,1235.91 833.5,1234.5 Z"/></g>
<g><path style="opacity:0.659" fill="#515253" d="M 857.5,1243.5 C 867.148,1244.25 876.815,1244.58 886.5,1244.5C 886.5,1244.83 886.5,1245.17 886.5,1245.5C 878.833,1245.5 871.167,1245.5 863.5,1245.5C 861.5,1244.83 859.5,1244.17 857.5,1243.5 Z"/></g>
</svg>
