<?xml version="1.0" encoding="UTF-8" standalone="no"?>
<!DOCTYPE svg PUBLIC "-//W3C//DTD SVG 1.1//EN" "http://www.w3.org/Graphics/SVG/1.1/DTD/svg11.dtd">
<svg width="100%" height="100%" viewBox="0 0 311 271" version="1.1" xmlns="http://www.w3.org/2000/svg" xmlns:xlink="http://www.w3.org/1999/xlink" xml:space="preserve" xmlns:serif="http://www.serif.com/" style="fill-rule:evenodd;clip-rule:evenodd;stroke-linejoin:round;stroke-miterlimit:2;">
    <pattern id="p" width="311" height="271" patternUnits="userSpaceOnUse">
        <g transform="matrix(1,0,0,1,0,-22.4945)">
        <g transform="matrix(1,0,0,1,0,22.4945)">
            <clipPath id="_clip1">
                <rect x="0" y="0" width="312.1" height="271.2"/>
            </clipPath>
            <g clip-path="url(#_clip1)">
                <rect x="0" y="0" width="312" height="315" style="fill:none;"/>
                <clipPath id="_clip2">
                    <rect x="0" y="0" width="312" height="315"/>
                </clipPath>
                <g clip-path="url(#_clip2)">
                    <g transform="matrix(0.866025,-0.5,1,0.57735,181.846,-45.0111)">
                        <rect x="-30" y="51.962" width="30" height="25.981" style="fill:rgb(235,235,235);"/>
                        <path d="M0,51.962L0,77.942L-30,77.942L-30,51.962L0,51.962ZM-1.54,53.295C-1.54,53.295 -28.46,53.295 -28.46,53.295L-28.46,76.609C-28.46,76.609 -1.54,76.609 -1.54,76.609L-1.54,53.295Z"/>
                    </g>
                    <g transform="matrix(0.866025,-0.5,1,0.57735,181.846,44.9889)">
                        <rect x="-30" y="51.962" width="30" height="25.981" style="fill:rgb(235,235,235);"/>
                        <path d="M0,51.962L0,77.942L-30,77.942L-30,51.962L0,51.962ZM-1.54,53.295C-1.54,53.295 -28.46,53.295 -28.46,53.295L-28.46,76.609C-28.46,76.609 -1.54,76.609 -1.54,76.609L-1.54,53.295Z"/>
                    </g>
                    <g transform="matrix(0.866025,-0.5,1,0.57735,181.846,225.017)">
                        <rect x="-30" y="51.962" width="30" height="25.981" style="fill:rgb(235,235,235);"/>
                        <path d="M0,51.962L0,77.942L-30,77.942L-30,51.962L0,51.962ZM-1.54,53.295C-1.54,53.295 -28.46,53.295 -28.46,53.295L-28.46,76.609C-28.46,76.609 -1.54,76.609 -1.54,76.609L-1.54,53.295Z"/>
                    </g>
                    <g transform="matrix(0.866025,-0.5,1,0.57735,233.827,-45)">
                        <rect x="-30" y="51.962" width="30" height="25.981" style="fill:rgb(235,235,235);"/>
                        <path d="M0,51.962L0,77.942L-30,77.942L-30,51.962L0,51.962ZM-1.54,53.295C-1.54,53.295 -28.46,53.295 -28.46,53.295L-28.46,76.609C-28.46,76.609 -1.54,76.609 -1.54,76.609L-1.54,53.295Z"/>
                    </g>
                    <g transform="matrix(0.866025,-0.5,1,0.57735,233.827,135.028)">
                        <rect x="-30" y="51.962" width="30" height="25.981" style="fill:rgb(235,235,235);"/>
                        <path d="M0,51.962L0,77.942L-30,77.942L-30,51.962L0,51.962ZM-1.54,53.295C-1.54,53.295 -28.46,53.295 -28.46,53.295L-28.46,76.609C-28.46,76.609 -1.54,76.609 -1.54,76.609L-1.54,53.295Z"/>
                    </g>
                    <g transform="matrix(0.866025,-0.5,1,0.57735,233.827,45)">
                        <rect x="-30" y="51.962" width="30" height="25.981" style="fill:rgb(235,235,235);"/>
                        <path d="M0,51.962L-0,77.942L-30,77.942L-30,51.962L0,51.962ZM-1.54,53.295C-1.54,53.295 -28.46,53.295 -28.46,53.295L-28.46,76.609C-28.46,76.609 -1.54,76.609 -1.54,76.609L-1.54,53.295Z"/>
                    </g>
                    <g transform="matrix(0.866025,-0.5,1,0.57735,233.827,225.028)">
                        <rect x="-30" y="51.962" width="30" height="25.981" style="fill:rgb(235,235,235);"/>
                        <path d="M0,51.962L0,77.942L-30,77.942L-30,51.962L0,51.962ZM-1.54,53.295C-1.54,53.295 -28.46,53.295 -28.46,53.295L-28.46,76.609C-28.46,76.609 -1.54,76.609 -1.54,76.609L-1.54,53.295Z"/>
                    </g>
                    <g transform="matrix(0.866025,-0.5,1,0.57735,129.885,-45)">
                        <rect x="-30" y="51.962" width="30" height="25.981" style="fill:rgb(235,235,235);"/>
                        <path d="M0,51.962L0,77.942L-30,77.942L-30,51.962L0,51.962ZM-1.54,53.295C-1.54,53.295 -28.46,53.295 -28.46,53.295L-28.46,76.609C-28.46,76.609 -1.54,76.609 -1.54,76.609L-1.54,53.295Z"/>
                    </g>
                    <g transform="matrix(0.866025,-0.5,1,0.57735,129.885,135.028)">
                        <rect x="-30" y="51.962" width="30" height="25.981" style="fill:rgb(235,235,235);"/>
                        <path d="M0,51.962L0,77.942L-30,77.942L-30,51.962L0,51.962ZM-1.54,53.295C-1.54,53.295 -28.46,53.295 -28.46,53.295L-28.46,76.609C-28.46,76.609 -1.54,76.609 -1.54,76.609L-1.54,53.295Z"/>
                    </g>
                    <g transform="matrix(0.866025,-0.5,1,0.57735,129.885,45)">
                        <rect x="-30" y="51.962" width="30" height="25.981" style="fill:rgb(235,235,235);"/>
                        <path d="M0,51.962L0,77.942L-30,77.942L-30,51.962L0,51.962ZM-1.54,53.295C-1.54,53.295 -28.46,53.295 -28.46,53.295L-28.46,76.609C-28.46,76.609 -1.54,76.609 -1.54,76.609L-1.54,53.295Z"/>
                    </g>
                    <g transform="matrix(0.866025,-0.5,1,0.57735,129.885,225.028)">
                        <rect x="-30" y="51.962" width="30" height="25.981" style="fill:rgb(235,235,235);"/>
                        <path d="M0,51.962L0,77.942L-30,77.942L-30,51.962L0,51.962ZM-1.54,53.295C-1.54,53.295 -28.46,53.295 -28.46,53.295L-28.46,76.609C-28.46,76.609 -1.54,76.609 -1.54,76.609L-1.54,53.295Z"/>
                    </g>
                    <g transform="matrix(0.866025,-0.5,1,0.57735,25.9808,-45)">
                        <rect x="-30" y="51.962" width="30" height="25.981" style="fill:rgb(235,235,235);"/>
                        <path d="M0,51.962L0,77.942L-30,77.942L-30,51.962L0,51.962ZM-1.54,53.295C-1.54,53.295 -28.46,53.295 -28.46,53.295L-28.46,76.609C-28.46,76.609 -1.54,76.609 -1.54,76.609L-1.54,53.295Z"/>
                    </g>
                    <g transform="matrix(0.866025,-0.5,1,0.57735,25.9808,45)">
                        <rect x="-30" y="51.962" width="30" height="25.981" style="fill:rgb(235,235,235);"/>
                        <path d="M0,51.962L0,77.942L-30,77.942L-30,51.962L0,51.962ZM-1.54,53.295C-1.54,53.295 -28.46,53.295 -28.46,53.295L-28.46,76.609C-28.46,76.609 -1.54,76.609 -1.54,76.609L-1.54,53.295Z"/>
                    </g>
                    <g transform="matrix(0.866025,-0.5,1,0.57735,25.9808,225.028)">
                        <rect x="-30" y="51.962" width="30" height="25.981" style="fill:rgb(235,235,235);"/>
                        <path d="M0,51.962L0,77.942L-30,77.942L-30,51.962L0,51.962ZM-1.54,53.295C-1.54,53.295 -28.46,53.295 -28.46,53.295L-28.46,76.609C-28.46,76.609 -1.54,76.609 -1.54,76.609L-1.54,53.295Z"/>
                    </g>
                    <g transform="matrix(0.866025,-0.5,1,0.57735,77.9327,-44.9945)">
                        <rect x="-30" y="51.962" width="30" height="25.981" style="fill:rgb(235,235,235);"/>
                        <path d="M0,51.962L0,77.942L-30,77.942L-30,51.962L0,51.962ZM-1.54,53.295C-1.54,53.295 -28.46,53.295 -28.46,53.295L-28.46,76.609C-28.46,76.609 -1.54,76.609 -1.54,76.609L-1.54,53.295Z"/>
                    </g>
                    <g transform="matrix(0.866025,-0.5,1,0.57735,77.9327,135.033)">
                        <rect x="-30" y="51.962" width="30" height="25.981" style="fill:rgb(235,235,235);"/>
                        <path d="M0,51.962L0,77.942L-30,77.942L-30,51.962L0,51.962ZM-1.54,53.295C-1.54,53.295 -28.46,53.295 -28.46,53.295L-28.46,76.609C-28.46,76.609 -1.54,76.609 -1.54,76.609L-1.54,53.295Z"/>
                    </g>
                    <g transform="matrix(0.866025,-0.5,1,0.57735,77.9327,45.0055)">
                        <rect x="-30" y="51.962" width="30" height="25.981" style="fill:rgb(235,235,235);"/>
                        <path d="M0,51.962L0,77.942L-30,77.942L-30,51.962L0,51.962ZM-1.54,53.295C-1.54,53.295 -28.46,53.295 -28.46,53.295L-28.46,76.609C-28.46,76.609 -1.54,76.609 -1.54,76.609L-1.54,53.295Z"/>
                    </g>
                    <g transform="matrix(0.866025,-0.5,1,0.57735,77.9327,225.033)">
                        <rect x="-30" y="51.962" width="30" height="25.981" style="fill:rgb(235,235,235);"/>
                        <path d="M0,51.962L0,77.942L-30,77.942L-30,51.962L0,51.962ZM-1.54,53.295C-1.54,53.295 -28.46,53.295 -28.46,53.295L-28.46,76.609C-28.46,76.609 -1.54,76.609 -1.54,76.609L-1.54,53.295Z"/>
                    </g>
                    <g transform="matrix(0.866025,-0.5,1,0.57735,-25.9808,-45)">
                        <rect x="-30" y="51.962" width="30" height="25.981" style="fill:rgb(235,235,235);"/>
                        <path d="M0,51.962L0,77.942L-30,77.942L-30,51.962L0,51.962ZM-1.54,53.295C-1.54,53.295 -28.46,53.295 -28.46,53.295L-28.46,76.609C-28.46,76.609 -1.54,76.609 -1.54,76.609L-1.54,53.295Z"/>
                    </g>
                    <g transform="matrix(0.866025,-0.5,1,0.57735,-25.9808,135.028)">
                        <rect x="-30" y="51.962" width="30" height="25.981" style="fill:rgb(235,235,235);"/>
                        <path d="M0,51.962L0,77.942L-30,77.942L-30,51.962L0,51.962ZM-1.54,53.295C-1.54,53.295 -28.46,53.295 -28.46,53.295L-28.46,76.609C-28.46,76.609 -1.54,76.609 -1.54,76.609L-1.54,53.295Z"/>
                    </g>
                    <g transform="matrix(0.866025,-0.5,1,0.57735,-25.9808,45)">
                        <rect x="-30" y="51.962" width="30" height="25.981" style="fill:rgb(235,235,235);"/>
                        <path d="M0,51.962L0,77.942L-30,77.942L-30,51.962L0,51.962ZM-1.54,53.295C-1.54,53.295 -28.46,53.295 -28.46,53.295L-28.46,76.609C-28.46,76.609 -1.54,76.609 -1.54,76.609L-1.54,53.295Z"/>
                    </g>
                    <g transform="matrix(0.866025,-0.5,1,0.57735,-25.9808,225.028)">
                        <rect x="-30" y="51.962" width="30" height="25.981" style="fill:rgb(235,235,235);"/>
                        <path d="M0,51.962L0,77.942L-30,77.942L-30,51.962L0,51.962ZM-1.54,53.295C-1.54,53.295 -28.46,53.295 -28.46,53.295L-28.46,76.609C-28.46,76.609 -1.54,76.609 -1.54,76.609L-1.54,53.295Z"/>
                    </g>
                    <g transform="matrix(0.866025,-0.5,1,0.57735,-51.9615,-6.75016e-14)">
                        <rect x="-30" y="51.962" width="30" height="25.981" style="fill:rgb(235,235,235);"/>
                        <path d="M0,51.962L0,77.942L-30,77.942L-30,51.962L0,51.962ZM-1.54,53.295C-1.54,53.295 -28.46,53.295 -28.46,53.295L-28.46,76.609C-28.46,76.609 -1.54,76.609 -1.54,76.609L-1.54,53.295Z"/>
                    </g>
                    <g transform="matrix(0.866025,-0.5,1,0.57735,-51.9615,180.028)">
                        <rect x="-30" y="51.962" width="30" height="25.981" style="fill:rgb(235,235,235);"/>
                        <path d="M0,51.962L0,77.942L-30,77.942L-30,51.962L0,51.962ZM-1.54,53.295C-1.54,53.295 -28.46,53.295 -28.46,53.295L-28.46,76.609C-28.46,76.609 -1.54,76.609 -1.54,76.609L-1.54,53.295Z"/>
                    </g>
                    <g transform="matrix(0.866025,-0.5,1,0.57735,-51.9615,90)">
                        <rect x="-30" y="51.962" width="30" height="25.981" style="fill:rgb(235,235,235);"/>
                        <path d="M0,51.962L0,77.942L-30,77.942L-30,51.962L0,51.962ZM-1.54,53.295C-1.54,53.295 -28.46,53.295 -28.46,53.295L-28.46,76.609C-28.46,76.609 -1.54,76.609 -1.54,76.609L-1.54,53.295Z"/>
                    </g>
                    <g transform="matrix(0.866025,-0.5,1,0.57735,7.10543e-14,5.32907e-15)">
                        <rect x="-30" y="51.962" width="30" height="25.981" style="fill:rgb(235,235,235);"/>
                        <path d="M0,51.962L0,77.942L-30,77.942L-30,51.962L0,51.962ZM-1.54,53.295C-1.54,53.295 -28.46,53.295 -28.46,53.295L-28.46,76.609C-28.46,76.609 -1.54,76.609 -1.54,76.609L-1.54,53.295Z"/>
                    </g>
                    <g transform="matrix(0.866025,-0.5,1,0.57735,1.7053e-13,180.028)">
                        <rect x="-30" y="51.962" width="30" height="25.981" style="fill:rgb(235,235,235);"/>
                        <path d="M0,51.962L0,77.942L-30,77.942L-30,51.962L0,51.962ZM-1.54,53.295C-1.54,53.295 -28.46,53.295 -28.46,53.295L-28.46,76.609C-28.46,76.609 -1.54,76.609 -1.54,76.609L-1.54,53.295Z"/>
                    </g>
                    <g transform="matrix(0.866025,-0.5,1,0.57735,51.952,0.00552679)">
                        <rect x="-30" y="51.962" width="30" height="25.981" style="fill:rgb(235,235,235);"/>
                        <path d="M0,51.962L0,77.942L-30,77.942L-30,51.962L0,51.962ZM-1.54,53.295C-1.54,53.295 -28.46,53.295 -28.46,53.295L-28.46,76.609C-28.46,76.609 -1.54,76.609 -1.54,76.609L-1.54,53.295Z"/>
                    </g>
                    <g transform="matrix(0.866025,-0.5,1,0.57735,51.952,180.033)">
                        <rect x="-30" y="51.962" width="30" height="25.981" style="fill:rgb(235,235,235);"/>
                        <path d="M0,51.962L0,77.942L-30,77.942L-30,51.962L0,51.962ZM-1.54,53.295C-1.54,53.295 -28.46,53.295 -28.46,53.295L-28.46,76.609C-28.46,76.609 -1.54,76.609 -1.54,76.609L-1.54,53.295Z"/>
                    </g>
                    <g transform="matrix(0.866025,-0.5,1,0.57735,103.933,30.0111)">
                        <rect x="-30" y="51.962" width="30" height="25.981" style="fill:rgb(235,235,235);"/>
                        <path d="M0,51.962L0,77.942L-30,77.942L-30,51.962L0,51.962ZM-1.54,53.295C-1.54,53.295 -28.46,53.295 -28.46,53.295L-28.46,76.609C-28.46,76.609 -1.54,76.609 -1.54,76.609L-1.54,53.295Z"/>
                    </g>
                    <g transform="matrix(0.866025,-0.5,1,0.57735,103.923,180.028)">
                        <rect x="-30" y="51.962" width="30" height="25.981" style="fill:rgb(235,235,235);"/>
                        <path d="M0,51.962L0,77.942L-30,77.942L-30,51.962L0,51.962ZM-1.54,53.295C-1.54,53.295 -28.46,53.295 -28.46,53.295L-28.46,76.609C-28.46,76.609 -1.54,76.609 -1.54,76.609L-1.54,53.295Z"/>
                    </g>
                    <g transform="matrix(0.866025,-0.5,1,0.57735,103.923,90)">
                        <rect x="-30" y="51.962" width="30" height="25.981" style="fill:rgb(235,235,235);"/>
                        <path d="M0,51.962L0,77.942L-30,77.942L-30,51.962L0,51.962ZM-1.54,53.295C-1.54,53.295 -28.46,53.295 -28.46,53.295L-28.46,76.609C-28.46,76.609 -1.54,76.609 -1.54,76.609L-1.54,53.295Z"/>
                    </g>
                    <g transform="matrix(0.866025,-0.5,1,0.57735,155.885,1.06581e-14)">
                        <rect x="-30" y="51.962" width="30" height="25.981" style="fill:rgb(235,235,235);"/>
                        <path d="M0,51.962L0,77.942L-30,77.942L-30,51.962L0,51.962ZM-1.54,53.295C-1.54,53.295 -28.46,53.295 -28.46,53.295L-28.46,76.609C-28.46,76.609 -1.54,76.609 -1.54,76.609L-1.54,53.295Z"/>
                    </g>
                    <g transform="matrix(0.866025,-0.5,1,0.57735,155.885,180.028)">
                        <rect x="-30" y="51.962" width="30" height="25.981" style="fill:rgb(235,235,235);"/>
                        <path d="M0,51.962L0,77.942L-30,77.942L-30,51.962L0,51.962ZM-1.54,53.295C-1.54,53.295 -28.46,53.295 -28.46,53.295L-28.46,76.609C-28.46,76.609 -1.54,76.609 -1.54,76.609L-1.54,53.295Z"/>
                    </g>
                    <g transform="matrix(0.866025,-0.5,1,0.57735,207.846,-3.63043e-14)">
                        <rect x="-30" y="51.962" width="30" height="25.981" style="fill:rgb(235,235,235);"/>
                        <path d="M0,51.962L0,77.942L-30,77.942L-30,51.962L0,51.962ZM-1.54,53.295C-1.54,53.295 -28.46,53.295 -28.46,53.295L-28.46,76.609C-28.46,76.609 -1.54,76.609 -1.54,76.609L-1.54,53.295Z"/>
                    </g>
                    <g transform="matrix(0.866025,-0.5,1,0.57735,207.846,180.028)">
                        <rect x="-30" y="51.962" width="30" height="25.981" style="fill:rgb(235,235,235);"/>
                        <path d="M0,51.962L0,77.942L-30,77.942L-30,51.962L0,51.962ZM-1.54,53.295C-1.54,53.295 -28.46,53.295 -28.46,53.295L-28.46,76.609C-28.46,76.609 -1.54,76.609 -1.54,76.609L-1.54,53.295Z"/>
                    </g>
                    <g transform="matrix(0.866025,-0.5,1,0.57735,259.808,-1.69864e-14)">
                        <rect x="-30" y="51.962" width="30" height="25.981" style="fill:rgb(235,235,235);"/>
                        <path d="M0,51.962L0,77.942L-30,77.942L-30,51.962L0,51.962ZM-1.54,53.295C-1.54,53.295 -28.46,53.295 -28.46,53.295L-28.46,76.609C-28.46,76.609 -1.54,76.609 -1.54,76.609L-1.54,53.295Z"/>
                    </g>
                    <g transform="matrix(0.866025,-0.5,1,0.57735,259.808,180.028)">
                        <rect x="-30" y="51.962" width="30" height="25.981" style="fill:rgb(235,235,235);"/>
                        <path d="M0,51.962L0,77.942L-30,77.942L-30,51.962L0,51.962ZM-1.54,53.295C-1.54,53.295 -28.46,53.295 -28.46,53.295L-28.46,76.609C-28.46,76.609 -1.54,76.609 -1.54,76.609L-1.54,53.295Z"/>
                    </g>
                    <g transform="matrix(0.866025,-0.5,1,0.57735,259.808,90)">
                        <rect x="-30" y="51.962" width="30" height="25.981" style="fill:rgb(235,235,235);"/>
                        <path d="M0,51.962L0,77.942L-30,77.942L-30,51.962L0,51.962ZM-1.54,53.295C-1.54,53.295 -28.46,53.295 -28.46,53.295L-28.46,76.609C-28.46,76.609 -1.54,76.609 -1.54,76.609L-1.54,53.295Z"/>
                    </g>
                    <g transform="matrix(0.866025,0.5,-5.55112e-17,1.1547,-129.894,-45)">
                        <rect x="150" y="-25.981" width="29.989" height="25.981" style="fill:rgb(171,170,170);"/>
                        <path d="M179.989,-25.981L179.989,0L150,0L150,-25.981L179.989,-25.981ZM178.449,-24.647C178.449,-24.647 151.54,-24.647 151.54,-24.647C151.54,-24.647 151.54,-1.333 151.54,-1.333C151.54,-1.333 178.449,-1.333 178.449,-1.333L178.449,-24.647Z"/>
                    </g>
                    <g transform="matrix(0.866025,0.5,-5.55112e-17,1.1547,-129.894,135.028)">
                        <rect x="150" y="-25.981" width="29.989" height="25.981" style="fill:rgb(171,170,170);"/>
                        <path d="M179.989,-25.981L179.989,-0L150,0L150,-25.981L179.989,-25.981ZM178.449,-24.647C178.449,-24.647 151.54,-24.647 151.54,-24.647C151.54,-24.647 151.54,-1.333 151.54,-1.333C151.54,-1.333 178.449,-1.333 178.449,-1.333L178.449,-24.647Z"/>
                    </g>
                    <g transform="matrix(0.866025,0.5,-5.55112e-17,1.1547,-129.894,45)">
                        <rect x="150" y="-25.981" width="29.989" height="25.981" style="fill:rgb(171,170,170);"/>
                        <path d="M179.989,-25.981L179.989,0L150,0L150,-25.981L179.989,-25.981ZM178.449,-24.647C178.449,-24.647 151.54,-24.647 151.54,-24.647C151.54,-24.647 151.54,-1.333 151.54,-1.333C151.54,-1.333 178.449,-1.333 178.449,-1.333L178.449,-24.647Z"/>
                    </g>
                    <g transform="matrix(0.866025,0.5,-5.55112e-17,1.1547,-129.894,225.028)">
                        <rect x="150" y="-25.981" width="29.989" height="25.981" style="fill:rgb(171,170,170);"/>
                        <path d="M179.989,-25.981L179.989,0L150,0L150,-25.981L179.989,-25.981ZM178.449,-24.647C178.449,-24.647 151.54,-24.647 151.54,-24.647C151.54,-24.647 151.54,-1.333 151.54,-1.333C151.54,-1.333 178.449,-1.333 178.449,-1.333L178.449,-24.647Z"/>
                    </g>
                    <g transform="matrix(0.866025,0.5,-5.55112e-17,1.1547,-77.9327,-44.9945)">
                        <rect x="150" y="-25.981" width="29.989" height="25.981" style="fill:rgb(171,170,170);"/>
                        <path d="M179.989,-25.981L179.989,0L150,0L150,-25.981L179.989,-25.981ZM178.449,-24.647C178.449,-24.647 151.54,-24.647 151.54,-24.647C151.54,-24.647 151.54,-1.333 151.54,-1.333C151.54,-1.333 178.449,-1.333 178.449,-1.333L178.449,-24.647Z"/>
                    </g>
                    <g transform="matrix(0.866025,0.5,-5.55112e-17,1.1547,-77.9327,45.0055)">
                        <rect x="150" y="-25.981" width="29.989" height="25.981" style="fill:rgb(171,170,170);"/>
                        <path d="M179.989,-25.981L179.989,-0L150,-0L150,-25.981L179.989,-25.981ZM178.449,-24.647C178.449,-24.647 151.54,-24.647 151.54,-24.647C151.54,-24.647 151.54,-1.333 151.54,-1.333C151.54,-1.333 178.449,-1.333 178.449,-1.333L178.449,-24.647Z"/>
                    </g>
                    <g transform="matrix(0.866025,0.5,-5.55112e-17,1.1547,-77.9327,225.033)">
                        <rect x="150" y="-25.981" width="29.989" height="25.981" style="fill:rgb(171,170,170);"/>
                        <path d="M179.989,-25.981L179.989,0L150,0L150,-25.981L179.989,-25.981ZM178.449,-24.647C178.449,-24.647 151.54,-24.647 151.54,-24.647C151.54,-24.647 151.54,-1.333 151.54,-1.333C151.54,-1.333 178.449,-1.333 178.449,-1.333L178.449,-24.647Z"/>
                    </g>
                    <g transform="matrix(0.866025,0.5,-5.55112e-17,1.1547,-25.9712,-44.9945)">
                        <rect x="150" y="-25.981" width="29.989" height="25.981" style="fill:rgb(171,170,170);"/>
                        <path d="M179.989,-25.981L179.989,0L150,0L150,-25.981L179.989,-25.981ZM178.449,-24.647C178.449,-24.647 151.54,-24.647 151.54,-24.647C151.54,-24.647 151.54,-1.333 151.54,-1.333C151.54,-1.333 178.449,-1.333 178.449,-1.333L178.449,-24.647Z"/>
                    </g>
                    <g transform="matrix(0.866025,0.5,-5.55112e-17,1.1547,-25.9712,135.033)">
                        <rect x="150" y="-25.981" width="29.989" height="25.981" style="fill:rgb(171,170,170);"/>
                        <path d="M179.989,-25.981L179.989,-0L150,0L150,-25.981L179.989,-25.981ZM178.449,-24.647C178.449,-24.647 151.54,-24.647 151.54,-24.647C151.54,-24.647 151.54,-1.333 151.54,-1.333C151.54,-1.333 178.449,-1.333 178.449,-1.333L178.449,-24.647Z"/>
                    </g>
                    <g transform="matrix(0.866025,0.5,-5.55112e-17,1.1547,-25.9712,45.0055)">
                        <rect x="150" y="-25.981" width="29.989" height="25.981" style="fill:rgb(171,170,170);"/>
                        <path d="M179.989,-25.981L179.989,0L150,0L150,-25.981L179.989,-25.981ZM178.449,-24.647C178.449,-24.647 151.54,-24.647 151.54,-24.647C151.54,-24.647 151.54,-1.333 151.54,-1.333C151.54,-1.333 178.449,-1.333 178.449,-1.333L178.449,-24.647Z"/>
                    </g>
                    <g transform="matrix(0.866025,0.5,-5.55112e-17,1.1547,-25.9712,225.033)">
                        <rect x="150" y="-25.981" width="29.989" height="25.981" style="fill:rgb(171,170,170);"/>
                        <path d="M179.989,-25.981L179.989,0L150,0L150,-25.981L179.989,-25.981ZM178.449,-24.647C178.449,-24.647 151.54,-24.647 151.54,-24.647C151.54,-24.647 151.54,-1.333 151.54,-1.333C151.54,-1.333 178.449,-1.333 178.449,-1.333L178.449,-24.647Z"/>
                    </g>
                    <g transform="matrix(0.866025,0.5,-5.55112e-17,1.1547,25.9903,135.028)">
                        <rect x="150" y="-25.981" width="29.989" height="25.981" style="fill:rgb(171,170,170);"/>
                        <path d="M179.989,-25.981L179.989,-0L150,0L150,-25.981L179.989,-25.981ZM178.449,-24.647C178.449,-24.647 151.54,-24.647 151.54,-24.647C151.54,-24.647 151.54,-1.333 151.54,-1.333C151.54,-1.333 178.449,-1.333 178.449,-1.333L178.449,-24.647Z"/>
                    </g>
                    <g transform="matrix(0.866025,0.5,-5.55112e-17,1.1547,25.9903,45)">
                        <rect x="150" y="-25.981" width="29.989" height="25.981" style="fill:rgb(171,170,170);"/>
                        <path d="M179.989,-25.981L179.989,0L150,0L150,-25.981L179.989,-25.981ZM178.449,-24.647C178.449,-24.647 151.54,-24.647 151.54,-24.647C151.54,-24.647 151.54,-1.333 151.54,-1.333C151.54,-1.333 178.449,-1.333 178.449,-1.333L178.449,-24.647Z"/>
                    </g>
                    <g transform="matrix(0.866025,0.5,-5.55112e-17,1.1547,25.9903,225.028)">
                        <rect x="150" y="-25.981" width="29.989" height="25.981" style="fill:rgb(171,170,170);"/>
                        <path d="M179.989,-25.981L179.989,0L150,0L150,-25.981L179.989,-25.981ZM178.449,-24.647C178.449,-24.647 151.54,-24.647 151.54,-24.647C151.54,-24.647 151.54,-1.333 151.54,-1.333C151.54,-1.333 178.449,-1.333 178.449,-1.333L178.449,-24.647Z"/>
                    </g>
                    <g transform="matrix(0.866025,0.5,-5.55112e-17,1.1547,77.9519,-44.9945)">
                        <rect x="150" y="-25.981" width="29.989" height="25.981" style="fill:rgb(171,170,170);"/>
                        <path d="M179.989,-25.981L179.989,-0L150,0L150,-25.981L179.989,-25.981ZM178.449,-24.647C178.449,-24.647 151.54,-24.647 151.54,-24.647C151.54,-24.647 151.54,-1.333 151.54,-1.333C151.54,-1.333 178.449,-1.333 178.449,-1.333L178.449,-24.647Z"/>
                    </g>
                    <g transform="matrix(0.866025,0.5,-5.55112e-17,1.1547,77.9519,45.0055)">
                        <rect x="150" y="-25.981" width="29.989" height="25.981" style="fill:rgb(171,170,170);"/>
                        <path d="M179.989,-25.981L179.989,0L150,0L150,-25.981L179.989,-25.981ZM178.449,-24.647C178.449,-24.647 151.54,-24.647 151.54,-24.647C151.54,-24.647 151.54,-1.333 151.54,-1.333C151.54,-1.333 178.449,-1.333 178.449,-1.333L178.449,-24.647Z"/>
                    </g>
                    <g transform="matrix(0.866025,0.5,-5.55112e-17,1.1547,77.9519,225.033)">
                        <rect x="150" y="-25.981" width="29.989" height="25.981" style="fill:rgb(171,170,170);"/>
                        <path d="M179.989,-25.981L179.989,-0L150,0L150,-25.981L179.989,-25.981ZM178.449,-24.647C178.449,-24.647 151.54,-24.647 151.54,-24.647C151.54,-24.647 151.54,-1.333 151.54,-1.333C151.54,-1.333 178.449,-1.333 178.449,-1.333L178.449,-24.647Z"/>
                    </g>
                    <g transform="matrix(0.866025,0.5,-5.55112e-17,1.1547,129.913,-44.9945)">
                        <rect x="150" y="-25.981" width="29.989" height="25.981" style="fill:rgb(171,170,170);"/>
                        <path d="M179.989,-25.981L179.989,0L150,0L150,-25.981L179.989,-25.981ZM178.449,-24.647C178.449,-24.647 151.54,-24.647 151.54,-24.647C151.54,-24.647 151.54,-1.333 151.54,-1.333C151.54,-1.333 178.449,-1.333 178.449,-1.333L178.449,-24.647Z"/>
                    </g>
                    <g transform="matrix(0.866025,0.5,-5.55112e-17,1.1547,129.913,135.033)">
                        <rect x="150" y="-25.981" width="29.989" height="25.981" style="fill:rgb(171,170,170);"/>
                        <path d="M179.989,-25.981L179.989,-0L150,0L150,-25.981L179.989,-25.981ZM178.449,-24.647C178.449,-24.647 151.54,-24.647 151.54,-24.647C151.54,-24.647 151.54,-1.333 151.54,-1.333C151.54,-1.333 178.449,-1.333 178.449,-1.333L178.449,-24.647Z"/>
                    </g>
                    <g transform="matrix(0.866025,0.5,-5.55112e-17,1.1547,129.913,45.0055)">
                        <rect x="150" y="-25.981" width="29.989" height="25.981" style="fill:rgb(171,170,170);"/>
                        <path d="M179.989,-25.981L179.989,-0L150,-0L150,-25.981L179.989,-25.981ZM178.449,-24.647C178.449,-24.647 151.54,-24.647 151.54,-24.647C151.54,-24.647 151.54,-1.333 151.54,-1.333C151.54,-1.333 178.449,-1.333 178.449,-1.333L178.449,-24.647Z"/>
                    </g>
                    <g transform="matrix(0.866025,0.5,-5.55112e-17,1.1547,129.913,225.033)">
                        <rect x="150" y="-25.981" width="29.989" height="25.981" style="fill:rgb(171,170,170);"/>
                        <path d="M179.989,-25.981L179.989,0L150,0L150,-25.981L179.989,-25.981ZM178.449,-24.647C178.449,-24.647 151.54,-24.647 151.54,-24.647C151.54,-24.647 151.54,-1.333 151.54,-1.333C151.54,-1.333 178.449,-1.333 178.449,-1.333L178.449,-24.647Z"/>
                    </g>
                    <g transform="matrix(0.866025,0.5,-5.55112e-17,1.1547,-103.904,0.00552679)">
                        <rect x="150" y="-25.981" width="29.989" height="25.981" style="fill:rgb(171,170,170);"/>
                        <path d="M179.989,-25.981L179.989,0L150,0L150,-25.981L179.989,-25.981ZM178.449,-24.647C178.449,-24.647 151.54,-24.647 151.54,-24.647C151.54,-24.647 151.54,-1.333 151.54,-1.333C151.54,-1.333 178.449,-1.333 178.449,-1.333L178.449,-24.647Z"/>
                    </g>
                    <g transform="matrix(0.866025,0.5,-5.55112e-17,1.1547,-103.904,180.033)">
                        <rect x="150" y="-25.981" width="29.989" height="25.981" style="fill:rgb(171,170,170);"/>
                        <path d="M179.989,-25.981L179.989,0L150,-0L150,-25.981L179.989,-25.981ZM178.449,-24.647C178.449,-24.647 151.54,-24.647 151.54,-24.647C151.54,-24.647 151.54,-1.333 151.54,-1.333C151.54,-1.333 178.449,-1.333 178.449,-1.333L178.449,-24.647Z"/>
                    </g>
                    <g transform="matrix(0.866025,0.5,-5.55112e-17,1.1547,-51.9424,0.0110536)">
                        <rect x="150" y="-25.981" width="29.989" height="25.981" style="fill:rgb(171,170,170);"/>
                        <path d="M179.989,-25.981L179.989,-0L150,-0L150,-25.981L179.989,-25.981ZM178.449,-24.647C178.449,-24.647 151.54,-24.647 151.54,-24.647C151.54,-24.647 151.54,-1.333 151.54,-1.333C151.54,-1.333 178.449,-1.333 178.449,-1.333L178.449,-24.647Z"/>
                    </g>
                    <g transform="matrix(0.866025,0.5,-5.55112e-17,1.1547,-51.9424,180.039)">
                        <rect x="150" y="-25.981" width="29.989" height="25.981" style="fill:rgb(171,170,170);"/>
                        <path d="M179.989,-25.981L179.989,0L150,0L150,-25.981L179.989,-25.981ZM178.449,-24.647C178.449,-24.647 151.54,-24.647 151.54,-24.647C151.54,-24.647 151.54,-1.333 151.54,-1.333C151.54,-1.333 178.449,-1.333 178.449,-1.333L178.449,-24.647Z"/>
                    </g>
                    <g transform="matrix(0.866025,0.5,-5.55112e-17,1.1547,8.52651e-14,180.028)">
                        <rect x="150" y="-25.981" width="29.989" height="25.981" style="fill:rgb(171,170,170);"/>
                        <path d="M179.989,-25.981L179.989,-0L150,0L150,-25.981L179.989,-25.981ZM178.449,-24.647C178.449,-24.647 151.54,-24.647 151.54,-24.647C151.54,-24.647 151.54,-1.333 151.54,-1.333C151.54,-1.333 178.449,-1.333 178.449,-1.333L178.449,-24.647Z"/>
                    </g>
                    <g transform="matrix(0.866025,0.5,-5.55112e-17,1.1547,8.52513e-14,90)">
                        <rect x="150" y="-25.981" width="29.989" height="25.981" style="fill:rgb(171,170,170);"/>
                        <path d="M179.989,-25.981L179.989,0L150,0L150,-25.981L179.989,-25.981ZM178.449,-24.647C178.449,-24.647 151.54,-24.647 151.54,-24.647C151.54,-24.647 151.54,-1.333 151.54,-1.333C151.54,-1.333 178.449,-1.333 178.449,-1.333L178.449,-24.647Z"/>
                    </g>
                    <g transform="matrix(0.866025,0.5,-5.55112e-17,1.1547,51.9615,180.022)">
                        <rect x="150" y="-25.981" width="29.989" height="25.981" style="fill:rgb(171,170,170);"/>
                        <path d="M179.989,-25.981L179.989,-0L150,-0L150,-25.981L179.989,-25.981ZM178.449,-24.647C178.449,-24.647 151.54,-24.647 151.54,-24.647C151.54,-24.647 151.54,-1.333 151.54,-1.333C151.54,-1.333 178.449,-1.333 178.449,-1.333L178.449,-24.647Z"/>
                    </g>
                    <g transform="matrix(0.866025,0.5,-5.55112e-17,1.1547,103.923,-0.00552679)">
                        <rect x="150" y="-25.981" width="29.989" height="25.981" style="fill:rgb(171,170,170);"/>
                        <path d="M179.989,-25.981L179.989,0L150,0L150,-25.981L179.989,-25.981ZM178.449,-24.647C178.449,-24.647 151.54,-24.647 151.54,-24.647C151.54,-24.647 151.54,-1.333 151.54,-1.333C151.54,-1.333 178.449,-1.333 178.449,-1.333L178.449,-24.647Z"/>
                    </g>
                    <g transform="matrix(0.866025,0.5,-5.55112e-17,1.1547,103.923,180.022)">
                        <rect x="150" y="-25.981" width="29.989" height="25.981" style="fill:rgb(171,170,170);"/>
                        <path d="M179.989,-25.981L179.989,0L150,0L150,-25.981L179.989,-25.981ZM178.449,-24.647C178.449,-24.647 151.54,-24.647 151.54,-24.647C151.54,-24.647 151.54,-1.333 151.54,-1.333C151.54,-1.333 178.449,-1.333 178.449,-1.333L178.449,-24.647Z"/>
                    </g>
                    <g transform="matrix(0.866025,0.5,-5.55112e-17,1.1547,155.875,-0.0110536)">
                        <rect x="150" y="-25.981" width="29.989" height="25.981" style="fill:rgb(171,170,170);"/>
                        <path d="M179.989,-25.981L179.989,0L150,0L150,-25.981L179.989,-25.981ZM178.449,-24.647C178.449,-24.647 151.54,-24.647 151.54,-24.647C151.54,-24.647 151.54,-1.333 151.54,-1.333C151.54,-1.333 178.449,-1.333 178.449,-1.333L178.449,-24.647Z"/>
                    </g>
                    <g transform="matrix(0.866025,0.5,-5.55112e-17,1.1547,155.875,180.017)">
                        <rect x="150" y="-25.981" width="29.989" height="25.981" style="fill:rgb(171,170,170);"/>
                        <path d="M179.989,-25.981L179.989,-0L150,0L150,-25.981L179.989,-25.981ZM178.449,-24.647C178.449,-24.647 151.54,-24.647 151.54,-24.647C151.54,-24.647 151.54,-1.333 151.54,-1.333C151.54,-1.333 178.449,-1.333 178.449,-1.333L178.449,-24.647Z"/>
                    </g>
                    <g transform="matrix(0.866025,0.5,-5.55112e-17,1.1547,155.875,89.9889)">
                        <rect x="150" y="-25.981" width="29.989" height="25.981" style="fill:rgb(171,170,170);"/>
                        <path d="M179.989,-25.981L179.989,0L150,0L150,-25.981L179.989,-25.981ZM178.449,-24.647C178.449,-24.647 151.54,-24.647 151.54,-24.647C151.54,-24.647 151.54,-1.333 151.54,-1.333C151.54,-1.333 178.449,-1.333 178.449,-1.333L178.449,-24.647Z"/>
                    </g>
                    <g transform="matrix(0.866025,-0.5,5.55112e-17,1.1547,0,0)">
                        <rect x="30" y="25.981" width="30" height="25.981" style="fill:white;"/>
                        <path d="M60,25.981L60,51.962L30,51.962L30,25.981L60,25.981ZM58.46,27.314L31.54,27.314C31.54,27.314 31.54,50.628 31.54,50.628L58.46,50.628L58.46,27.314Z"/>
                    </g>
                    <g transform="matrix(0.866025,-0.5,5.55112e-17,1.1547,9.9476e-14,180.028)">
                        <rect x="30" y="25.981" width="30" height="25.981" style="fill:white;"/>
                        <path d="M60,25.981L60,51.962L30,51.962L30,25.981L60,25.981ZM58.46,27.314L31.54,27.314C31.54,27.314 31.54,50.628 31.54,50.628L58.46,50.628L58.46,27.314Z"/>
                    </g>
                    <g transform="matrix(0.866025,-0.5,5.55112e-17,1.1547,9.94621e-14,90)">
                        <rect x="30" y="25.981" width="30" height="25.981" style="fill:white;"/>
                        <path d="M60,25.981L60,51.962L30,51.962L30,25.981L60,25.981ZM58.46,27.314L31.54,27.314C31.54,27.314 31.54,50.628 31.54,50.628L58.46,50.628L58.46,27.314Z"/>
                    </g>
                    <g transform="matrix(0.866025,-0.5,5.55112e-17,1.1547,1.98938e-13,270.028)">
                        <rect x="30" y="25.981" width="30" height="25.981" style="fill:white;"/>
                        <path d="M60,25.981L60,51.962L30,51.962L30,25.981L60,25.981ZM58.46,27.314L31.54,27.314C31.54,27.314 31.54,50.628 31.54,50.628L58.46,50.628L58.46,27.314Z"/>
                    </g>
                    <g transform="matrix(0.866025,-0.5,5.55112e-17,1.1547,51.9615,-3.55271e-15)">
                        <rect x="30" y="25.981" width="30" height="25.981" style="fill:white;"/>
                        <path d="M60,25.981L60,51.962L30,51.962L30,25.981L60,25.981ZM58.46,27.314L31.54,27.314C31.54,27.314 31.54,50.628 31.54,50.628L58.46,50.628L58.46,27.314Z"/>
                    </g>
                    <g transform="matrix(0.866025,-0.5,5.55112e-17,1.1547,51.9615,90)">
                        <rect x="30" y="25.981" width="30" height="25.981" style="fill:white;"/>
                        <path d="M60,25.981L60,51.962L30,51.962L30,25.981L60,25.981ZM58.46,27.314L31.54,27.314C31.54,27.314 31.54,50.628 31.54,50.628L58.46,50.628L58.46,27.314Z"/>
                    </g>
                    <g transform="matrix(0.866025,-0.5,5.55112e-17,1.1547,51.9615,270.028)">
                        <rect x="30" y="25.981" width="30" height="25.981" style="fill:white;"/>
                        <path d="M60,25.981L60,51.962L30,51.962L30,25.981L60,25.981ZM58.46,27.314L31.54,27.314C31.54,27.314 31.54,50.628 31.54,50.628L58.46,50.628L58.46,27.314Z"/>
                    </g>
                    <g transform="matrix(0.866025,-0.5,5.55112e-17,1.1547,103.923,180.028)">
                        <rect x="30" y="25.981" width="30" height="25.981" style="fill:white;"/>
                        <path d="M60,25.981L60,51.962L30,51.962L30,25.981L60,25.981ZM58.46,27.314L31.54,27.314C31.54,27.314 31.54,50.628 31.54,50.628L58.46,50.628L58.46,27.314Z"/>
                    </g>
                    <g transform="matrix(0.866025,-0.5,5.55112e-17,1.1547,103.923,90)">
                        <rect x="30" y="25.981" width="30" height="25.981" style="fill:white;"/>
                        <path d="M60,25.981L60,51.962L30,51.962L30,25.981L60,25.981ZM58.46,27.314L31.54,27.314C31.54,27.314 31.54,50.628 31.54,50.628L58.46,50.628L58.46,27.314Z"/>
                    </g>
                    <g transform="matrix(0.866025,-0.5,5.55112e-17,1.1547,103.923,270.028)">
                        <rect x="30" y="25.981" width="30" height="25.981" style="fill:white;"/>
                        <path d="M60,25.981L60,51.962L30,51.962L30,25.981L60,25.981ZM58.46,27.314L31.54,27.314C31.54,27.314 31.54,50.628 31.54,50.628L58.46,50.628L58.46,27.314Z"/>
                    </g>
                    <g transform="matrix(0.866025,-0.5,5.55112e-17,1.1547,155.904,-3.55271e-15)">
                        <rect x="30" y="25.981" width="30" height="25.981" style="fill:white;"/>
                        <path d="M60,25.981L60,51.962L30,51.962L30,25.981L60,25.981ZM58.46,27.314L31.54,27.314C31.54,27.314 31.54,50.628 31.54,50.628L58.46,50.628L58.46,27.314Z"/>
                    </g>
                    <g transform="matrix(0.866025,-0.5,5.55112e-17,1.1547,155.904,180.028)">
                        <rect x="30" y="25.981" width="30" height="25.981" style="fill:white;"/>
                        <path d="M60,25.981L60,51.962L30,51.962L30,25.981L60,25.981ZM58.46,27.314L31.54,27.314C31.54,27.314 31.54,50.628 31.54,50.628L58.46,50.628L58.46,27.314Z"/>
                    </g>
                    <g transform="matrix(0.866025,-0.5,5.55112e-17,1.1547,155.904,90)">
                        <rect x="30" y="25.981" width="30" height="25.981" style="fill:white;"/>
                        <path d="M60,25.981L60,51.962L30,51.962L30,25.981L60,25.981ZM58.46,27.314L31.54,27.314C31.54,27.314 31.54,50.628 31.54,50.628L58.46,50.628L58.46,27.314Z"/>
                    </g>
                    <g transform="matrix(0.866025,-0.5,5.55112e-17,1.1547,155.904,270.028)">
                        <rect x="30" y="25.981" width="30" height="25.981" style="fill:white;"/>
                        <path d="M60,25.981L60,51.962L30,51.962L30,25.981L60,25.981ZM58.46,27.314L31.54,27.314C31.54,27.314 31.54,50.628 31.54,50.628L58.46,50.628L58.46,27.314Z"/>
                    </g>
                    <g transform="matrix(0.866025,-0.5,5.55112e-17,1.1547,207.865,-3.55271e-15)">
                        <rect x="30" y="25.981" width="30" height="25.981" style="fill:white;"/>
                        <path d="M60,25.981L60,51.962L30,51.962L30,25.981L60,25.981ZM58.46,27.314L31.54,27.314C31.54,27.314 31.54,50.628 31.54,50.628L58.46,50.628L58.46,27.314Z"/>
                    </g>
                    <g transform="matrix(0.866025,-0.5,5.55112e-17,1.1547,207.865,90)">
                        <rect x="30" y="25.981" width="30" height="25.981" style="fill:white;"/>
                        <path d="M60,25.981L60,51.962L30,51.962L30,25.981L60,25.981ZM58.46,27.314L31.54,27.314C31.54,27.314 31.54,50.628 31.54,50.628L58.46,50.628L58.46,27.314Z"/>
                    </g>
                    <g transform="matrix(0.866025,-0.5,5.55112e-17,1.1547,207.865,270.028)">
                        <rect x="30" y="25.981" width="30" height="25.981" style="fill:white;"/>
                        <path d="M60,25.981L60,51.962L30,51.962L30,25.981L60,25.981ZM58.46,27.314L31.54,27.314C31.54,27.314 31.54,50.628 31.54,50.628L58.46,50.628L58.46,27.314Z"/>
                    </g>
                    <g transform="matrix(0.866025,-0.5,5.55112e-17,1.1547,259.827,-3.55271e-15)">
                        <rect x="30" y="25.981" width="30" height="25.981" style="fill:white;"/>
                        <path d="M60,25.981L60,51.962L30,51.962L30,25.981L60,25.981ZM58.46,27.314L31.54,27.314C31.54,27.314 31.54,50.628 31.54,50.628L58.46,50.628L58.46,27.314Z"/>
                    </g>
                    <g transform="matrix(0.866025,-0.5,5.55112e-17,1.1547,259.827,180.028)">
                        <rect x="30" y="25.981" width="30" height="25.981" style="fill:white;"/>
                        <path d="M60,25.981L60,51.962L30,51.962L30,25.981L60,25.981ZM58.46,27.314L31.54,27.314C31.54,27.314 31.54,50.628 31.54,50.628L58.46,50.628L58.46,27.314Z"/>
                    </g>
                    <g transform="matrix(0.866025,-0.5,5.55112e-17,1.1547,259.827,90)">
                        <rect x="30" y="25.981" width="30" height="25.981" style="fill:white;"/>
                        <path d="M60,25.981L60,51.962L30,51.962L30,25.981L60,25.981ZM58.46,27.314L31.54,27.314C31.54,27.314 31.54,50.628 31.54,50.628L58.46,50.628L58.46,27.314Z"/>
                    </g>
                    <g transform="matrix(0.866025,-0.5,5.55112e-17,1.1547,259.827,270.028)">
                        <rect x="30" y="25.981" width="30" height="25.981" style="fill:white;"/>
                        <path d="M60,25.981L60,51.962L30,51.962L30,25.981L60,25.981ZM58.46,27.314L31.54,27.314C31.54,27.314 31.54,50.628 31.54,50.628L58.46,50.628L58.46,27.314Z"/>
                    </g>
                    <g transform="matrix(0.866025,-0.5,5.55112e-17,1.1547,233.827,45.0111)">
                        <rect x="30" y="25.981" width="30" height="25.981" style="fill:white;"/>
                        <path d="M60,25.981L60,51.962L30,51.962L30,25.981L60,25.981ZM58.46,27.314L31.54,27.314C31.54,27.314 31.54,50.628 31.54,50.628L58.46,50.628L58.46,27.314Z"/>
                    </g>
                    <g transform="matrix(0.866025,-0.5,5.55112e-17,1.1547,233.827,225.039)">
                        <rect x="30" y="25.981" width="30" height="25.981" style="fill:white;"/>
                        <path d="M60,25.981L60,51.962L30,51.962L30,25.981L60,25.981ZM58.46,27.314L31.54,27.314C31.54,27.314 31.54,50.628 31.54,50.628L58.46,50.628L58.46,27.314Z"/>
                    </g>
                    <g transform="matrix(0.866025,-0.5,5.55112e-17,1.1547,181.865,45.0111)">
                        <rect x="30" y="25.981" width="30" height="25.981" style="fill:white;"/>
                        <path d="M60,25.981L60,51.962L30,51.962L30,25.981L60,25.981ZM58.46,27.314L31.54,27.314C31.54,27.314 31.54,50.628 31.54,50.628L58.46,50.628L58.46,27.314Z"/>
                    </g>
                    <g transform="matrix(0.866025,-0.5,5.55112e-17,1.1547,181.865,225.039)">
                        <rect x="30" y="25.981" width="30" height="25.981" style="fill:white;"/>
                        <path d="M60,25.981L60,51.962L30,51.962L30,25.981L60,25.981ZM58.46,27.314L31.54,27.314C31.54,27.314 31.54,50.628 31.54,50.628L58.46,50.628L58.46,27.314Z"/>
                    </g>
                    <g transform="matrix(0.866025,-0.5,5.55112e-17,1.1547,129.894,225.044)">
                        <rect x="30" y="25.981" width="30" height="25.981" style="fill:white;"/>
                        <path d="M60,25.981L60,51.962L30,51.962L30,25.981L60,25.981ZM58.46,27.314L31.54,27.314C31.54,27.314 31.54,50.628 31.54,50.628L58.46,50.628L58.46,27.314Z"/>
                    </g>
                    <g transform="matrix(0.866025,-0.5,5.55112e-17,1.1547,129.894,135.017)">
                        <rect x="30" y="25.981" width="30" height="25.981" style="fill:white;"/>
                        <path d="M60,25.981L60,51.962L30,51.962L30,25.981L60,25.981ZM58.46,27.314L31.54,27.314C31.54,27.314 31.54,50.628 31.54,50.628L58.46,50.628L58.46,27.314Z"/>
                    </g>
                    <g transform="matrix(0.866025,-0.5,5.55112e-17,1.1547,77.9423,225.039)">
                        <rect x="30" y="25.981" width="30" height="25.981" style="fill:white;"/>
                        <path d="M60,25.981L60,51.962L30,51.962L30,25.981L60,25.981ZM58.46,27.314L31.54,27.314C31.54,27.314 31.54,50.628 31.54,50.628L58.46,50.628L58.46,27.314Z"/>
                    </g>
                    <g transform="matrix(0.866025,-0.5,5.55112e-17,1.1547,25.9808,45)">
                        <rect x="30" y="25.981" width="30" height="25.981" style="fill:white;"/>
                        <path d="M60,25.981L60,51.962L30,51.962L30,25.981L60,25.981ZM58.46,27.314L31.54,27.314C31.54,27.314 31.54,50.628 31.54,50.628L58.46,50.628L58.46,27.314Z"/>
                    </g>
                    <g transform="matrix(0.866025,-0.5,5.55112e-17,1.1547,25.9808,225.028)">
                        <rect x="30" y="25.981" width="30" height="25.981" style="fill:white;"/>
                        <path d="M60,25.981L60,51.962L30,51.962L30,25.981L60,25.981ZM58.46,27.314L31.54,27.314C31.54,27.314 31.54,50.628 31.54,50.628L58.46,50.628L58.46,27.314Z"/>
                    </g>
                    <g transform="matrix(0.866025,-0.5,5.55112e-17,1.1547,-25.9808,45)">
                        <rect x="30" y="25.981" width="30" height="25.981" style="fill:white;"/>
                        <path d="M60,25.981L60,51.962L30,51.962L30,25.981L60,25.981ZM58.46,27.314L31.54,27.314C31.54,27.314 31.54,50.628 31.54,50.628L58.46,50.628L58.46,27.314Z"/>
                    </g>
                    <g transform="matrix(0.866025,-0.5,5.55112e-17,1.1547,-25.9808,225.028)">
                        <rect x="30" y="25.981" width="30" height="25.981" style="fill:white;"/>
                        <path d="M60,25.981L60,51.962L30,51.962L30,25.981L60,25.981ZM58.46,27.314L31.54,27.314C31.54,27.314 31.54,50.628 31.54,50.628L58.46,50.628L58.46,27.314Z"/>
                    </g>
                    <g transform="matrix(0.866025,-0.5,5.55112e-17,1.1547,-25.9808,135)">
                        <rect x="30" y="25.981" width="30" height="25.981" style="fill:white;"/>
                        <path d="M60,25.981L60,51.962L30,51.962L30,25.981L60,25.981ZM58.46,27.314L31.54,27.314C31.54,27.314 31.54,50.628 31.54,50.628L58.46,50.628L58.46,27.314Z"/>
                    </g>
                    <path d="M233.817,135.006L207.837,120.006L181.865,135L233.827,165L285.788,135L259.808,120L233.817,135.006Z" style="fill:rgb(235,235,235);"/>
                    <path d="M233.817,135.006L259.808,120L285.788,135L233.827,165L181.865,135L207.837,120.006L233.817,135.006ZM233.151,136.16C233.151,136.16 207.837,121.545 207.837,121.545L184.532,135L233.827,163.46C233.827,163.46 283.122,135 283.122,135C283.122,135 259.808,121.54 259.808,121.54L233.817,136.545L233.151,136.16Z"/>
                    <g transform="matrix(-1,-9.61481e-17,2.88444e-16,-1,389.692,225.028)">
                        <path d="M233.817,135.006L207.837,120.006L181.865,135L233.827,165L285.788,135L259.808,120L233.817,135.006Z" style="fill:rgb(235,235,235);"/>
                        <path d="M233.817,135.006L259.808,120L285.788,135L233.827,165L181.865,135L207.837,120.006L233.817,135.006ZM233.151,136.16C233.151,136.16 207.837,121.545 207.837,121.545L184.532,135L233.827,163.46C233.827,163.46 283.122,135 283.122,135C283.122,135 259.808,121.54 259.808,121.54L233.817,136.545L233.151,136.16Z"/>
                    </g>
                    <path d="M233.846,164.989L233.846,224.989L259.798,210.006L259.798,180.006L285.788,165L285.788,134.983L233.846,164.989Z" style="fill:white;"/>
                    <path d="M233.846,164.989L285.788,134.983L285.788,165L259.798,180.006L259.798,210.006L233.846,224.989L233.846,164.989ZM235.179,165.759L235.179,222.68C235.179,222.68 258.465,209.236 258.465,209.236L258.465,179.236L284.455,164.23C284.455,164.23 284.455,137.293 284.455,137.293L235.179,165.759Z"/>
                    <path d="M181.865,135.011L233.846,164.989L233.827,224.972L207.846,209.978L207.846,180L181.865,165L181.865,135.011Z" style="fill:rgb(171,170,170);"/>
                    <path d="M181.865,135.011L233.846,164.989L233.827,224.972L207.846,209.978L207.846,180L181.865,165L181.865,135.011ZM183.199,137.319C183.199,137.319 183.199,164.23 183.199,164.23L209.179,179.23L209.179,209.208L232.494,222.664L232.512,165.759L183.199,137.319Z"/>
                    <path d="M25.981,135L77.942,165L129.904,135L103.923,120L77.942,135L51.962,120L25.981,135Z" style="fill:rgb(235,235,235);"/>
                    <path d="M25.981,135L51.962,120L77.942,135L103.923,120L129.904,135L77.942,165L25.981,135ZM28.647,135L77.942,163.46C77.942,163.46 127.237,135 127.237,135C127.237,135 103.923,121.54 103.923,121.54L77.942,136.54L51.962,121.54L28.647,135Z"/>
                    <path d="M129.904,135L129.904,165.011L103.923,180L103.923,210L77.942,225L77.942,165L129.904,135Z" style="fill:white;"/>
                    <path d="M129.904,135L129.904,165.011L103.923,180L103.923,210L77.942,225L77.942,165L129.904,135ZM128.57,137.309L79.276,165.77C79.276,165.77 79.276,222.691 79.276,222.691C79.276,222.691 102.59,209.23 102.59,209.23L102.59,179.23L128.57,164.241L128.57,137.309Z"/>
                    <path d="M26,134.989L77.942,165L77.942,225L51.971,209.994L51.962,180L26,164.989L26,134.989Z" style="fill:rgb(171,170,170);"/>
                    <path d="M26,134.989L77.942,165L77.942,225L51.971,209.994L51.962,180L26,164.989L26,134.989ZM27.333,137.299C27.333,137.299 27.333,164.22 27.333,164.22L53.295,179.231L53.304,209.225L76.609,222.69C76.609,222.69 76.609,165.77 76.609,165.77L27.333,137.299Z"/>
                    <g transform="matrix(-1,-9.61481e-17,2.88444e-16,-1,233.817,224.972)">
                        <path d="M26,134.989L77.942,165L77.942,225L51.971,209.994L51.962,180L26,164.989L26,134.989Z" style="fill:rgb(171,170,170);"/>
                        <path d="M26,134.989L77.942,165L77.942,225L51.971,209.994L51.962,180L26,164.989L26,134.989ZM27.333,137.299C27.333,137.299 27.333,164.22 27.333,164.22L53.295,179.231L53.304,209.225L76.609,222.69C76.609,222.69 76.609,165.77 76.609,165.77L27.333,137.299Z"/>
                    </g>
                    <path d="M103.923,90L103.923,60L129.904,45L129.904,15L155.875,0.006L155.885,60L103.923,90Z" style="fill:white;"/>
                    <path d="M103.923,90L103.923,60L129.904,45L129.904,15L155.875,0.006L155.885,60L103.923,90ZM105.256,87.691L154.551,59.23L154.542,2.315C154.542,2.315 131.237,15.77 131.237,15.77L131.237,45.77L105.256,60.77L105.256,87.691Z"/>
                </g>
            </g>
        </g>
    </g>
    </pattern>
    <rect fill="url(#p)" width="100%" height="100%"> </rect>
</svg>
