<?xml version="1.0" encoding="UTF-8"?>
<!DOCTYPE svg PUBLIC "-//W3C//DTD SVG 1.1//EN" "http://www.w3.org/Graphics/SVG/1.1/DTD/svg11.dtd">
<svg xmlns="http://www.w3.org/2000/svg" version="1.1" width="7087px" height="5906px" style="shape-rendering:geometricPrecision; text-rendering:geometricPrecision; image-rendering:optimizeQuality; fill-rule:evenodd; clip-rule:evenodd" xmlns:xlink="http://www.w3.org/1999/xlink">
<g><path style="opacity:0.695" fill="#5f5f5f" d="M 3550.5,416.5 C 3549.83,416.5 3549.17,416.5 3548.5,416.5C 3535.85,417.349 3523.19,417.682 3510.5,417.5C 3519.37,416.808 3528.37,416.141 3537.5,415.5C 3541.85,415.292 3546.18,415.625 3550.5,416.5 Z"/></g>
<g><path style="opacity:0.804" fill="#525252" d="M 3579.5,417.5 C 3568.99,417.828 3558.65,417.494 3548.5,416.5C 3549.17,416.5 3549.83,416.5 3550.5,416.5C 3551.15,416.196 3551.82,415.863 3552.5,415.5C 3561.63,416.141 3570.63,416.808 3579.5,417.5 Z"/></g>
<g><path style="opacity:1" fill="#010101" d="M 3548.5,416.5 C 3558.65,417.494 3568.99,417.828 3579.5,417.5C 3598.61,417.466 3617.61,418.466 3636.5,420.5C 3643.28,421.983 3650.28,422.65 3657.5,422.5C 3901.54,447.565 4098.37,556.232 4248,748.5C 4316.91,840.273 4371.91,940.273 4413,1048.5C 4432.82,1099.8 4449.32,1152.14 4462.5,1205.5C 4462.41,1208.15 4463.08,1210.49 4464.5,1212.5C 4478.68,1266.07 4489.68,1320.41 4497.5,1375.5C 4497.12,1379.49 4497.78,1383.16 4499.5,1386.5C 4505.24,1427.15 4508.91,1467.99 4510.5,1509C 4509.5,1931.81 4509.17,2354.64 4509.5,2777.5C 4509.43,2781.42 4510.1,2785.09 4511.5,2788.5C 4512.33,2793.32 4512.83,2798.32 4513,2803.5C 4516.28,2810.4 4521.78,2814.23 4529.5,2815C 4530.67,2816.17 4531.83,2817.33 4533,2818.5C 4533.5,2823.15 4533.67,2827.82 4533.5,2832.5C 4532.79,2847.36 4532.12,2862.36 4531.5,2877.5C 4530.17,2878.17 4529.17,2879.17 4528.5,2880.5C 4526.6,2880.8 4524.93,2881.46 4523.5,2882.5C 4520.51,2882.17 4518.18,2883.17 4516.5,2885.5C 4514.24,2887.68 4512.74,2890.35 4512,2893.5C 4511.67,2935.67 4511.5,2977.67 4511.5,3019.5C 4510.33,3217.67 4510.17,3416 4511,3614.5C 4511.38,3615.06 4511.88,3615.39 4512.5,3615.5C 4512.83,3617.83 4514.17,3619.17 4516.5,3619.5C 4518.83,3619.83 4520.17,3621.17 4520.5,3623.5C 4521.46,3637.12 4521.8,3650.78 4521.5,3664.5C 4521.27,3666.06 4520.6,3667.4 4519.5,3668.5C 4517.97,3668.43 4516.97,3669.09 4516.5,3670.5C 4510.56,3672.97 4506.4,3677.3 4504,3683.5C 4502.22,3685.79 4500.06,3687.46 4497.5,3688.5C 4493.02,3689.37 4488.68,3690.37 4484.5,3691.5C 4484.5,3692.17 4484.17,3692.5 4483.5,3692.5C 4480.38,3693.29 4478.71,3695.29 4478.5,3698.5C 4478.16,3701.2 4476.82,3703.2 4474.5,3704.5C 4471.74,3705.51 4469.08,3706.51 4466.5,3707.5C 4447.33,3707.83 4428.33,3707.5 4409.5,3706.5C 4408.5,3704.83 4407.17,3703.5 4405.5,3702.5C 4404.57,3701.43 4404.23,3700.1 4404.5,3698.5C 4404.66,3695.48 4404.5,3692.48 4404,3689.5C 4403.33,3688.75 4402.5,3688.41 4401.5,3688.5C 4397.55,3688.46 4393.71,3689.13 4390,3690.5C 4386.38,3690.02 4383.21,3688.69 4380.5,3686.5C 4379.71,3684.9 4378.38,3684.23 4376.5,3684.5C 4374.03,3683.68 4371.36,3683.18 4368.5,3683C 4359.51,3682.5 4350.51,3682.33 4341.5,3682.5C 4339.59,3682.78 4337.92,3682.45 4336.5,3681.5C 4334.82,3679.99 4332.82,3678.99 4330.5,3678.5C 4328.97,3678.57 4327.97,3677.91 4327.5,3676.5C 4327.03,3675.09 4326.03,3674.43 4324.5,3674.5C 4321.48,3671.8 4319.48,3668.47 4318.5,3664.5C 4317.07,3640.04 4316.07,3615.7 4315.5,3591.5C 4314.83,3542.86 4314.16,3494.2 4313.5,3445.5C 4312.12,3443.45 4310.45,3441.78 4308.5,3440.5C 4307.07,3439.22 4306.4,3437.55 4306.5,3435.5C 4306.65,3427.8 4306.31,3420.14 4305.5,3412.5C 4305.5,3393.8 4304.83,3375.14 4303.5,3356.5C 4303.33,3351.16 4301.33,3346.83 4297.5,3343.5C 4295.5,3339.5 4292.5,3336.5 4288.5,3334.5C 4287.51,3334.67 4286.84,3334.34 4286.5,3333.5C 4286.03,3332.09 4285.03,3331.43 4283.5,3331.5C 4281.85,3331.34 4280.51,3330.67 4279.5,3329.5C 4278.36,3327.79 4276.7,3327.12 4274.5,3327.5C 4272.56,3325.84 4270.23,3325.17 4267.5,3325.5C 4261.97,3325.33 4256.63,3324.66 4251.5,3323.5C 4243.22,3321.96 4234.72,3321.29 4226,3321.5C 4219.46,3321.5 4213.3,3322.17 4207.5,3323.5C 4207.17,3323.5 4206.83,3323.5 4206.5,3323.5C 4204.6,3323.8 4202.93,3324.46 4201.5,3325.5C 4194.18,3328.04 4186.84,3328.04 4179.5,3325.5C 4177.24,3323.62 4174.58,3322.62 4171.5,3322.5C 4170.09,3320.09 4168.09,3318.42 4165.5,3317.5C 4164.86,3315.21 4163.53,3313.54 4161.5,3312.5C 4160.33,3311.49 4159.66,3310.15 4159.5,3308.5C 4159.88,3306.3 4159.21,3304.64 4157.5,3303.5C 4155.5,3295.11 4156.5,3287.11 4160.5,3279.5C 4161.12,3279.39 4161.62,3279.06 4162,3278.5C 4162.5,3276.19 4162.66,3273.86 4162.5,3271.5C 4162.14,3233.63 4160.81,3195.8 4158.5,3158C 4158.49,3150.23 4159.49,3142.73 4161.5,3135.5C 4162.77,3133.09 4163.43,3130.43 4163.5,3127.5C 4166.16,3117.85 4170.16,3108.85 4175.5,3100.5C 4177.83,3098.82 4178.83,3096.49 4178.5,3093.5C 4179.65,3089.14 4179.65,3084.81 4178.5,3080.5C 4177.83,3077.83 4176.17,3076.17 4173.5,3075.5C 4169,3073.42 4164.67,3071.08 4160.5,3068.5C 4159.22,3067.07 4157.55,3066.4 4155.5,3066.5C 4152.84,3066.07 4150.51,3065.07 4148.5,3063.5C 4147.01,3061.72 4145.01,3061.05 4142.5,3061.5C 4140.9,3061.77 4139.57,3061.43 4138.5,3060.5C 4136.16,3058.96 4133.5,3058.29 4130.5,3058.5C 4127.72,3058.72 4125.05,3058.39 4122.5,3057.5C 4116.77,3055.72 4110.77,3054.72 4104.5,3054.5C 4102.21,3054.41 4100.21,3053.74 4098.5,3052.5C 4098.03,3051.09 4097.03,3050.43 4095.5,3050.5C 4092.44,3046.43 4088.77,3043.1 4084.5,3040.5C 4080.42,3038.81 4076.42,3037.15 4072.5,3035.5C 4071.01,3033.72 4069.01,3033.05 4066.5,3033.5C 4064.21,3033.41 4062.21,3032.74 4060.5,3031.5C 4057.68,3029.29 4054.35,3028.29 4050.5,3028.5C 4047.46,3026.99 4044.12,3026.32 4040.5,3026.5C 4036.76,3025.01 4032.76,3024.34 4028.5,3024.5C 4024.96,3024.69 4021.63,3024.02 4018.5,3022.5C 4018.03,3021.09 4017.03,3020.43 4015.5,3020.5C 4015.03,3019.09 4014.03,3018.43 4012.5,3018.5C 4010.74,3017.74 4009.74,3016.4 4009.5,3014.5C 4008.5,3011.5 4006.5,3009.5 4003.5,3008.5C 4003.03,3007.09 4002.03,3006.43 4000.5,3006.5C 3998.16,3003.84 3995.16,3002.5 3991.5,3002.5C 3991.5,3063.5 3991.5,3124.5 3991.5,3185.5C 3991.5,3263.83 3991.5,3342.17 3991.5,3420.5C 4016.38,3410.86 4042.04,3404.2 4068.5,3400.5C 4070.74,3400.79 4072.74,3400.46 4074.5,3399.5C 4107.49,3394.96 4141.16,3393.46 4175.5,3395C 4181.97,3397.47 4186.47,3401.97 4189,3408.5C 4207.83,3481.46 4206.83,3554.12 4186,3626.5C 4182.05,3634.31 4175.72,3638.64 4167,3639.5C 4149.62,3634.06 4132.12,3629.06 4114.5,3624.5C 4112.16,3622.96 4109.5,3622.29 4106.5,3622.5C 4084.83,3618.76 4063,3616.42 4041,3615.5C 4012.86,3614.93 3986.36,3621.09 3961.5,3634C 3945.41,3644.69 3935.74,3659.52 3932.5,3678.5C 3957.55,3678.03 3977.55,3687.69 3992.5,3707.5C 3992.43,3709.03 3993.09,3710.03 3994.5,3710.5C 4004.55,3724.46 4010.38,3740.13 4012,3757.5C 4014.92,3781.62 4011.26,3804.62 4001,3826.5C 3988.55,3845.24 3971.05,3856.4 3948.5,3860C 3940.54,3861.33 3932.54,3862.33 3924.5,3863C 3915.96,3864.54 3910.12,3869.37 3907,3877.5C 3906.67,3897.5 3906.33,3917.5 3906,3937.5C 3903.64,3954.38 3894.81,3966.55 3879.5,3974C 3862.63,3979.68 3845.63,3984.85 3828.5,3989.5C 3820.17,3989.5 3811.83,3989.5 3803.5,3989.5C 3803.5,4182.5 3803.5,4375.5 3803.5,4568.5C 3802.47,4571.19 3800.47,4572.69 3797.5,4573C 3785.5,4573.5 3773.5,4573.67 3761.5,4573.5C 3761.5,4577.83 3761.5,4582.17 3761.5,4586.5C 3730.5,4586.67 3699.5,4586.5 3668.5,4586C 3665.8,4585.31 3663.64,4583.81 3662,4581.5C 3660.1,4577.38 3659.27,4573.05 3659.5,4568.5C 3644.07,4568.57 3636.4,4560.74 3636.5,4545C 3636.79,4539 3637.96,4533.16 3640,4527.5C 3646.08,4513.68 3652.41,4500.02 3659,4486.5C 3659.5,4352.17 3659.67,4217.83 3659.5,4083.5C 3624.17,4083.5 3588.83,4083.5 3553.5,4083.5C 3553.5,4393.83 3553.5,4704.17 3553.5,5014.5C 3552.5,5084 3552.17,5153.66 3552.5,5223.5C 3545.83,5223.5 3539.17,5223.5 3532.5,5223.5C 3532.83,5153.66 3532.5,5084 3531.5,5014.5C 3531.5,4704.17 3531.5,4393.83 3531.5,4083.5C 3512.17,4083.5 3492.83,4083.5 3473.5,4083.5C 3459.01,4082.5 3444.34,4082.17 3429.5,4082.5C 3429.17,4217 3429.5,4351.33 3430.5,4485.5C 3437.24,4499.32 3443.74,4513.32 3450,4527.5C 3454.97,4539.04 3454.64,4550.38 3449,4561.5C 3444.29,4567.6 3438.13,4569.93 3430.5,4568.5C 3430.73,4573.05 3429.9,4577.38 3428,4581.5C 3426.36,4583.81 3424.2,4585.31 3421.5,4586C 3390.5,4586.5 3359.5,4586.67 3328.5,4586.5C 3328.5,4582.17 3328.5,4577.83 3328.5,4573.5C 3316.5,4573.67 3304.5,4573.5 3292.5,4573C 3289.53,4572.69 3287.53,4571.19 3286.5,4568.5C 3286.5,4375.5 3286.5,4182.5 3286.5,3989.5C 3278.17,3989.5 3269.83,3989.5 3261.5,3989.5C 3244.37,3984.85 3227.37,3979.68 3210.5,3974C 3195.2,3966.58 3186.37,3954.42 3184,3937.5C 3183.67,3917.5 3183.33,3897.5 3183,3877.5C 3179.88,3869.37 3174.04,3864.54 3165.5,3863C 3141.88,3862.57 3120.55,3855.57 3101.5,3842C 3087.5,3827.37 3079.67,3809.87 3078,3789.5C 3074.72,3763.75 3079.06,3739.42 3091,3716.5C 3092.28,3714.25 3093.78,3712.25 3095.5,3710.5C 3096.91,3710.03 3097.57,3709.03 3097.5,3707.5C 3112.75,3687.54 3133.09,3677.71 3158.5,3678C 3154.89,3660.91 3146.22,3647.08 3132.5,3636.5C 3132.03,3635.09 3131.03,3634.43 3129.5,3634.5C 3104.4,3621.24 3077.57,3614.91 3049,3615.5C 3008.52,3616.49 2969.36,3623.99 2931.5,3638C 2919.11,3641.72 2909.95,3637.89 2904,3626.5C 2883.17,3554.12 2882.17,3481.46 2901,3408.5C 2903.06,3403.11 2906.56,3398.95 2911.5,3396C 2960.96,3392.27 3009.3,3395.94 3056.5,3407C 3067.03,3409.73 3077.36,3413.07 3087.5,3417C 3089.44,3417.74 3091.27,3417.58 3093,3416.5C 3093.5,3364.83 3093.67,3313.17 3093.5,3261.5C 3093.83,3176.16 3093.5,3090.83 3092.5,3005.5C 3091.89,3005.62 3091.56,3005.96 3091.5,3006.5C 3086.01,3011.49 3080.68,3016.66 3075.5,3022C 3071.69,3023.77 3067.69,3024.61 3063.5,3024.5C 3057.43,3024.79 3051.43,3025.62 3045.5,3027C 3044.94,3027.38 3044.61,3027.88 3044.5,3028.5C 3043.5,3028.5 3042.5,3028.5 3041.5,3028.5C 3036.6,3028.47 3032.27,3029.8 3028.5,3032.5C 3021.48,3035.01 3014.48,3037.85 3007.5,3041C 3004.5,3044 3001.5,3047 2998.5,3050C 2995.27,3052.58 2991.61,3054.08 2987.5,3054.5C 2981.23,3054.72 2975.23,3055.72 2969.5,3057.5C 2960.79,3059.18 2952.12,3061.18 2943.5,3063.5C 2941.45,3063.4 2939.78,3064.07 2938.5,3065.5C 2935.76,3065.71 2933.43,3066.71 2931.5,3068.5C 2924.95,3071.37 2919.12,3075.37 2914,3080.5C 2912.18,3084.79 2912.18,3089.12 2914,3093.5C 2917.73,3101.96 2921.73,3110.29 2926,3118.5C 2927.14,3121.43 2927.98,3124.43 2928.5,3127.5C 2928.57,3130.43 2929.23,3133.09 2930.5,3135.5C 2932.51,3142.73 2933.51,3150.23 2933.5,3158C 2931.19,3195.8 2929.86,3233.63 2929.5,3271.5C 2929.34,3273.86 2929.5,3276.19 2930,3278.5C 2930.38,3279.06 2930.88,3279.39 2931.5,3279.5C 2935.5,3287.11 2936.5,3295.11 2934.5,3303.5C 2932.79,3304.64 2932.12,3306.3 2932.5,3308.5C 2932.25,3310.67 2931.25,3312.34 2929.5,3313.5C 2928.09,3313.97 2927.43,3314.97 2927.5,3316.5C 2926.83,3317.83 2925.83,3318.83 2924.5,3319.5C 2922.15,3320.34 2920.15,3321.67 2918.5,3323.5C 2916.21,3323.59 2914.21,3324.26 2912.5,3325.5C 2905.16,3328.04 2897.82,3328.04 2890.5,3325.5C 2888.35,3324.26 2886.02,3323.26 2883.5,3322.5C 2866.37,3323.07 2849.04,3323.9 2831.5,3325C 2823.44,3325.86 2815.77,3328.02 2808.5,3331.5C 2806.33,3331.75 2804.66,3332.75 2803.5,3334.5C 2803.5,3335.17 2803.17,3335.5 2802.5,3335.5C 2798.83,3337.17 2796.17,3339.83 2794.5,3343.5C 2794.5,3344.17 2794.17,3344.5 2793.5,3344.5C 2790.84,3346.84 2789.5,3349.84 2789.5,3353.5C 2787.27,3373.08 2786.27,3392.75 2786.5,3412.5C 2785.69,3420.14 2785.35,3427.8 2785.5,3435.5C 2785.54,3438.09 2784.54,3440.09 2782.5,3441.5C 2780.83,3442.5 2779.5,3443.83 2778.5,3445.5C 2777.84,3494.2 2777.17,3542.86 2776.5,3591.5C 2775.67,3609.33 2775.17,3627.33 2775,3645.5C 2775.06,3653.4 2773.89,3661.07 2771.5,3668.5C 2769.49,3673.21 2766.16,3676.54 2761.5,3678.5C 2759.18,3678.99 2757.18,3679.99 2755.5,3681.5C 2747.4,3683.16 2739.07,3684.16 2730.5,3684.5C 2725.64,3684.02 2720.64,3684.02 2715.5,3684.5C 2712.91,3684.46 2710.91,3685.46 2709.5,3687.5C 2704.82,3691.09 2699.82,3691.43 2694.5,3688.5C 2692.18,3687.06 2690.02,3687.39 2688,3689.5C 2687.42,3693.83 2686.92,3698.17 2686.5,3702.5C 2684.83,3703.5 2683.5,3704.83 2682.5,3706.5C 2661.83,3707.83 2641.17,3707.83 2620.5,3706.5C 2619.42,3704.41 2617.75,3703.08 2615.5,3702.5C 2614.33,3701.49 2613.66,3700.15 2613.5,3698.5C 2612.95,3694.95 2610.95,3692.61 2607.5,3691.5C 2605.39,3690.53 2603.06,3690.2 2600.5,3690.5C 2598.1,3690.74 2596.1,3690.07 2594.5,3688.5C 2592.12,3685.45 2589.45,3682.79 2586.5,3680.5C 2585.26,3679.04 2584.26,3677.37 2583.5,3675.5C 2583.5,3673.5 2582.5,3672.5 2580.5,3672.5C 2578.6,3672.2 2576.93,3671.54 2575.5,3670.5C 2575.03,3669.09 2574.03,3668.43 2572.5,3668.5C 2571.5,3667.32 2570.66,3665.98 2570,3664.5C 2569.33,3651.17 2569.33,3637.83 2570,3624.5C 2571.08,3621.92 2572.91,3620.25 2575.5,3619.5C 2577.83,3619.17 2579.17,3617.83 2579.5,3615.5C 2580.12,3615.39 2580.62,3615.06 2581,3614.5C 2581.83,3440.67 2581.67,3267 2580.5,3093.5C 2579.67,3026 2579.17,2958.33 2579,2890.5C 2578,2888.68 2576.84,2887.01 2575.5,2885.5C 2573.82,2883.17 2571.49,2882.17 2568.5,2882.5C 2568.17,2882.5 2567.83,2882.5 2567.5,2882.5C 2566.49,2881.33 2565.15,2880.66 2563.5,2880.5C 2562.83,2879.17 2561.83,2878.17 2560.5,2877.5C 2559.88,2862.03 2559.21,2846.69 2558.5,2831.5C 2558.33,2827.15 2558.5,2822.82 2559,2818.5C 2560.17,2817.33 2561.33,2816.17 2562.5,2815C 2570.22,2814.23 2575.72,2810.4 2579,2803.5C 2579.33,2796.83 2579.67,2790.17 2580,2783.5C 2580.83,2358.64 2580.67,1933.81 2579.5,1509C 2581.09,1467.99 2584.76,1427.15 2590.5,1386.5C 2592.22,1383.16 2592.88,1379.49 2592.5,1375.5C 2600.32,1320.41 2611.32,1266.07 2625.5,1212.5C 2626.92,1210.49 2627.59,1208.15 2627.5,1205.5C 2664.59,1055.61 2726.09,916.94 2812,789.5C 2846.83,738.818 2886.66,692.152 2931.5,649.5C 2935.1,647.57 2938.1,644.903 2940.5,641.5C 3049.54,538.962 3177.88,471.462 3325.5,439C 3345.35,434.53 3365.35,431.03 3385.5,428.5C 3389.49,428.884 3393.16,428.217 3396.5,426.5C 3434.29,420.974 3472.29,417.974 3510.5,417.5C 3523.19,417.682 3535.85,417.349 3548.5,416.5 Z M 2930.5,838.5 C 2962.04,837.049 2990.71,845.215 3016.5,863C 3018.35,864.684 3020.02,866.517 3021.5,868.5C 3004.72,887.452 2987.38,905.952 2969.5,924C 2968.5,924.667 2967.5,924.667 2966.5,924C 2962.84,920.837 2958.84,918.171 2954.5,916C 2946.37,913.095 2938.21,910.928 2930,909.5C 2929.27,886.159 2928.44,862.826 2927.5,839.5C 2928.79,839.737 2929.79,839.404 2930.5,838.5 Z M 4140.5,838.5 C 4146.2,838.375 4151.87,838.708 4157.5,839.5C 4156.56,862.826 4155.73,886.159 4155,909.5C 4141.06,911.148 4128.4,916.148 4117,924.5C 4098.32,906.656 4080.49,887.989 4063.5,868.5C 4079.53,853.489 4098.53,844.323 4120.5,841C 4127.32,840.188 4133.99,839.354 4140.5,838.5 Z M 2914.5,840.5 C 2916.06,842.156 2917.06,844.156 2917.5,846.5C 2917.63,868.526 2918.3,890.526 2919.5,912.5C 2900.7,916.986 2887.2,927.986 2879,945.5C 2857.21,938.926 2835.37,932.426 2813.5,926C 2829.67,883.827 2859.34,856.16 2902.5,843C 2906.51,842.163 2910.51,841.329 2914.5,840.5 Z M 4169.5,840.5 C 4210.36,848.004 4241.19,869.671 4262,905.5C 4265.56,912.181 4268.72,919.014 4271.5,926C 4249.63,932.426 4227.79,938.926 4206,945.5C 4197.8,927.986 4184.3,916.986 4165.5,912.5C 4166.7,890.524 4167.37,868.524 4167.5,846.5C 4168.17,844.5 4168.83,842.5 4169.5,840.5 Z M 2839.5,858.5 C 2839.17,858.5 2838.83,858.5 2838.5,858.5C 2840.17,855.895 2840.5,855.895 2839.5,858.5 Z M 4246.5,858.5 C 4246.17,858.5 4245.83,858.5 4245.5,858.5C 4244.5,855.895 4244.83,855.895 4246.5,858.5 Z M 3059.5,975.5 C 3059.06,977.844 3058.06,979.844 3056.5,981.5C 3033.23,976.245 3009.89,971.245 2986.5,966.5C 2986.57,953.536 2982.57,942.036 2974.5,932C 2992.33,912.833 3010.17,893.667 3028,874.5C 3044.44,893.739 3054.11,916.073 3057,941.5C 3057.98,952.838 3058.82,964.172 3059.5,975.5 Z M 4028.5,981.5 C 4026.94,979.844 4025.94,977.844 4025.5,975.5C 4024.92,947.552 4030.42,920.885 4042,895.5C 4046.22,887.943 4051.22,880.943 4057,874.5C 4074.83,893.667 4092.67,912.833 4110.5,932C 4102.43,942.036 4098.43,953.536 4098.5,966.5C 4075.11,971.245 4051.77,976.245 4028.5,981.5 Z M 3528.5,887.5 C 3530.83,887.5 3533.17,887.5 3535.5,887.5C 3535.5,1264.5 3535.5,1641.5 3535.5,2018.5C 3451.88,2018.56 3371.21,2033.89 3293.5,2064.5C 3277.23,1989.31 3251.4,1917.65 3216,1849.5C 3202.9,1826.41 3188.24,1804.41 3172,1783.5C 3069.56,1667.16 3022.56,1531.16 3031,1375.5C 3044.42,1241.18 3098.26,1126.35 3192.5,1031C 3287.21,943.498 3399.21,895.664 3528.5,887.5 Z M 3547.5,887.5 C 3689.24,893.974 3809.74,947.307 3909,1047.5C 4022.4,1174.73 4069.4,1323.4 4050,1493.5C 4035.97,1583.32 4002.63,1664.99 3950,1738.5C 3929.23,1763.93 3909.23,1789.93 3890,1816.5C 3861.77,1859.47 3839.43,1905.47 3823,1954.5C 3810.57,1990.64 3800.07,2027.3 3791.5,2064.5C 3713.15,2033.63 3631.81,2018.3 3547.5,2018.5C 3547.5,1641.5 3547.5,1264.5 3547.5,887.5 Z M 2924.5,920.5 C 2960.01,921.175 2977.18,939.175 2976,974.5C 2969.38,1001.45 2952.22,1014.28 2924.5,1013C 2897.17,1006.19 2884.01,988.689 2885,960.5C 2889.68,938.653 2902.85,925.32 2924.5,920.5 Z M 4147.5,920.5 C 4182.3,921.137 4199.8,938.804 4200,973.5C 4193.19,1000.83 4175.69,1013.99 4147.5,1013C 4126.05,1008.88 4113.21,996.045 4109,974.5C 4106.88,945.716 4119.71,927.716 4147.5,920.5 Z M 2839.5,1051.5 C 2838.39,1051.44 2837.39,1051.11 2836.5,1050.5C 2815.44,1026.83 2805.78,999.001 2807.5,967C 2807.21,957.392 2808.05,947.892 2810,938.5C 2810.52,937.484 2811.35,936.818 2812.5,936.5C 2833.46,942.489 2854.46,948.322 2875.5,954C 2872.67,973.69 2877.67,991.19 2890.5,1006.5C 2873.16,1021.18 2856.16,1036.18 2839.5,1051.5 Z M 4270.5,936.5 C 4271.98,936.238 4273.31,936.571 4274.5,937.5C 4278.3,957.766 4278.47,978.1 4275,998.5C 4271.23,1019.39 4261.73,1037.06 4246.5,1051.5C 4229.17,1036.5 4211.83,1021.5 4194.5,1006.5C 4207.33,991.19 4212.33,973.69 4209.5,954C 4230.09,948.608 4250.42,942.775 4270.5,936.5 Z M 2987.5,977.5 C 3010.83,982.499 3034.16,987.499 3057.5,992.5C 3055.03,1014.11 3048.53,1034.44 3038,1053.5C 3025.13,1076.59 3010.3,1098.26 2993.5,1118.5C 2969.89,1102.89 2946.56,1086.89 2923.5,1070.5C 2952.72,1044.94 2974.05,1013.94 2987.5,977.5 Z M 4095.5,977.5 C 4097.02,977.511 4098.18,978.177 4099,979.5C 4111.91,1015.33 4132.74,1045.67 4161.5,1070.5C 4138.44,1086.89 4115.11,1102.89 4091.5,1118.5C 4075.28,1098.76 4060.78,1077.76 4048,1055.5C 4037.14,1035.78 4030.3,1014.78 4027.5,992.5C 4050.35,987.785 4073.02,982.785 4095.5,977.5 Z M 2954.5,1018.5 C 2947.59,1030.59 2938.92,1041.43 2928.5,1051C 2914.93,1062.41 2900.93,1073.24 2886.5,1083.5C 2871.03,1077.27 2857.03,1068.77 2844.5,1058C 2862.13,1043.37 2879.46,1028.37 2896.5,1013C 2897.5,1012.33 2898.5,1012.33 2899.5,1013C 2912.2,1021.67 2926.2,1024.67 2941.5,1022C 2945.82,1020.72 2950.16,1019.56 2954.5,1018.5 Z M 4130.5,1018.5 C 4146.22,1024 4161.89,1023.83 4177.5,1018C 4180.43,1016.73 4183.1,1015.06 4185.5,1013C 4186.5,1012.33 4187.5,1012.33 4188.5,1013C 4205.54,1028.37 4222.87,1043.37 4240.5,1058C 4227.97,1068.77 4213.97,1077.27 4198.5,1083.5C 4177.71,1069.88 4158.87,1053.88 4142,1035.5C 4137.65,1030.12 4133.82,1024.45 4130.5,1018.5 Z M 2914.5,1078.5 C 2939.04,1094.03 2963.04,1110.37 2986.5,1127.5C 2954.09,1167.74 2922.26,1208.4 2891,1249.5C 2858.42,1231.79 2825.92,1213.96 2793.5,1196C 2830.83,1153.5 2871.16,1114.33 2914.5,1078.5 Z M 4168.5,1078.5 C 4213.1,1113.59 4254.1,1152.76 4291.5,1196C 4259.08,1213.96 4226.58,1231.79 4194,1249.5C 4162.74,1208.4 4130.91,1167.74 4098.5,1127.5C 4121.85,1111.14 4145.18,1094.81 4168.5,1078.5 Z M 2870.5,1283.5 C 2869.09,1283.97 2868.43,1284.97 2868.5,1286.5C 2851.97,1313.75 2839.3,1342.75 2830.5,1373.5C 2829.08,1375.51 2828.41,1377.85 2828.5,1380.5C 2827.08,1382.51 2826.41,1384.85 2826.5,1387.5C 2821.24,1405.02 2817.91,1423.02 2816.5,1441.5C 2814.96,1447.94 2814.29,1454.6 2814.5,1461.5C 2813.83,1468.17 2813.17,1474.83 2812.5,1481.5C 2812.17,1481.5 2811.83,1481.5 2811.5,1481.5C 2759.67,1480.5 2707.67,1480.17 2655.5,1480.5C 2655.5,1479.5 2655.5,1478.5 2655.5,1477.5C 2668.32,1405.21 2694.49,1338.21 2734,1276.5C 2750.11,1251.95 2767.44,1228.28 2786,1205.5C 2818.91,1223.37 2851.75,1241.37 2884.5,1259.5C 2879.38,1267.28 2874.71,1275.28 2870.5,1283.5 Z M 4429.5,1477.5 C 4429.5,1478.5 4429.5,1479.5 4429.5,1480.5C 4377.33,1480.17 4325.33,1480.5 4273.5,1481.5C 4271.85,1475.06 4270.85,1468.4 4270.5,1461.5C 4270.71,1454.6 4270.04,1447.94 4268.5,1441.5C 4267.09,1423.02 4263.76,1405.02 4258.5,1387.5C 4258.59,1384.85 4257.92,1382.51 4256.5,1380.5C 4256.28,1376.84 4255.28,1373.5 4253.5,1370.5C 4244.96,1340.77 4232.63,1312.77 4216.5,1286.5C 4216.57,1284.97 4215.91,1283.97 4214.5,1283.5C 4210.29,1275.28 4205.62,1267.28 4200.5,1259.5C 4233.25,1241.37 4266.09,1223.37 4299,1205.5C 4360.49,1277.82 4402.49,1360.48 4425,1453.5C 4426.61,1461.5 4428.11,1469.5 4429.5,1477.5 Z M 3275.5,1230.5 C 3364.86,1228.84 3424.2,1270.17 3453.5,1354.5C 3430.83,1361.83 3407.83,1368.17 3384.5,1373.5C 3374.89,1343.44 3355.56,1322.28 3326.5,1310C 3321.83,1308.67 3317.17,1307.33 3312.5,1306C 3301.23,1304.59 3290.07,1304.09 3279,1304.5C 3274.54,1280.55 3269.71,1256.72 3264.5,1233C 3268.24,1231.99 3271.91,1231.15 3275.5,1230.5 Z M 3248.5,1236.5 C 3249.17,1237.17 3249.83,1237.83 3250.5,1238.5C 3254.7,1261.52 3259.04,1284.52 3263.5,1307.5C 3263.44,1308.61 3263.11,1309.61 3262.5,1310.5C 3236.03,1320.8 3217.2,1339.14 3206,1365.5C 3198.75,1384.25 3196.59,1403.59 3199.5,1423.5C 3192.5,1424.25 3185.83,1425.92 3179.5,1428.5C 3176.85,1428.41 3174.51,1429.08 3172.5,1430.5C 3160.58,1432.93 3148.91,1435.93 3137.5,1439.5C 3135.14,1439.67 3132.81,1440.01 3130.5,1440.5C 3123.81,1394 3131.97,1350.33 3155,1309.5C 3177.89,1274.48 3209.06,1250.15 3248.5,1236.5 Z M 3822.5,1251.5 C 3823.11,1252.39 3823.44,1253.39 3823.5,1254.5C 3823.5,1254.83 3823.5,1255.17 3823.5,1255.5C 3822.08,1257.51 3821.41,1259.85 3821.5,1262.5C 3816.71,1281.11 3812.04,1299.78 3807.5,1318.5C 3799.12,1317.26 3790.78,1317.26 3782.5,1318.5C 3779.5,1318.29 3776.84,1318.96 3774.5,1320.5C 3752.1,1326.97 3734.94,1340.3 3723,1360.5C 3718.86,1367.79 3715.53,1375.45 3713,1383.5C 3710.97,1383.99 3708.81,1383.99 3706.5,1383.5C 3704.04,1382.47 3701.37,1381.8 3698.5,1381.5C 3683.71,1378.3 3669.04,1374.8 3654.5,1371C 3666.27,1332.25 3687.93,1300.25 3719.5,1275C 3751.02,1254.03 3785.35,1246.2 3822.5,1251.5 Z M 3851.5,1262.5 C 3851.97,1263.91 3852.97,1264.57 3854.5,1264.5C 3896.58,1290.82 3920.75,1328.82 3927,1378.5C 3928.34,1393.8 3928.84,1409.13 3928.5,1424.5C 3928.08,1427.16 3927.08,1429.49 3925.5,1431.5C 3906.81,1427.63 3888.14,1423.63 3869.5,1419.5C 3873.44,1387.06 3864.11,1359.23 3841.5,1336C 3835.95,1331.4 3829.95,1327.56 3823.5,1324.5C 3822.71,1323.6 3821.71,1322.93 3820.5,1322.5C 3825.85,1300.42 3831.52,1278.42 3837.5,1256.5C 3842.19,1258.51 3846.85,1260.51 3851.5,1262.5 Z M 3453.5,1372.5 C 3455.17,1372.5 3456.83,1372.5 3458.5,1372.5C 3464,1417.83 3455.83,1460.5 3434,1500.5C 3409.38,1538.07 3375.54,1563.4 3332.5,1576.5C 3328.09,1552.8 3323.43,1529.13 3318.5,1505.5C 3362.66,1487.96 3386.66,1455.29 3390.5,1407.5C 3390.2,1402.07 3389.54,1396.57 3388.5,1391C 3410.21,1384.76 3431.88,1378.6 3453.5,1372.5 Z M 3651.5,1387.5 C 3653.81,1387.99 3656.14,1388.33 3658.5,1388.5C 3669.31,1391.62 3680.31,1393.95 3691.5,1395.5C 3693.51,1396.92 3695.85,1397.59 3698.5,1397.5C 3701.82,1398.33 3705.15,1399.16 3708.5,1400C 3704.52,1434.73 3715.19,1464.07 3740.5,1488C 3742.39,1489.39 3744.39,1490.56 3746.5,1491.5C 3746.97,1492.91 3747.97,1493.57 3749.5,1493.5C 3753.42,1496.29 3757.75,1498.29 3762.5,1499.5C 3761,1506.48 3759.67,1513.48 3758.5,1520.5C 3757.08,1522.51 3756.41,1524.85 3756.5,1527.5C 3753.11,1538.57 3750.28,1549.9 3748,1561.5C 3747.64,1563.42 3746.81,1565.09 3745.5,1566.5C 3696.05,1546.21 3665.55,1509.87 3654,1457.5C 3649.26,1434.3 3648.43,1410.96 3651.5,1387.5 Z M 3776.5,1503.5 C 3783.17,1503.67 3789.84,1503.5 3796.5,1503C 3798.38,1502.8 3800.05,1502.3 3801.5,1501.5C 3824.87,1495.57 3842.7,1482.23 3855,1461.5C 3859.81,1452.88 3863.81,1443.88 3867,1434.5C 3886.15,1439.25 3905.32,1443.91 3924.5,1448.5C 3913.02,1487.32 3891.69,1519.49 3860.5,1545C 3830.37,1565.7 3797.03,1574.2 3760.5,1570.5C 3765.05,1547.99 3770.38,1525.65 3776.5,1503.5 Z M 3201.5,1439.5 C 3202.5,1439.5 3203.5,1439.5 3204.5,1439.5C 3212.22,1464.4 3227.55,1483.23 3250.5,1496C 3267.05,1504.29 3284.55,1508.12 3303,1507.5C 3307.68,1531.41 3312.51,1555.24 3317.5,1579C 3239.24,1585.39 3182.07,1553.89 3146,1484.5C 3141.76,1475.72 3138.43,1466.72 3136,1457.5C 3157.84,1451.16 3179.67,1445.16 3201.5,1439.5 Z M 2812.5,1491.5 C 2813.17,1495.83 2813.83,1500.17 2814.5,1504.5C 2815.11,1521.04 2817.11,1537.37 2820.5,1553.5C 2820.88,1558.09 2821.88,1562.43 2823.5,1566.5C 2827.6,1585.62 2833.6,1604.12 2841.5,1622C 2789.01,1657.75 2736.34,1693.25 2683.5,1728.5C 2653.65,1652.37 2643.65,1573.7 2653.5,1492.5C 2706.57,1492.83 2759.57,1492.5 2812.5,1491.5 Z M 4273.5,1491.5 C 4326,1492.5 4378.66,1492.83 4431.5,1492.5C 4441.35,1573.7 4431.35,1652.37 4401.5,1728.5C 4348.66,1693.25 4295.99,1657.75 4243.5,1622C 4250.87,1605.4 4256.53,1588.23 4260.5,1570.5C 4261.61,1568.4 4262.28,1566.07 4262.5,1563.5C 4262.5,1563.17 4262.5,1562.83 4262.5,1562.5C 4263.66,1559.73 4264.32,1556.73 4264.5,1553.5C 4267.1,1541.67 4268.76,1529.67 4269.5,1517.5C 4270.17,1508.6 4271.51,1499.93 4273.5,1491.5 Z M 2845.5,1633.5 C 2870.64,1681.51 2903.31,1724.01 2943.5,1761C 2900.3,1816.56 2857.47,1872.4 2815,1928.5C 2812.72,1931.4 2810.22,1934.07 2807.5,1936.5C 2757.91,1877.38 2717.91,1812.05 2687.5,1740.5C 2740.23,1704.81 2792.9,1669.14 2845.5,1633.5 Z M 4238.5,1633.5 C 4291.64,1668.91 4344.64,1704.58 4397.5,1740.5C 4367.09,1812.05 4327.09,1877.38 4277.5,1936.5C 4274.78,1934.07 4272.28,1931.4 4270,1928.5C 4227.53,1872.4 4184.7,1816.56 4141.5,1761C 4181.73,1724.31 4214.06,1681.81 4238.5,1633.5 Z M 2951.5,1769.5 C 2995.06,1804.31 3042.06,1834.14 3092.5,1859C 3105.52,1865.35 3118.86,1870.85 3132.5,1875.5C 3119.28,1931.71 3105.45,1987.71 3091,2043.5C 3049.79,2018.87 3005.29,2003.37 2957.5,1997C 2924.55,1993.18 2891.55,1992.51 2858.5,1995C 2844.3,1979.8 2830.46,1964.3 2817,1948.5C 2816.33,1947.17 2816.33,1945.83 2817,1944.5C 2862.05,1886.29 2906.88,1827.96 2951.5,1769.5 Z M 4131.5,1769.5 C 4133.02,1769.51 4134.18,1770.18 4135,1771.5C 4179.33,1829.17 4223.67,1886.83 4268,1944.5C 4268.67,1945.83 4268.67,1947.17 4268,1948.5C 4254.54,1964.3 4240.7,1979.8 4226.5,1995C 4149.5,1986.9 4076.5,2000.23 4007.5,2035C 4003.08,2037.96 3998.58,2040.79 3994,2043.5C 3979.55,1987.71 3965.72,1931.71 3952.5,1875.5C 4018.4,1850.07 4078.07,1814.74 4131.5,1769.5 Z M 3143.5,1880.5 C 3167.05,1889.1 3191.22,1895.1 3216,1898.5C 3240.26,1954.78 3259.43,2012.78 3273.5,2072.5C 3257.9,2080.64 3242.23,2088.8 3226.5,2097C 3211.91,2105.21 3197.75,2114.04 3184,2123.5C 3171.62,2108.91 3158.46,2095.08 3144.5,2082C 3130.73,2070.54 3116.73,2059.54 3102.5,2049C 3116.41,1992.87 3130.07,1936.71 3143.5,1880.5 Z M 3939.5,1880.5 C 3940.93,1880.88 3941.76,1881.88 3942,1883.5C 3955.42,1938.69 3968.92,1993.85 3982.5,2049C 3960.89,2064.59 3940.39,2081.76 3921,2100.5C 3913.96,2107.87 3907.29,2115.54 3901,2123.5C 3887.25,2114.04 3873.09,2105.21 3858.5,2097C 3842.77,2088.8 3827.1,2080.64 3811.5,2072.5C 3825.57,2012.78 3844.74,1954.78 3869,1898.5C 3893.31,1895.38 3916.81,1889.38 3939.5,1880.5 Z M 2877.5,2012.5 C 2887.85,2012.17 2898.19,2012.5 2908.5,2013.5C 2896.63,2066.21 2884.63,2118.87 2872.5,2171.5C 2846.11,2162.63 2819.11,2160.13 2791.5,2164C 2784.33,2165.84 2777.33,2167.84 2770.5,2170C 2751.63,2139.75 2732.63,2109.58 2713.5,2079.5C 2748.41,2049 2788.74,2028.83 2834.5,2019C 2848.87,2016.11 2863.21,2013.95 2877.5,2012.5 Z M 2919.5,2012.5 C 2992.67,2014.38 3058,2037.55 3115.5,2082C 3066.37,2142.45 3017.37,2202.95 2968.5,2263.5C 2952.58,2222.75 2924.58,2193.58 2884.5,2176C 2883.94,2175.28 2883.61,2174.44 2883.5,2173.5C 2895.5,2119.81 2907.5,2066.15 2919.5,2012.5 Z M 4157.5,2012.5 C 4160.71,2012.01 4163.54,2012.68 4166,2014.5C 4177.77,2067.51 4189.6,2120.51 4201.5,2173.5C 4201.39,2174.44 4201.06,2175.28 4200.5,2176C 4160.42,2193.58 4132.42,2222.75 4116.5,2263.5C 4067.63,2202.95 4018.63,2142.45 3969.5,2082C 4024.89,2039.49 4087.56,2016.32 4157.5,2012.5 Z M 4176.5,2012.5 C 4244.27,2010.18 4305.27,2029.01 4359.5,2069C 4363.65,2072.31 4367.65,2075.81 4371.5,2079.5C 4352.37,2109.58 4333.37,2139.75 4314.5,2170C 4306.75,2167.37 4298.75,2165.2 4290.5,2163.5C 4263.87,2160.24 4237.87,2162.9 4212.5,2171.5C 4200.25,2118.56 4188.25,2065.56 4176.5,2012.5 Z M 3516.5,2081.5 C 3521.5,2081.5 3526.5,2081.5 3531.5,2081.5C 3531.5,2215.83 3531.5,2350.17 3531.5,2484.5C 3490.76,2485.1 3452.42,2494.94 3416.5,2514C 3385.62,2531.88 3362.79,2557.04 3348,2589.5C 3347.93,2470 3340.26,2351 3325,2232.5C 3320.53,2199.16 3315.03,2165.99 3308.5,2133C 3309.52,2130.97 3311.19,2129.64 3313.5,2129C 3378.36,2100.73 3446.03,2084.9 3516.5,2081.5 Z M 3553.5,2081.5 C 3629.38,2082.8 3702.05,2098.64 3771.5,2129C 3773.81,2129.64 3775.48,2130.97 3776.5,2133C 3756.19,2242.59 3744.02,2353.09 3740,2464.5C 3738.42,2506.15 3737.42,2547.82 3737,2589.5C 3718.32,2549.82 3688.82,2521.32 3648.5,2504C 3618,2491.93 3586.33,2485.43 3553.5,2484.5C 3553.5,2350.17 3553.5,2215.83 3553.5,2081.5 Z M 2704.5,2087.5 C 2724.1,2116.51 2743.1,2146.01 2761.5,2176C 2732.43,2196.98 2719.1,2225.48 2721.5,2261.5C 2693.5,2261.5 2665.5,2261.5 2637.5,2261.5C 2635.4,2193.76 2657.73,2135.76 2704.5,2087.5 Z M 4379.5,2087.5 C 4415.8,2122.46 4437.64,2165.12 4445,2215.5C 4447.03,2230.77 4447.86,2246.1 4447.5,2261.5C 4419.5,2261.5 4391.5,2261.5 4363.5,2261.5C 4365.9,2225.48 4352.57,2196.98 4323.5,2176C 4342.05,2146.39 4360.72,2116.89 4379.5,2087.5 Z M 3123.5,2088.5 C 3140.15,2101.81 3155.15,2116.81 3168.5,2133.5C 3089.83,2191.32 3025,2261.66 2974,2344.5C 2974.98,2334.87 2976.14,2325.21 2977.5,2315.5C 2976.06,2302.11 2974.56,2288.78 2973,2275.5C 3023.38,2213.29 3073.55,2150.96 3123.5,2088.5 Z M 3960.5,2088.5 C 4011.14,2150.64 4061.64,2212.98 4112,2275.5C 4110.44,2288.78 4108.94,2302.11 4107.5,2315.5C 4108.86,2325.21 4110.02,2334.87 4111,2344.5C 4060,2261.66 3995.17,2191.32 3916.5,2133.5C 3929.85,2117.15 3944.51,2102.15 3960.5,2088.5 Z M 3322.5,2456.5 C 3322.17,2456.5 3321.83,2456.5 3321.5,2456.5C 3308.54,2377.99 3285.37,2302.66 3252,2230.5C 3243.34,2213.18 3234.18,2196.18 3224.5,2179.5C 3244.43,2165.28 3265.43,2152.61 3287.5,2141.5C 3306.99,2245.6 3318.66,2350.6 3322.5,2456.5 Z M 3763.5,2456.5 C 3762.66,2456.16 3762.33,2455.49 3762.5,2454.5C 3766.49,2349.28 3778.15,2244.95 3797.5,2141.5C 3819.57,2152.61 3840.57,2165.28 3860.5,2179.5C 3823.06,2244.41 3795.56,2313.41 3778,2386.5C 3772.2,2409.65 3767.37,2432.98 3763.5,2456.5 Z M 2803.5,2179.5 C 2844.62,2178.81 2870.79,2198.14 2882,2237.5C 2887.21,2273.91 2873.71,2300.74 2841.5,2318C 2806.01,2331.17 2776.17,2323.34 2752,2294.5C 2734,2266.17 2734,2237.83 2752,2209.5C 2765.26,2192.63 2782.42,2182.63 2803.5,2179.5 Z M 4267.5,2179.5 C 4304.3,2178.83 4329.47,2195.5 4343,2229.5C 4352.12,2266.74 4340.62,2295.57 4308.5,2316C 4274.77,2331.06 4244.94,2325.56 4219,2299.5C 4199.57,2274.06 4196.57,2246.73 4210,2217.5C 4222.97,2195.35 4242.14,2182.68 4267.5,2179.5 Z M 3324.5,2655.5 C 3325.17,2973.84 3324.5,3291.84 3322.5,3609.5C 3316.04,3604.88 3309.71,3600.05 3303.5,3595C 3298.06,3590.23 3294.23,3584.4 3292,3577.5C 3290.67,3562.65 3287.84,3548.15 3283.5,3534C 3246.24,3520.79 3212.74,3501.29 3183,3475.5C 3182.67,3257.83 3182.33,3040.17 3182,2822.5C 3179.91,2727.18 3164.24,2634.18 3135,2543.5C 3113.73,2479.74 3079.89,2423.91 3033.5,2376C 3080.52,2303.31 3139.02,2241.14 3209,2189.5C 3239.35,2239.21 3262.35,2292.21 3278,2348.5C 3306.5,2448.86 3322,2551.19 3324.5,2655.5 Z M 4051.5,2375.5 C 4050.25,2378.09 4048.58,2380.43 4046.5,2382.5C 4019.47,2409.22 3997.3,2439.55 3980,2473.5C 3951.19,2532.59 3931.19,2594.59 3920,2659.5C 3910.31,2713.41 3904.64,2767.74 3903,2822.5C 3902.67,3041.83 3902.33,3261.17 3902,3480.5C 3873.39,3503.89 3841.55,3521.73 3806.5,3534C 3802.16,3548.15 3799.33,3562.65 3798,3577.5C 3795.77,3584.4 3791.94,3590.23 3786.5,3595C 3781.21,3598.62 3776.21,3602.62 3771.5,3607C 3768.02,3608.83 3764.52,3610.66 3761,3612.5C 3760.33,3282.83 3760.33,2953.17 3761,2623.5C 3766.43,2526.6 3782.76,2431.6 3810,2338.5C 3825.77,2285.97 3847.77,2236.31 3876,2189.5C 3945.8,2241.13 4004.3,2303.13 4051.5,2375.5 Z M 2878.5,2193.5 C 2911.51,2208.49 2934.84,2232.83 2948.5,2266.5C 2931.67,2267.5 2914.67,2267.83 2897.5,2267.5C 2901.62,2240.32 2895.29,2215.99 2878.5,2194.5C 2878.5,2194.17 2878.5,2193.83 2878.5,2193.5 Z M 4206.5,2193.5 C 4206.5,2193.83 4206.5,2194.17 4206.5,2194.5C 4189.71,2215.99 4183.38,2240.32 4187.5,2267.5C 4170.33,2267.83 4153.33,2267.5 4136.5,2266.5C 4150.16,2232.83 4173.49,2208.49 4206.5,2193.5 Z M 2765.5,2329.5 C 2766.11,2330.39 2766.44,2331.39 2766.5,2332.5C 2743.78,2360.92 2721.28,2389.58 2699,2418.5C 2676.51,2396.54 2660.35,2370.54 2650.5,2340.5C 2649.87,2337.6 2648.87,2334.94 2647.5,2332.5C 2642.54,2312.83 2639.54,2292.83 2638.5,2272.5C 2666.84,2272.17 2695.17,2272.5 2723.5,2273.5C 2729.78,2298.11 2743.78,2316.78 2765.5,2329.5 Z M 4437.5,2332.5 C 4436.13,2334.94 4435.13,2337.6 4434.5,2340.5C 4424.65,2370.54 4408.49,2396.54 4386,2418.5C 4363.5,2389.5 4341,2360.5 4318.5,2331.5C 4340.44,2317.88 4354.78,2298.55 4361.5,2273.5C 4389.83,2272.5 4418.16,2272.17 4446.5,2272.5C 4445.46,2292.83 4442.46,2312.83 4437.5,2332.5 Z M 2951.5,2352.5 C 2950.08,2354.51 2949.41,2356.85 2949.5,2359.5C 2941.45,2384.27 2928.28,2405.94 2910,2424.5C 2889.92,2394 2870.08,2363.34 2850.5,2332.5C 2872.76,2320.62 2887.43,2302.62 2894.5,2278.5C 2913.74,2278.17 2932.91,2278.51 2952,2279.5C 2956.2,2295.57 2957.53,2311.9 2956,2328.5C 2954.3,2336.48 2952.8,2344.48 2951.5,2352.5 Z M 4135.5,2359.5 C 4135.59,2356.85 4134.92,2354.51 4133.5,2352.5C 4128.38,2332.41 4127.21,2312.08 4130,2291.5C 4130.69,2287.42 4131.69,2283.42 4133,2279.5C 4152.09,2278.51 4171.26,2278.17 4190.5,2278.5C 4197.57,2302.62 4212.24,2320.62 4234.5,2332.5C 4214.92,2363.34 4195.08,2394 4175,2424.5C 4156.72,2405.94 4143.55,2384.27 4135.5,2359.5 Z M 2776.5,2335.5 C 2797.56,2343.07 2818.73,2343.4 2840,2336.5C 2860.5,2368.33 2881,2400.17 2901.5,2432C 2875.02,2453.83 2844.52,2464.33 2810,2463.5C 2771.22,2464.02 2737.22,2451.69 2708,2426.5C 2707.33,2425.83 2707.33,2425.17 2708,2424.5C 2731.07,2394.94 2753.91,2365.27 2776.5,2335.5 Z M 4258.5,2463.5 C 4255,2462.6 4251.34,2461.93 4247.5,2461.5C 4223.48,2457.32 4202.15,2447.49 4183.5,2432C 4204,2400.17 4224.5,2368.33 4245,2336.5C 4260.82,2341.68 4276.99,2342.85 4293.5,2340C 4298.37,2339.12 4303.04,2337.62 4307.5,2335.5C 4331.22,2365.21 4354.55,2395.21 4377.5,2425.5C 4343.55,2455.25 4303.89,2467.92 4258.5,2463.5 Z M 3523.5,2496.5 C 3526.17,2496.5 3528.83,2496.5 3531.5,2496.5C 3531.5,2604.17 3531.5,2711.83 3531.5,2819.5C 3469.83,2819.5 3408.17,2819.5 3346.5,2819.5C 3346.33,2758.17 3346.5,2696.83 3347,2635.5C 3357.62,2576.88 3390.45,2536.04 3445.5,2513C 3470.83,2503.7 3496.83,2498.2 3523.5,2496.5 Z M 3553.5,2496.5 C 3593.38,2496.97 3630.71,2506.8 3665.5,2526C 3706.04,2551.57 3730.21,2588.07 3738,2635.5C 3738.5,2696.83 3738.67,2758.17 3738.5,2819.5C 3676.83,2819.5 3615.17,2819.5 3553.5,2819.5C 3553.5,2711.83 3553.5,2604.17 3553.5,2496.5 Z M 3346.5,2831.5 C 3408.17,2831.5 3469.83,2831.5 3531.5,2831.5C 3531.5,3005.83 3531.5,3180.17 3531.5,3354.5C 3469.83,3354.5 3408.17,3354.5 3346.5,3354.5C 3346.5,3180.17 3346.5,3005.83 3346.5,2831.5 Z M 3553.5,2831.5 C 3615.17,2831.5 3676.83,2831.5 3738.5,2831.5C 3738.5,3005.83 3738.5,3180.17 3738.5,3354.5C 3676.83,3354.5 3615.17,3354.5 3553.5,3354.5C 3553.5,3180.17 3553.5,3005.83 3553.5,2831.5 Z M 2845.5,3103.5 C 2848.63,3104.58 2851.96,3105.25 2855.5,3105.5C 2857.18,3107.01 2859.18,3108.01 2861.5,3108.5C 2861.97,3109.91 2862.97,3110.57 2864.5,3110.5C 2864.97,3111.91 2865.97,3112.57 2867.5,3112.5C 2869.24,3115.24 2871.57,3117.24 2874.5,3118.5C 2874.83,3119.5 2875.5,3120.17 2876.5,3120.5C 2877.44,3123.11 2879.11,3125.11 2881.5,3126.5C 2883.86,3130.57 2886.2,3134.57 2888.5,3138.5C 2888.4,3140.55 2889.07,3142.22 2890.5,3143.5C 2892.69,3153.7 2894.02,3164.04 2894.5,3174.5C 2893.76,3177.36 2893.09,3180.36 2892.5,3183.5C 2892.62,3184.11 2892.96,3184.44 2893.5,3184.5C 2892.14,3187.66 2891.3,3191 2891,3194.5C 2889.34,3212.16 2887.84,3229.83 2886.5,3247.5C 2884.93,3250.22 2883.93,3253.22 2883.5,3256.5C 2882.11,3257.9 2881.11,3259.57 2880.5,3261.5C 2878.5,3262.83 2876.83,3264.5 2875.5,3266.5C 2873.97,3266.43 2872.97,3267.09 2872.5,3268.5C 2869.76,3268.71 2867.43,3269.71 2865.5,3271.5C 2862.63,3271.8 2859.96,3272.47 2857.5,3273.5C 2848.99,3273.99 2840.49,3274.65 2832,3275.5C 2825.16,3274.8 2818.33,3274.14 2811.5,3273.5C 2809.79,3272.26 2807.79,3271.59 2805.5,3271.5C 2803.35,3270.26 2801.02,3269.26 2798.5,3268.5C 2797.56,3267.03 2796.23,3266.03 2794.5,3265.5C 2793.83,3264.17 2792.83,3263.17 2791.5,3262.5C 2791.57,3260.97 2790.91,3259.97 2789.5,3259.5C 2789.41,3257.21 2788.74,3255.21 2787.5,3253.5C 2785.94,3226.14 2786.27,3198.81 2788.5,3171.5C 2790.06,3167.4 2792.39,3163.73 2795.5,3160.5C 2797.37,3159.74 2799.04,3158.74 2800.5,3157.5C 2803.43,3157.43 2806.09,3156.77 2808.5,3155.5C 2815.07,3154.64 2821.73,3154.64 2828.5,3155.5C 2831.64,3156.79 2834.98,3157.79 2838.5,3158.5C 2841.53,3159.84 2844.53,3161.17 2847.5,3162.5C 2848.83,3164.5 2850.5,3166.17 2852.5,3167.5C 2853.03,3169.23 2854.03,3170.56 2855.5,3171.5C 2855.43,3173.03 2856.09,3174.03 2857.5,3174.5C 2857.43,3176.03 2858.09,3177.03 2859.5,3177.5C 2860.42,3180.09 2862.09,3182.09 2864.5,3183.5C 2866.19,3186.19 2868.53,3188.19 2871.5,3189.5C 2875.1,3192.85 2878.94,3193.19 2883,3190.5C 2886.48,3175.7 2886.15,3161.03 2882,3146.5C 2879.03,3141.04 2875.53,3136.04 2871.5,3131.5C 2869.19,3127.19 2865.85,3123.85 2861.5,3121.5C 2859.24,3118.59 2856.24,3116.93 2852.5,3116.5C 2850.4,3115.39 2848.07,3114.72 2845.5,3114.5C 2844.49,3113.33 2843.15,3112.66 2841.5,3112.5C 2840.74,3110.74 2839.4,3109.74 2837.5,3109.5C 2836.37,3107.69 2835.7,3105.69 2835.5,3103.5C 2838.83,3103.5 2842.17,3103.5 2845.5,3103.5 Z M 4254.5,3109.5 C 4252.6,3109.74 4251.26,3110.74 4250.5,3112.5C 4248.85,3112.66 4247.51,3113.33 4246.5,3114.5C 4243.93,3114.72 4241.6,3115.39 4239.5,3116.5C 4236.91,3116.46 4234.91,3117.46 4233.5,3119.5C 4231.6,3119.74 4230.26,3120.74 4229.5,3122.5C 4224.11,3125.55 4220.11,3129.89 4217.5,3135.5C 4215.48,3137.53 4213.81,3139.86 4212.5,3142.5C 4210.21,3145.37 4208.87,3148.7 4208.5,3152.5C 4207.03,3156.74 4206.37,3161.24 4206.5,3166C 4206.76,3174.24 4207.59,3182.4 4209,3190.5C 4211.15,3192.44 4213.65,3192.94 4216.5,3192C 4219.96,3190.36 4222.96,3188.19 4225.5,3185.5C 4226.83,3185.5 4227.5,3184.83 4227.5,3183.5C 4229.91,3182.09 4231.58,3180.09 4232.5,3177.5C 4233.91,3177.03 4234.57,3176.03 4234.5,3174.5C 4235.91,3174.03 4236.57,3173.03 4236.5,3171.5C 4237.91,3171.03 4238.57,3170.03 4238.5,3168.5C 4242.53,3164.16 4247.2,3160.83 4252.5,3158.5C 4259.54,3156.65 4266.54,3155.32 4273.5,3154.5C 4276.73,3155.41 4280.06,3155.75 4283.5,3155.5C 4285.91,3156.77 4288.57,3157.43 4291.5,3157.5C 4292.51,3158.67 4293.85,3159.34 4295.5,3159.5C 4299.18,3162.88 4301.85,3166.88 4303.5,3171.5C 4305.73,3198.81 4306.06,3226.14 4304.5,3253.5C 4303.26,3255.21 4302.59,3257.21 4302.5,3259.5C 4301.09,3259.97 4300.43,3260.97 4300.5,3262.5C 4298.83,3263.5 4297.5,3264.83 4296.5,3266.5C 4294.33,3266.75 4292.66,3267.75 4291.5,3269.5C 4290.51,3269.33 4289.84,3269.66 4289.5,3270.5C 4286.22,3270.93 4283.22,3271.93 4280.5,3273.5C 4262.4,3275.95 4244.4,3275.29 4226.5,3271.5C 4224.57,3269.71 4222.24,3268.71 4219.5,3268.5C 4213.98,3264.66 4209.98,3259.66 4207.5,3253.5C 4207.41,3251.21 4206.74,3249.21 4205.5,3247.5C 4204.38,3227.6 4202.38,3207.93 4199.5,3188.5C 4199.33,3183.86 4198.67,3179.19 4197.5,3174.5C 4197.98,3164.04 4199.31,3153.7 4201.5,3143.5C 4202.93,3142.22 4203.6,3140.55 4203.5,3138.5C 4204.67,3137.49 4205.34,3136.15 4205.5,3134.5C 4207.8,3131.19 4210.13,3127.86 4212.5,3124.5C 4213.91,3124.03 4214.57,3123.03 4214.5,3121.5C 4220.24,3116.42 4226.24,3111.75 4232.5,3107.5C 4234.15,3107.34 4235.49,3106.67 4236.5,3105.5C 4243.09,3104.18 4249.76,3103.51 4256.5,3103.5C 4256.3,3105.69 4255.63,3107.69 4254.5,3109.5 Z M 3519.5,3365.5 C 3523.3,3366.48 3527.3,3366.82 3531.5,3366.5C 3531.5,3473.83 3531.5,3581.17 3531.5,3688.5C 3505.5,3688.5 3479.5,3688.5 3453.5,3688.5C 3453.82,3682.97 3453.49,3677.64 3452.5,3672.5C 3441.68,3671.51 3430.68,3671.17 3419.5,3671.5C 3419.78,3669.59 3419.45,3667.92 3418.5,3666.5C 3408.5,3665.16 3398.5,3663.16 3388.5,3660.5C 3384.49,3651.81 3384.65,3643.14 3389,3634.5C 3400.67,3617.16 3409.67,3598.49 3416,3578.5C 3419.19,3565 3420.19,3551.33 3419,3537.5C 3417.26,3536.24 3415.43,3535.24 3413.5,3534.5C 3412.05,3533.11 3411.05,3533.45 3410.5,3535.5C 3406.2,3563.59 3393.87,3587.43 3373.5,3607C 3369.42,3609.71 3365.09,3611.87 3360.5,3613.5C 3357.93,3613.72 3355.6,3614.39 3353.5,3615.5C 3351.17,3615.5 3348.83,3615.5 3346.5,3615.5C 3346.5,3532.17 3346.5,3448.83 3346.5,3365.5C 3404.65,3365.52 3462.32,3365.52 3519.5,3365.5 Z M 3565.5,3365.5 C 3622.96,3365.51 3680.63,3365.51 3738.5,3365.5C 3738.67,3448.5 3738.5,3531.5 3738,3614.5C 3731.59,3614.35 3725.43,3612.51 3719.5,3609C 3703.7,3596.52 3692.54,3580.69 3686,3561.5C 3683.2,3552.98 3681.04,3544.31 3679.5,3535.5C 3678.95,3533.45 3677.95,3533.11 3676.5,3534.5C 3674.57,3535.24 3672.74,3536.24 3671,3537.5C 3669.16,3557.93 3672.16,3577.59 3680,3596.5C 3685.99,3609.81 3692.99,3622.48 3701,3634.5C 3705.35,3643.14 3705.51,3651.81 3701.5,3660.5C 3691.5,3663.16 3681.5,3665.16 3671.5,3666.5C 3670.55,3667.92 3670.22,3669.59 3670.5,3671.5C 3659.32,3671.17 3648.32,3671.51 3637.5,3672.5C 3636.51,3677.64 3636.18,3682.97 3636.5,3688.5C 3608.83,3688.5 3581.17,3688.5 3553.5,3688.5C 3553.5,3581.17 3553.5,3473.83 3553.5,3366.5C 3557.7,3366.82 3561.7,3366.48 3565.5,3365.5 Z M 3174.5,3744.5 C 3173.51,3750.31 3173.18,3756.31 3173.5,3762.5C 3170.29,3762.19 3167.29,3762.52 3164.5,3763.5C 3135.34,3765.06 3117.01,3779.9 3109.5,3808C 3109.93,3810.32 3110.93,3812.32 3112.5,3814C 3113.78,3814.68 3114.95,3814.52 3116,3813.5C 3119.14,3802.69 3125.64,3794.52 3135.5,3789C 3150.43,3780.71 3166.43,3777.21 3183.5,3778.5C 3183.67,3797.5 3183.5,3816.5 3183,3835.5C 3179.24,3845.57 3171.91,3850.57 3161,3850.5C 3145.33,3848.83 3130.5,3844.33 3116.5,3837C 3103.89,3828.38 3096.06,3816.55 3093,3801.5C 3085.33,3768.8 3090.99,3738.8 3110,3711.5C 3123.39,3695.93 3140.23,3689.43 3160.5,3692C 3177.16,3698.16 3184.49,3709.99 3182.5,3727.5C 3177.54,3732.02 3174.88,3737.68 3174.5,3744.5 Z M 3925.5,3763.5 C 3922.71,3762.52 3919.71,3762.19 3916.5,3762.5C 3916.82,3756.31 3916.49,3750.31 3915.5,3744.5C 3915.12,3737.68 3912.46,3732.02 3907.5,3727.5C 3905.51,3709.99 3912.84,3698.16 3929.5,3692C 3955.82,3689.74 3975.32,3700.24 3988,3723.5C 4004.26,3755.99 4004.59,3788.66 3989,3821.5C 3977.47,3836.36 3962.3,3845.19 3943.5,3848C 3935.74,3849.89 3928.07,3850.22 3920.5,3849C 3913.43,3847.05 3908.93,3842.55 3907,3835.5C 3906.5,3816.5 3906.33,3797.5 3906.5,3778.5C 3926.3,3776.82 3944.3,3781.66 3960.5,3793C 3967.03,3798.52 3971.53,3805.35 3974,3813.5C 3975.05,3814.52 3976.22,3814.68 3977.5,3814C 3979.07,3812.32 3980.07,3810.32 3980.5,3808C 3972.99,3779.9 3954.66,3765.06 3925.5,3763.5 Z M 3531.5,3700.5 C 3531.5,3824.17 3531.5,3947.83 3531.5,4071.5C 3512.83,4071.5 3494.17,4071.5 3475.5,4071.5C 3460.5,4071.5 3445.5,4071.5 3430.5,4071.5C 3430.5,4044.5 3430.5,4017.5 3430.5,3990.5C 3432.5,3914.84 3433.16,3838.84 3432.5,3762.5C 3436.82,3757.87 3441.16,3753.21 3445.5,3748.5C 3446.5,3732.68 3446.83,3716.68 3446.5,3700.5C 3474.83,3700.5 3503.17,3700.5 3531.5,3700.5 Z M 3553.5,3700.5 C 3583.5,3700.5 3613.5,3700.5 3643.5,3700.5C 3643.17,3716.68 3643.5,3732.68 3644.5,3748.5C 3648.84,3753.21 3653.18,3757.87 3657.5,3762.5C 3657.31,3865.51 3657.97,3968.51 3659.5,4071.5C 3624.17,4071.5 3588.83,4071.5 3553.5,4071.5C 3553.5,3947.83 3553.5,3824.17 3553.5,3700.5 Z"/></g>
<g><path style="opacity:0.922" fill="#454545" d="M 3636.5,420.5 C 3643.7,420.578 3650.7,421.245 3657.5,422.5C 3650.28,422.65 3643.28,421.983 3636.5,420.5 Z"/></g>
<g><path style="opacity:0.996" fill="#414141" d="M 3396.5,426.5 C 3393.16,428.217 3389.49,428.884 3385.5,428.5C 3388.97,427.475 3392.64,426.808 3396.5,426.5 Z"/></g>
<g><path style="opacity:1" fill="#383838" d="M 2940.5,641.5 C 2938.1,644.903 2935.1,647.57 2931.5,649.5C 2933.9,646.097 2936.9,643.43 2940.5,641.5 Z"/></g>
<g><path style="opacity:0.031" fill="#969696" d="M 2914.5,840.5 C 2915.21,839.596 2916.21,839.263 2917.5,839.5C 2917.5,841.833 2917.5,844.167 2917.5,846.5C 2917.06,844.156 2916.06,842.156 2914.5,840.5 Z"/></g>
<g><path style="opacity:0.031" fill="#9c9c9c" d="M 4169.5,840.5 C 4168.83,842.5 4168.17,844.5 4167.5,846.5C 4167.19,844.076 4167.53,841.743 4168.5,839.5C 4169.11,839.624 4169.44,839.957 4169.5,840.5 Z"/></g>
<g><path style="opacity:0.129" fill="#989898" d="M 4245.5,858.5 C 4245.83,858.5 4246.17,858.5 4246.5,858.5C 4247.5,861.105 4247.17,861.105 4245.5,858.5 Z"/></g>
<g><path style="opacity:0.082" fill="#9a9a9a" d="M 2838.5,858.5 C 2838.83,858.5 2839.17,858.5 2839.5,858.5C 2837.83,861.105 2837.5,861.105 2838.5,858.5 Z"/></g>
<g><path style="opacity:0.08" fill="#878787" d="M 3065.5,905.5 C 3067.76,906.238 3067.93,907.238 3066,908.5C 3065.52,907.552 3065.35,906.552 3065.5,905.5 Z"/></g>
<g><path style="opacity:0.08" fill="#878787" d="M 4018.5,905.5 C 4019.57,906.251 4019.74,907.251 4019,908.5C 4017.27,907.648 4017.1,906.648 4018.5,905.5 Z"/></g>
<g><path style="opacity:0.11" fill="#838383" d="M 4291.5,936.5 C 4292.29,936.783 4292.96,937.283 4293.5,938C 4292.18,938.528 4291.52,938.028 4291.5,936.5 Z"/></g>
<g><path style="opacity:0.059" fill="#989898" d="M 3059.5,975.5 C 3059.5,977.833 3059.5,980.167 3059.5,982.5C 3058.21,982.737 3057.21,982.404 3056.5,981.5C 3058.06,979.844 3059.06,977.844 3059.5,975.5 Z"/></g>
<g><path style="opacity:0.059" fill="#989898" d="M 4025.5,975.5 C 4025.94,977.844 4026.94,979.844 4028.5,981.5C 4027.79,982.404 4026.79,982.737 4025.5,982.5C 4025.5,980.167 4025.5,977.833 4025.5,975.5 Z"/></g>
<g><path style="opacity:0.588" fill="#5d5d5d" d="M 2836.5,1050.5 C 2837.39,1051.11 2838.39,1051.44 2839.5,1051.5C 2838.05,1052.89 2837.05,1052.55 2836.5,1050.5 Z"/></g>
<g><path style="opacity:0.918" fill="#484848" d="M 2627.5,1205.5 C 2627.59,1208.15 2626.92,1210.49 2625.5,1212.5C 2625.41,1209.85 2626.08,1207.51 2627.5,1205.5 Z"/></g>
<g><path style="opacity:0.918" fill="#484848" d="M 4462.5,1205.5 C 4463.92,1207.51 4464.59,1209.85 4464.5,1212.5C 4463.08,1210.49 4462.41,1208.15 4462.5,1205.5 Z"/></g>
<g><path style="opacity:1" fill="#060606" d="M 3291.5,1212.5 C 3358.76,1214.71 3410.59,1244.04 3447,1300.5C 3486.33,1370.5 3486.33,1440.5 3447,1510.5C 3401.49,1578.83 3337.99,1606.66 3256.5,1594C 3191.8,1576.97 3147.63,1537.13 3124,1474.5C 3099.63,1399.03 3112.96,1331.03 3164,1270.5C 3198.77,1234.2 3241.27,1214.87 3291.5,1212.5 Z M 3275.5,1230.5 C 3271.91,1231.15 3268.24,1231.99 3264.5,1233C 3269.71,1256.72 3274.54,1280.55 3279,1304.5C 3290.07,1304.09 3301.23,1304.59 3312.5,1306C 3317.17,1307.33 3321.83,1308.67 3326.5,1310C 3355.56,1322.28 3374.89,1343.44 3384.5,1373.5C 3407.83,1368.17 3430.83,1361.83 3453.5,1354.5C 3424.2,1270.17 3364.86,1228.84 3275.5,1230.5 Z M 3248.5,1236.5 C 3249.17,1237.17 3249.83,1237.83 3250.5,1238.5C 3254.7,1261.52 3259.04,1284.52 3263.5,1307.5C 3263.44,1308.61 3263.11,1309.61 3262.5,1310.5C 3236.03,1320.8 3217.2,1339.14 3206,1365.5C 3198.75,1384.25 3196.59,1403.59 3199.5,1423.5C 3192.5,1424.25 3185.83,1425.92 3179.5,1428.5C 3176.85,1428.41 3174.51,1429.08 3172.5,1430.5C 3160.58,1432.93 3148.91,1435.93 3137.5,1439.5C 3135.14,1439.67 3132.81,1440.01 3130.5,1440.5C 3123.81,1394 3131.97,1350.33 3155,1309.5C 3177.89,1274.48 3209.06,1250.15 3248.5,1236.5 Z M 3453.5,1372.5 C 3431.88,1378.6 3410.21,1384.76 3388.5,1391C 3389.54,1396.57 3390.2,1402.07 3390.5,1407.5C 3386.66,1455.29 3362.66,1487.96 3318.5,1505.5C 3323.43,1529.13 3328.09,1552.8 3332.5,1576.5C 3375.54,1563.4 3409.38,1538.07 3434,1500.5C 3455.83,1460.5 3464,1417.83 3458.5,1372.5C 3456.83,1372.5 3455.17,1372.5 3453.5,1372.5 Z M 3201.5,1439.5 C 3179.67,1445.16 3157.84,1451.16 3136,1457.5C 3138.43,1466.72 3141.76,1475.72 3146,1484.5C 3182.07,1553.89 3239.24,1585.39 3317.5,1579C 3312.51,1555.24 3307.68,1531.41 3303,1507.5C 3284.55,1508.12 3267.05,1504.29 3250.5,1496C 3227.55,1483.23 3212.22,1464.4 3204.5,1439.5C 3203.5,1439.5 3202.5,1439.5 3201.5,1439.5 Z"/></g>
<g><path style="opacity:1" fill="#080808" d="M 3937.5,1357.5 C 3937.57,1360.43 3938.23,1363.09 3939.5,1365.5C 3950.98,1435.89 3931.65,1496.39 3881.5,1547C 3856.76,1569.37 3827.76,1582.53 3794.5,1586.5C 3783.48,1586.62 3772.48,1586.29 3761.5,1585.5C 3723.51,1579 3693.01,1560.33 3670,1529.5C 3643.42,1490.91 3632.25,1448.25 3636.5,1401.5C 3637.89,1396.73 3638.56,1391.73 3638.5,1386.5C 3638.3,1384.05 3638.63,1381.72 3639.5,1379.5C 3640.92,1377.49 3641.59,1375.15 3641.5,1372.5C 3654.1,1315.78 3686.1,1273.95 3737.5,1247C 3801.53,1221 3856.69,1233.5 3903,1284.5C 3920.4,1305.97 3931.9,1330.3 3937.5,1357.5 Z M 3822.5,1251.5 C 3823.11,1252.39 3823.44,1253.39 3823.5,1254.5C 3823.5,1254.83 3823.5,1255.17 3823.5,1255.5C 3822.08,1257.51 3821.41,1259.85 3821.5,1262.5C 3816.71,1281.11 3812.04,1299.78 3807.5,1318.5C 3799.12,1317.26 3790.78,1317.26 3782.5,1318.5C 3779.5,1318.29 3776.84,1318.96 3774.5,1320.5C 3752.1,1326.97 3734.94,1340.3 3723,1360.5C 3718.86,1367.79 3715.53,1375.45 3713,1383.5C 3710.97,1383.99 3708.81,1383.99 3706.5,1383.5C 3704.04,1382.47 3701.37,1381.8 3698.5,1381.5C 3683.71,1378.3 3669.04,1374.8 3654.5,1371C 3666.27,1332.25 3687.93,1300.25 3719.5,1275C 3751.02,1254.03 3785.35,1246.2 3822.5,1251.5 Z M 3851.5,1262.5 C 3851.97,1263.91 3852.97,1264.57 3854.5,1264.5C 3896.58,1290.82 3920.75,1328.82 3927,1378.5C 3928.34,1393.8 3928.84,1409.13 3928.5,1424.5C 3928.08,1427.16 3927.08,1429.49 3925.5,1431.5C 3906.81,1427.63 3888.14,1423.63 3869.5,1419.5C 3873.44,1387.06 3864.11,1359.23 3841.5,1336C 3835.95,1331.4 3829.95,1327.56 3823.5,1324.5C 3822.71,1323.6 3821.71,1322.93 3820.5,1322.5C 3825.85,1300.42 3831.52,1278.42 3837.5,1256.5C 3842.19,1258.51 3846.85,1260.51 3851.5,1262.5 Z M 3651.5,1387.5 C 3653.81,1387.99 3656.14,1388.33 3658.5,1388.5C 3669.31,1391.62 3680.31,1393.95 3691.5,1395.5C 3693.51,1396.92 3695.85,1397.59 3698.5,1397.5C 3701.82,1398.33 3705.15,1399.16 3708.5,1400C 3704.52,1434.73 3715.19,1464.07 3740.5,1488C 3742.39,1489.39 3744.39,1490.56 3746.5,1491.5C 3746.97,1492.91 3747.97,1493.57 3749.5,1493.5C 3753.42,1496.29 3757.75,1498.29 3762.5,1499.5C 3761,1506.48 3759.67,1513.48 3758.5,1520.5C 3757.08,1522.51 3756.41,1524.85 3756.5,1527.5C 3753.11,1538.57 3750.28,1549.9 3748,1561.5C 3747.64,1563.42 3746.81,1565.09 3745.5,1566.5C 3696.05,1546.21 3665.55,1509.87 3654,1457.5C 3649.26,1434.3 3648.43,1410.96 3651.5,1387.5 Z M 3776.5,1503.5 C 3783.17,1503.67 3789.84,1503.5 3796.5,1503C 3798.38,1502.8 3800.05,1502.3 3801.5,1501.5C 3824.87,1495.57 3842.7,1482.23 3855,1461.5C 3859.81,1452.88 3863.81,1443.88 3867,1434.5C 3886.15,1439.25 3905.32,1443.91 3924.5,1448.5C 3913.02,1487.32 3891.69,1519.49 3860.5,1545C 3830.37,1565.7 3797.03,1574.2 3760.5,1570.5C 3765.05,1547.99 3770.38,1525.65 3776.5,1503.5 Z"/></g>
<g><path style="opacity:0.914" fill="#686868" d="M 3248.5,1236.5 C 3248.56,1235.96 3248.89,1235.62 3249.5,1235.5C 3250.39,1236.32 3250.72,1237.32 3250.5,1238.5C 3249.83,1237.83 3249.17,1237.17 3248.5,1236.5 Z"/></g>
<g><path style="opacity:0.561" fill="#737373" d="M 3822.5,1251.5 C 3824.55,1252.05 3824.89,1253.05 3823.5,1254.5C 3823.44,1253.39 3823.11,1252.39 3822.5,1251.5 Z"/></g>
<g><path style="opacity:0.973" fill="#4d4d4d" d="M 3823.5,1255.5 C 3823.59,1258.15 3822.92,1260.49 3821.5,1262.5C 3821.41,1259.85 3822.08,1257.51 3823.5,1255.5 Z"/></g>
<g><path style="opacity:0.431" fill="#6b6b6b" d="M 3851.5,1262.5 C 3853.03,1262.43 3854.03,1263.09 3854.5,1264.5C 3852.97,1264.57 3851.97,1263.91 3851.5,1262.5 Z"/></g>
<g><path style="opacity:0.58" fill="#606060" d="M 2870.5,1283.5 C 2870.57,1285.03 2869.91,1286.03 2868.5,1286.5C 2868.43,1284.97 2869.09,1283.97 2870.5,1283.5 Z"/></g>
<g><path style="opacity:0.573" fill="#616161" d="M 4214.5,1283.5 C 4215.91,1283.97 4216.57,1284.97 4216.5,1286.5C 4215.09,1286.03 4214.43,1285.03 4214.5,1283.5 Z"/></g>
<g><path style="opacity:0.839" fill="#616161" d="M 3263.5,1307.5 C 3264.89,1308.95 3264.55,1309.95 3262.5,1310.5C 3263.11,1309.61 3263.44,1308.61 3263.5,1307.5 Z"/></g>
<g><path style="opacity:0.973" fill="#414141" d="M 3782.5,1318.5 C 3780.09,1319.77 3777.43,1320.43 3774.5,1320.5C 3776.84,1318.96 3779.5,1318.29 3782.5,1318.5 Z"/></g>
<g><path style="opacity:0.914" fill="#6a6a6a" d="M 3820.5,1322.5 C 3821.71,1322.93 3822.71,1323.6 3823.5,1324.5C 3821.82,1324.71 3820.82,1324.05 3820.5,1322.5 Z"/></g>
<g><path style="opacity:0.937" fill="#434343" d="M 3937.5,1357.5 C 3939.04,1359.84 3939.71,1362.5 3939.5,1365.5C 3938.23,1363.09 3937.57,1360.43 3937.5,1357.5 Z"/></g>
<g><path style="opacity:0.996" fill="#434343" d="M 4253.5,1370.5 C 4255.28,1373.5 4256.28,1376.84 4256.5,1380.5C 4254.72,1377.5 4253.72,1374.16 4253.5,1370.5 Z"/></g>
<g><path style="opacity:0.969" fill="#484848" d="M 2830.5,1373.5 C 2830.59,1376.15 2829.92,1378.49 2828.5,1380.5C 2828.41,1377.85 2829.08,1375.51 2830.5,1373.5 Z"/></g>
<g><path style="opacity:0.863" fill="#4a4a4a" d="M 3641.5,1372.5 C 3641.59,1375.15 3640.92,1377.49 3639.5,1379.5C 3639.41,1376.85 3640.08,1374.51 3641.5,1372.5 Z"/></g>
<g><path style="opacity:0.996" fill="#3d3d3d" d="M 2592.5,1375.5 C 2592.88,1379.49 2592.22,1383.16 2590.5,1386.5C 2590.81,1382.64 2591.48,1378.97 2592.5,1375.5 Z"/></g>
<g><path style="opacity:0.898" fill="#595959" d="M 3698.5,1381.5 C 3701.37,1381.8 3704.04,1382.47 3706.5,1383.5C 3703.45,1383.89 3700.78,1383.22 3698.5,1381.5 Z"/></g>
<g><path style="opacity:0.992" fill="#3e3e3e" d="M 4497.5,1375.5 C 4498.52,1378.97 4499.19,1382.64 4499.5,1386.5C 4497.78,1383.16 4497.12,1379.49 4497.5,1375.5 Z"/></g>
<g><path style="opacity:0.961" fill="#4b4b4b" d="M 2828.5,1380.5 C 2828.59,1383.15 2827.92,1385.49 2826.5,1387.5C 2826.41,1384.85 2827.08,1382.51 2828.5,1380.5 Z"/></g>
<g><path style="opacity:0.965" fill="#4b4b4b" d="M 4256.5,1380.5 C 4257.92,1382.51 4258.59,1384.85 4258.5,1387.5C 4257.08,1385.49 4256.41,1383.15 4256.5,1380.5 Z"/></g>
<g><path style="opacity:0.835" fill="#494949" d="M 3651.5,1387.5 C 3653.95,1386.35 3656.29,1386.69 3658.5,1388.5C 3656.14,1388.33 3653.81,1387.99 3651.5,1387.5 Z"/></g>
<g><path style="opacity:0.996" fill="#404040" d="M 3638.5,1386.5 C 3638.56,1391.73 3637.89,1396.73 3636.5,1401.5C 3636.3,1396.25 3636.97,1391.25 3638.5,1386.5 Z"/></g>
<g><path style="opacity:0.541" fill="#646464" d="M 3691.5,1395.5 C 3694.15,1395.41 3696.49,1396.08 3698.5,1397.5C 3695.85,1397.59 3693.51,1396.92 3691.5,1395.5 Z"/></g>
<g><path style="opacity:0.984" fill="#414141" d="M 3179.5,1428.5 C 3177.49,1429.92 3175.15,1430.59 3172.5,1430.5C 3174.51,1429.08 3176.85,1428.41 3179.5,1428.5 Z"/></g>
<g><path style="opacity:0.973" fill="#525252" d="M 3928.5,1424.5 C 3928.5,1427.17 3928.5,1429.83 3928.5,1432.5C 3927.21,1432.74 3926.21,1432.4 3925.5,1431.5C 3927.08,1429.49 3928.08,1427.16 3928.5,1424.5 Z"/></g>
<g><path style="opacity:0.973" fill="#424242" d="M 3137.5,1439.5 C 3135.29,1441.31 3132.95,1441.65 3130.5,1440.5C 3132.81,1440.01 3135.14,1439.67 3137.5,1439.5 Z"/></g>
<g><path style="opacity:0.756" fill="#494949" d="M 2816.5,1441.5 C 2816.36,1448.36 2815.7,1455.03 2814.5,1461.5C 2814.29,1454.6 2814.96,1447.94 2816.5,1441.5 Z"/></g>
<g><path style="opacity:0.747" fill="#4a4a4a" d="M 4268.5,1441.5 C 4270.04,1447.94 4270.71,1454.6 4270.5,1461.5C 4269.3,1455.03 4268.64,1448.36 4268.5,1441.5 Z"/></g>
<g><path style="opacity:0.843" fill="#575757" d="M 2814.5,1461.5 C 2814.83,1468.86 2814.5,1476.2 2813.5,1483.5C 2812.7,1483.04 2812.37,1482.38 2812.5,1481.5C 2813.17,1474.83 2813.83,1468.17 2814.5,1461.5 Z"/></g>
<g><path style="opacity:0.839" fill="#585858" d="M 4270.5,1461.5 C 4270.85,1468.4 4271.85,1475.06 4273.5,1481.5C 4273.19,1482.48 4272.52,1483.14 4271.5,1483.5C 4270.5,1476.2 4270.17,1468.86 4270.5,1461.5 Z"/></g>
<g><path style="opacity:0.827" fill="#3a3a3a" d="M 2655.5,1477.5 C 2655.5,1478.5 2655.5,1479.5 2655.5,1480.5C 2707.67,1480.17 2759.67,1480.5 2811.5,1481.5C 2759.17,1481.5 2706.83,1481.5 2654.5,1481.5C 2654.23,1479.9 2654.57,1478.57 2655.5,1477.5 Z"/></g>
<g><path style="opacity:0.828" fill="#393939" d="M 4429.5,1477.5 C 4430.43,1478.57 4430.77,1479.9 4430.5,1481.5C 4378.17,1481.5 4325.83,1481.5 4273.5,1481.5C 4325.33,1480.5 4377.33,1480.17 4429.5,1480.5C 4429.5,1479.5 4429.5,1478.5 4429.5,1477.5 Z"/></g>
<g><path style="opacity:0.812" fill="#5e5e5e" d="M 4273.5,1491.5 C 4271.51,1499.93 4270.17,1508.6 4269.5,1517.5C 4269.34,1508.11 4270,1498.77 4271.5,1489.5C 4272.52,1489.86 4273.19,1490.52 4273.5,1491.5 Z"/></g>
<g><path style="opacity:0.624" fill="#5d5d5d" d="M 3746.5,1491.5 C 3748.03,1491.43 3749.03,1492.09 3749.5,1493.5C 3747.97,1493.57 3746.97,1492.91 3746.5,1491.5 Z"/></g>
<g><path style="opacity:0.286" fill="#6b6b6b" d="M 2812.5,1491.5 C 2812.56,1490.96 2812.89,1490.62 2813.5,1490.5C 2814.49,1495.12 2814.83,1499.79 2814.5,1504.5C 2813.83,1500.17 2813.17,1495.83 2812.5,1491.5 Z"/></g>
<g><path style="opacity:0.792" fill="#4d4d4d" d="M 3801.5,1501.5 C 3800.05,1502.3 3798.38,1502.8 3796.5,1503C 3789.84,1503.5 3783.17,1503.67 3776.5,1503.5C 3784.66,1502.47 3792.99,1501.8 3801.5,1501.5 Z"/></g>
<g><path style="opacity:0.992" fill="#404040" d="M 3758.5,1520.5 C 3758.59,1523.15 3757.92,1525.49 3756.5,1527.5C 3756.41,1524.85 3757.08,1522.51 3758.5,1520.5 Z"/></g>
<g><path style="opacity:0.318" fill="#6f6f6f" d="M 2820.5,1553.5 C 2822.37,1557.52 2823.37,1561.85 2823.5,1566.5C 2821.88,1562.43 2820.88,1558.09 2820.5,1553.5 Z"/></g>
<g><path style="opacity:0.318" fill="#757575" d="M 4264.5,1553.5 C 4264.32,1556.73 4263.66,1559.73 4262.5,1562.5C 4262.22,1559.17 4262.88,1556.17 4264.5,1553.5 Z"/></g>
<g><path style="opacity:0.898" fill="#575757" d="M 4262.5,1563.5 C 4262.28,1566.07 4261.61,1568.4 4260.5,1570.5C 4260.17,1567.77 4260.84,1565.44 4262.5,1563.5 Z"/></g>
<g><path style="opacity:0.465" fill="#737373" d="M 3761.5,1585.5 C 3772.48,1586.29 3783.48,1586.62 3794.5,1586.5C 3790.35,1587.17 3786.01,1587.5 3781.5,1587.5C 3774.6,1587.65 3767.94,1586.99 3761.5,1585.5 Z"/></g>
<g><path style="opacity:0.067" fill="#9e9e9e" d="M 2878.5,2193.5 C 2878.5,2193.83 2878.5,2194.17 2878.5,2194.5C 2875.89,2192.83 2875.89,2192.5 2878.5,2193.5 Z"/></g>
<g><path style="opacity:0.11" fill="#9c9c9c" d="M 4206.5,2194.5 C 4206.5,2194.17 4206.5,2193.83 4206.5,2193.5C 4209.11,2192.5 4209.11,2192.83 4206.5,2194.5 Z"/></g>
<g><path style="opacity:0.035" fill="#a2a2a2" d="M 2948.5,2266.5 C 2949.04,2266.56 2949.38,2266.89 2949.5,2267.5C 2932,2268.83 2914.67,2268.83 2897.5,2267.5C 2914.67,2267.83 2931.67,2267.5 2948.5,2266.5 Z"/></g>
<g><path style="opacity:0.036" fill="#a3a3a3" d="M 4136.5,2266.5 C 4153.33,2267.5 4170.33,2267.83 4187.5,2267.5C 4170.33,2268.83 4153,2268.83 4135.5,2267.5C 4135.62,2266.89 4135.96,2266.56 4136.5,2266.5 Z"/></g>
<g><path style="opacity:0.749" fill="#585858" d="M 2765.5,2329.5 C 2767.55,2330.05 2767.89,2331.05 2766.5,2332.5C 2766.44,2331.39 2766.11,2330.39 2765.5,2329.5 Z"/></g>
<g><path style="opacity:0.992" fill="#484848" d="M 2647.5,2332.5 C 2648.87,2334.94 2649.87,2337.6 2650.5,2340.5C 2648.35,2338.38 2647.35,2335.72 2647.5,2332.5 Z"/></g>
<g><path style="opacity:0.992" fill="#494949" d="M 4437.5,2332.5 C 4437.65,2335.72 4436.65,2338.38 4434.5,2340.5C 4435.13,2337.6 4436.13,2334.94 4437.5,2332.5 Z"/></g>
<g><path style="opacity:0.949" fill="#4a4a4a" d="M 2951.5,2352.5 C 2951.59,2355.15 2950.92,2357.49 2949.5,2359.5C 2949.41,2356.85 2950.08,2354.51 2951.5,2352.5 Z"/></g>
<g><path style="opacity:0.949" fill="#4a4a4a" d="M 4133.5,2352.5 C 4134.92,2354.51 4135.59,2356.85 4135.5,2359.5C 4134.08,2357.49 4133.41,2355.15 4133.5,2352.5 Z"/></g>
<g><path style="opacity:1" fill="#444444" d="M 4051.5,2375.5 C 4052.08,2378.99 4050.41,2381.32 4046.5,2382.5C 4048.58,2380.43 4050.25,2378.09 4051.5,2375.5 Z"/></g>
<g><path style="opacity:0.443" fill="#676767" d="M 3762.5,2454.5 C 3762.33,2455.49 3762.66,2456.16 3763.5,2456.5C 3763.16,2458.85 3762.66,2461.19 3762,2463.5C 3761.2,2460.3 3761.36,2457.3 3762.5,2454.5 Z"/></g>
<g><path style="opacity:0.15" fill="#797979" d="M 3321.5,2456.5 C 3321.83,2456.5 3322.17,2456.5 3322.5,2456.5C 3323.53,2465.59 3323.2,2465.59 3321.5,2456.5 Z"/></g>
<g><path style="opacity:0.953" fill="#535353" d="M 4247.5,2461.5 C 4251.34,2461.93 4255,2462.6 4258.5,2463.5C 4255.48,2463.66 4252.48,2463.5 4249.5,2463C 4248.58,2462.72 4247.92,2462.22 4247.5,2461.5 Z"/></g>
<g><path style="opacity:0.89" fill="#525252" d="M 4509.5,2777.5 C 4510.9,2780.91 4511.57,2784.58 4511.5,2788.5C 4510.1,2785.09 4509.43,2781.42 4509.5,2777.5 Z"/></g>
<g><path style="opacity:0.872" fill="#353535" d="M 4533.5,2832.5 C 4533.67,2846.84 4533.5,2861.17 4533,2875.5C 4532.72,2876.42 4532.22,2877.08 4531.5,2877.5C 4532.12,2862.36 4532.79,2847.36 4533.5,2832.5 Z"/></g>
<g><path style="opacity:0.87" fill="#353535" d="M 2558.5,2831.5 C 2559.21,2846.69 2559.88,2862.03 2560.5,2877.5C 2559.78,2877.08 2559.28,2876.42 2559,2875.5C 2558.5,2860.84 2558.33,2846.17 2558.5,2831.5 Z"/></g>
<g><path style="opacity:0.075" fill="#767676" d="M 2560.5,2877.5 C 2561.83,2878.17 2562.83,2879.17 2563.5,2880.5C 2561.5,2880.5 2560.5,2879.5 2560.5,2877.5 Z"/></g>
<g><path style="opacity:0.106" fill="#7c7c7c" d="M 4531.5,2877.5 C 4531.5,2879.5 4530.5,2880.5 4528.5,2880.5C 4529.17,2879.17 4530.17,2878.17 4531.5,2877.5 Z"/></g>
<g><path style="opacity:0.18" fill="#7a7a7a" d="M 2563.5,2880.5 C 2565.15,2880.66 2566.49,2881.33 2567.5,2882.5C 2565.62,2882.77 2564.29,2882.1 2563.5,2880.5 Z"/></g>
<g><path style="opacity:0.078" fill="#7f7f7f" d="M 4528.5,2880.5 C 4527.36,2882.21 4525.7,2882.88 4523.5,2882.5C 4524.93,2881.46 4526.6,2880.8 4528.5,2880.5 Z"/></g>
<g><path style="opacity:0.235" fill="#7e7e7e" d="M 2568.5,2882.5 C 2571.49,2882.17 2573.82,2883.17 2575.5,2885.5C 2572.98,2884.74 2570.65,2883.74 2568.5,2882.5 Z"/></g>
<g><path style="opacity:0.243" fill="#7f7f7f" d="M 4523.5,2882.5 C 4521.35,2883.74 4519.02,2884.74 4516.5,2885.5C 4518.18,2883.17 4520.51,2882.17 4523.5,2882.5 Z"/></g>
<g><path style="opacity:0.009" fill="#b2b2b2" d="M 3324.5,2655.5 C 3325.5,2973.67 3325.83,3292 3325.5,3610.5C 3324.21,3610.74 3323.21,3610.4 3322.5,3609.5C 3324.5,3291.84 3325.17,2973.84 3324.5,2655.5 Z"/></g>
<g><path style="opacity:0.98" fill="#777777" d="M 4000.5,3006.5 C 3997.81,3005.99 3995.31,3004.99 3993,3003.5C 3992.83,3064.33 3992.33,3125 3991.5,3185.5C 3991.5,3124.5 3991.5,3063.5 3991.5,3002.5C 3995.16,3002.5 3998.16,3003.84 4000.5,3006.5 Z"/></g>
<g><path style="opacity:0.514" fill="#646464" d="M 4000.5,3006.5 C 4002.03,3006.43 4003.03,3007.09 4003.5,3008.5C 4001.97,3008.57 4000.97,3007.91 4000.5,3006.5 Z"/></g>
<g><path style="opacity:0.922" fill="#525252" d="M 4003.5,3008.5 C 4006.5,3009.5 4008.5,3011.5 4009.5,3014.5C 4007.17,3012.83 4005.17,3010.83 4003.5,3008.5 Z"/></g>
<g><path style="opacity:0.824" fill="#5c5c5c" d="M 4012.5,3018.5 C 4014.03,3018.43 4015.03,3019.09 4015.5,3020.5C 4013.97,3020.57 4012.97,3019.91 4012.5,3018.5 Z"/></g>
<g><path style="opacity:0.588" fill="#5d5d5d" d="M 4015.5,3020.5 C 4017.03,3020.43 4018.03,3021.09 4018.5,3022.5C 4016.97,3022.57 4015.97,3021.91 4015.5,3020.5 Z"/></g>
<g><path style="opacity:0.784" fill="#3d3d3d" d="M 4511.5,3019.5 C 4511.17,3218.21 4511.5,3416.87 4512.5,3615.5C 4511.88,3615.39 4511.38,3615.06 4511,3614.5C 4510.17,3416 4510.33,3217.67 4511.5,3019.5 Z"/></g>
<g><path style="opacity:0.763" fill="#505050" d="M 4028.5,3024.5 C 4032.76,3024.34 4036.76,3025.01 4040.5,3026.5C 4036.27,3026.46 4032.27,3025.79 4028.5,3024.5 Z"/></g>
<g><path style="opacity:0.849" fill="#525252" d="M 3063.5,3024.5 C 3057.3,3025.93 3050.97,3027.26 3044.5,3028.5C 3044.61,3027.88 3044.94,3027.38 3045.5,3027C 3051.43,3025.62 3057.43,3024.79 3063.5,3024.5 Z"/></g>
<g><path style="opacity:0.851" fill="#4f4f4f" d="M 4040.5,3026.5 C 4044.12,3026.32 4047.46,3026.99 4050.5,3028.5C 4046.92,3028.45 4043.59,3027.78 4040.5,3026.5 Z"/></g>
<g><path style="opacity:0.937" fill="#4d4d4d" d="M 3041.5,3028.5 C 3037.38,3031.06 3033.04,3032.39 3028.5,3032.5C 3032.27,3029.8 3036.6,3028.47 3041.5,3028.5 Z"/></g>
<g><path style="opacity:0.933" fill="#4d4d4d" d="M 4050.5,3028.5 C 4054.35,3028.29 4057.68,3029.29 4060.5,3031.5C 4057.17,3031.21 4053.83,3030.21 4050.5,3028.5 Z"/></g>
<g><path style="opacity:0.973" fill="#686868" d="M 4066.5,3033.5 C 4069.01,3033.05 4071.01,3033.72 4072.5,3035.5C 4070.21,3035.41 4068.21,3034.74 4066.5,3033.5 Z"/></g>
<g><path style="opacity:0.018" fill="#adadad" d="M 3091.5,3006.5 C 3091.56,3005.96 3091.89,3005.62 3092.5,3005.5C 3093.5,3090.83 3093.83,3176.16 3093.5,3261.5C 3092.83,3176.5 3092.17,3091.5 3091.5,3006.5 Z"/></g>
<g><path style="opacity:0.871" fill="#606060" d="M 4084.5,3040.5 C 4088.77,3043.1 4092.44,3046.43 4095.5,3050.5C 4091.23,3047.9 4087.56,3044.57 4084.5,3040.5 Z"/></g>
<g><path style="opacity:0.6" fill="#616161" d="M 4095.5,3050.5 C 4097.03,3050.43 4098.03,3051.09 4098.5,3052.5C 4096.97,3052.57 4095.97,3051.91 4095.5,3050.5 Z"/></g>
<g><path style="opacity:0.915" fill="#525252" d="M 2987.5,3054.5 C 2984.68,3055.66 2981.68,3056.66 2978.5,3057.5C 2975.53,3056.59 2972.53,3056.59 2969.5,3057.5C 2975.23,3055.72 2981.23,3054.72 2987.5,3054.5 Z"/></g>
<g><path style="opacity:0.915" fill="#525252" d="M 4104.5,3054.5 C 4110.77,3054.72 4116.77,3055.72 4122.5,3057.5C 4119.41,3056.93 4116.41,3056.93 4113.5,3057.5C 4110.32,3056.66 4107.32,3055.66 4104.5,3054.5 Z"/></g>
<g><path style="opacity:0.024" fill="#818181" d="M 4130.5,3058.5 C 4133.5,3058.29 4136.16,3058.96 4138.5,3060.5C 4135.57,3060.43 4132.91,3059.77 4130.5,3058.5 Z"/></g>
<g><path style="opacity:0.996" fill="#535353" d="M 4142.5,3061.5 C 4145.01,3061.05 4147.01,3061.72 4148.5,3063.5C 4146.21,3063.41 4144.21,3062.74 4142.5,3061.5 Z"/></g>
<g><path style="opacity:0.133" fill="#848484" d="M 2943.5,3063.5 C 2942.22,3064.93 2940.55,3065.6 2938.5,3065.5C 2939.78,3064.07 2941.45,3063.4 2943.5,3063.5 Z"/></g>
<g><path style="opacity:0.259" fill="#808080" d="M 2938.5,3065.5 C 2936.57,3067.29 2934.24,3068.29 2931.5,3068.5C 2933.43,3066.71 2935.76,3065.71 2938.5,3065.5 Z"/></g>
<g><path style="opacity:0.18" fill="#888888" d="M 4155.5,3066.5 C 4157.55,3066.4 4159.22,3067.07 4160.5,3068.5C 4158.45,3068.6 4156.78,3067.93 4155.5,3066.5 Z"/></g>
<g><path style="opacity:0.937" fill="#575757" d="M 4173.5,3075.5 C 4176.17,3076.17 4177.83,3077.83 4178.5,3080.5C 4176.5,3079.17 4174.83,3077.5 4173.5,3075.5 Z"/></g>
<g><path style="opacity:0.784" fill="#3d3d3d" d="M 2580.5,3093.5 C 2581.67,3267 2581.83,3440.67 2581,3614.5C 2580.62,3615.06 2580.12,3615.39 2579.5,3615.5C 2580.5,3441.54 2580.83,3267.54 2580.5,3093.5 Z"/></g>
<g><path style="opacity:0.992" fill="#484848" d="M 4178.5,3093.5 C 4178.83,3096.49 4177.83,3098.82 4175.5,3100.5C 4175.71,3097.76 4176.71,3095.43 4178.5,3093.5 Z"/></g>
<g><path style="opacity:0.71" fill="#565656" d="M 4254.5,3109.5 C 4255.63,3107.69 4256.3,3105.69 4256.5,3103.5C 4249.76,3103.51 4243.09,3104.18 4236.5,3105.5C 4243.15,3102.86 4250.15,3102.02 4257.5,3103C 4258.34,3105.84 4257.34,3108.01 4254.5,3109.5 Z"/></g>
<g><path style="opacity:0.776" fill="#4e4e4e" d="M 2845.5,3103.5 C 2849.16,3103.16 2852.49,3103.83 2855.5,3105.5C 2851.96,3105.25 2848.63,3104.58 2845.5,3103.5 Z"/></g>
<g><path style="opacity:0.047" fill="#6f6f6f" d="M 2845.5,3103.5 C 2842.17,3103.5 2838.83,3103.5 2835.5,3103.5C 2835.7,3105.69 2836.37,3107.69 2837.5,3109.5C 2834.66,3108.01 2833.66,3105.84 2834.5,3103C 2838.36,3102.19 2842.02,3102.36 2845.5,3103.5 Z"/></g>
<g><path style="opacity:0.031" fill="#717171" d="M 4236.5,3105.5 C 4235.49,3106.67 4234.15,3107.34 4232.5,3107.5C 4233.29,3105.9 4234.62,3105.23 4236.5,3105.5 Z"/></g>
<g><path style="opacity:0.016" fill="#878787" d="M 2837.5,3109.5 C 2839.4,3109.74 2840.74,3110.74 2841.5,3112.5C 2839.6,3112.26 2838.26,3111.26 2837.5,3109.5 Z"/></g>
<g><path style="opacity:0.459" fill="#6a6a6a" d="M 2861.5,3108.5 C 2863.03,3108.43 2864.03,3109.09 2864.5,3110.5C 2862.97,3110.57 2861.97,3109.91 2861.5,3108.5 Z"/></g>
<g><path style="opacity:0.502" fill="#747474" d="M 4254.5,3109.5 C 4253.74,3111.26 4252.4,3112.26 4250.5,3112.5C 4251.26,3110.74 4252.6,3109.74 4254.5,3109.5 Z"/></g>
<g><path style="opacity:0.722" fill="#595959" d="M 2864.5,3110.5 C 2866.03,3110.43 2867.03,3111.09 2867.5,3112.5C 2865.97,3112.57 2864.97,3111.91 2864.5,3110.5 Z"/></g>
<g><path style="opacity:0.973" fill="#565656" d="M 2867.5,3112.5 C 2870.43,3113.76 2872.76,3115.76 2874.5,3118.5C 2871.57,3117.24 2869.24,3115.24 2867.5,3112.5 Z"/></g>
<g><path style="opacity:0.976" fill="#565656" d="M 2845.5,3114.5 C 2848.07,3114.72 2850.4,3115.39 2852.5,3116.5C 2850.47,3116.66 2848.47,3116.5 2846.5,3116C 2845.94,3115.62 2845.61,3115.12 2845.5,3114.5 Z"/></g>
<g><path style="opacity:0.984" fill="#565656" d="M 4246.5,3114.5 C 4246.39,3115.12 4246.06,3115.62 4245.5,3116C 4243.53,3116.5 4241.53,3116.66 4239.5,3116.5C 4241.6,3115.39 4243.93,3114.72 4246.5,3114.5 Z"/></g>
<g><path style="opacity:0.992" fill="#4d4d4d" d="M 4239.5,3116.5 C 4237.97,3118.25 4235.97,3119.25 4233.5,3119.5C 4234.91,3117.46 4236.91,3116.46 4239.5,3116.5 Z"/></g>
<g><path style="opacity:0.749" fill="#5a5a5a" d="M 2876.5,3120.5 C 2878.86,3121.87 2880.53,3123.87 2881.5,3126.5C 2879.11,3125.11 2877.44,3123.11 2876.5,3120.5 Z"/></g>
<g><path style="opacity:0.086" fill="#757575" d="M 4214.5,3121.5 C 4214.57,3123.03 4213.91,3124.03 4212.5,3124.5C 4212.43,3122.97 4213.09,3121.97 4214.5,3121.5 Z"/></g>
<g><path style="opacity:0.588" fill="#747474" d="M 2861.5,3121.5 C 2865.85,3123.85 2869.19,3127.19 2871.5,3131.5C 2867.79,3128.45 2864.45,3125.12 2861.5,3121.5 Z"/></g>
<g><path style="opacity:0.682" fill="#696969" d="M 4229.5,3122.5 C 4225.47,3126.86 4221.47,3131.19 4217.5,3135.5C 4220.11,3129.89 4224.11,3125.55 4229.5,3122.5 Z"/></g>
<g><path style="opacity:0.804" fill="#464646" d="M 2928.5,3127.5 C 2930.04,3129.84 2930.71,3132.5 2930.5,3135.5C 2929.23,3133.09 2928.57,3130.43 2928.5,3127.5 Z"/></g>
<g><path style="opacity:0.824" fill="#464646" d="M 4163.5,3127.5 C 4163.43,3130.43 4162.77,3133.09 4161.5,3135.5C 4161.29,3132.5 4161.96,3129.84 4163.5,3127.5 Z"/></g>
<g><path style="opacity:0.118" fill="#8d8d8d" d="M 4205.5,3134.5 C 4205.34,3136.15 4204.67,3137.49 4203.5,3138.5C 4203.23,3136.62 4203.9,3135.29 4205.5,3134.5 Z"/></g>
<g><path style="opacity:0.043" fill="#989898" d="M 2888.5,3138.5 C 2889.93,3139.78 2890.6,3141.45 2890.5,3143.5C 2889.07,3142.22 2888.4,3140.55 2888.5,3138.5 Z"/></g>
<g><path style="opacity:0.051" fill="#979797" d="M 4203.5,3138.5 C 4203.6,3140.55 4202.93,3142.22 4201.5,3143.5C 4201.4,3141.45 4202.07,3139.78 4203.5,3138.5 Z"/></g>
<g><path style="opacity:0.941" fill="#525252" d="M 4212.5,3142.5 C 4212.23,3146.36 4210.9,3149.69 4208.5,3152.5C 4208.87,3148.7 4210.21,3145.37 4212.5,3142.5 Z"/></g>
<g><path style="opacity:0.739" fill="#585858" d="M 2808.5,3155.5 C 2806.09,3156.77 2803.43,3157.43 2800.5,3157.5C 2802.84,3155.96 2805.5,3155.29 2808.5,3155.5 Z"/></g>
<g><path style="opacity:0.749" fill="#606060" d="M 4273.5,3154.5 C 4266.54,3155.32 4259.54,3156.65 4252.5,3158.5C 4258.98,3155.14 4265.98,3153.81 4273.5,3154.5 Z"/></g>
<g><path style="opacity:0.739" fill="#515151" d="M 4283.5,3155.5 C 4286.5,3155.29 4289.16,3155.96 4291.5,3157.5C 4288.57,3157.43 4285.91,3156.77 4283.5,3155.5 Z"/></g>
<g><path style="opacity:0.745" fill="#4f4f4f" d="M 2828.5,3155.5 C 2832.35,3155.29 2835.68,3156.29 2838.5,3158.5C 2834.98,3157.79 2831.64,3156.79 2828.5,3155.5 Z"/></g>
<g><path style="opacity:0.6" fill="#6d6d6d" d="M 4295.5,3159.5 C 4300.64,3161.76 4303.31,3165.76 4303.5,3171.5C 4301.85,3166.88 4299.18,3162.88 4295.5,3159.5 Z"/></g>
<g><path style="opacity:0.902" fill="#656565" d="M 2847.5,3162.5 C 2850.17,3163.17 2851.83,3164.83 2852.5,3167.5C 2850.5,3166.17 2848.83,3164.5 2847.5,3162.5 Z"/></g>
<g><path style="opacity:0.376" fill="#747474" d="M 2795.5,3160.5 C 2792.39,3163.73 2790.06,3167.4 2788.5,3171.5C 2788.6,3166.29 2790.93,3162.62 2795.5,3160.5 Z"/></g>
<g><path style="opacity:0.624" fill="#606060" d="M 2852.5,3167.5 C 2854.45,3168.03 2855.45,3169.37 2855.5,3171.5C 2854.03,3170.56 2853.03,3169.23 2852.5,3167.5 Z"/></g>
<g><path style="opacity:0.047" fill="#7f7f7f" d="M 4238.5,3168.5 C 4238.57,3170.03 4237.91,3171.03 4236.5,3171.5C 4236.43,3169.97 4237.09,3168.97 4238.5,3168.5 Z"/></g>
<g><path style="opacity:0.075" fill="#7f7f7f" d="M 2855.5,3171.5 C 2856.91,3171.97 2857.57,3172.97 2857.5,3174.5C 2856.09,3174.03 2855.43,3173.03 2855.5,3171.5 Z"/></g>
<g><path style="opacity:0.071" fill="#808080" d="M 4236.5,3171.5 C 4236.57,3173.03 4235.91,3174.03 4234.5,3174.5C 4234.43,3172.97 4235.09,3171.97 4236.5,3171.5 Z"/></g>
<g><path style="opacity:0.051" fill="#808080" d="M 2857.5,3174.5 C 2858.91,3174.97 2859.57,3175.97 2859.5,3177.5C 2858.09,3177.03 2857.43,3176.03 2857.5,3174.5 Z"/></g>
<g><path style="opacity:0.051" fill="#808080" d="M 4234.5,3174.5 C 4234.57,3176.03 4233.91,3177.03 4232.5,3177.5C 4232.43,3175.97 4233.09,3174.97 4234.5,3174.5 Z"/></g>
<g><path style="opacity:0.933" fill="#6e6e6e" d="M 2894.5,3174.5 C 2894.75,3177.94 2894.41,3181.27 2893.5,3184.5C 2892.96,3184.44 2892.62,3184.11 2892.5,3183.5C 2893.09,3180.36 2893.76,3177.36 2894.5,3174.5 Z"/></g>
<g><path style="opacity:0.916" fill="#646464" d="M 4197.5,3174.5 C 4198.67,3179.19 4199.33,3183.86 4199.5,3188.5C 4198.78,3188.08 4198.28,3187.42 4198,3186.5C 4197.5,3182.51 4197.33,3178.51 4197.5,3174.5 Z"/></g>
<g><path style="opacity:0.008" fill="#808080" d="M 4227.5,3183.5 C 4227.5,3184.83 4226.83,3185.5 4225.5,3185.5C 4225.83,3184.5 4226.5,3183.83 4227.5,3183.5 Z"/></g>
<g><path style="opacity:0.824" fill="#5b5b5b" d="M 2864.5,3183.5 C 2867.45,3184.78 2869.78,3186.78 2871.5,3189.5C 2868.53,3188.19 2866.19,3186.19 2864.5,3183.5 Z"/></g>
<g><path style="opacity:0.996" fill="#505050" d="M 2886.5,3247.5 C 2886.86,3251.08 2885.86,3254.08 2883.5,3256.5C 2883.93,3253.22 2884.93,3250.22 2886.5,3247.5 Z"/></g>
<g><path style="opacity:0.996" fill="#585858" d="M 4205.5,3247.5 C 4206.74,3249.21 4207.41,3251.21 4207.5,3253.5C 4205.72,3252.01 4205.05,3250.01 4205.5,3247.5 Z"/></g>
<g><path style="opacity:0.28" fill="#777777" d="M 2787.5,3253.5 C 2788.74,3255.21 2789.41,3257.21 2789.5,3259.5C 2787.93,3257.9 2787.26,3255.9 2787.5,3253.5 Z"/></g>
<g><path style="opacity:0.28" fill="#767676" d="M 4304.5,3253.5 C 4304.74,3255.9 4304.07,3257.9 4302.5,3259.5C 4302.59,3257.21 4303.26,3255.21 4304.5,3253.5 Z"/></g>
<g><path style="opacity:0.471" fill="#666666" d="M 2789.5,3259.5 C 2790.91,3259.97 2791.57,3260.97 2791.5,3262.5C 2790.09,3262.03 2789.43,3261.03 2789.5,3259.5 Z"/></g>
<g><path style="opacity:0.471" fill="#666666" d="M 4302.5,3259.5 C 4302.57,3261.03 4301.91,3262.03 4300.5,3262.5C 4300.43,3260.97 4301.09,3259.97 4302.5,3259.5 Z"/></g>
<g><path style="opacity:0.941" fill="#3f3f3f" d="M 2880.5,3261.5 C 2879.83,3264.17 2878.17,3265.83 2875.5,3266.5C 2876.83,3264.5 2878.5,3262.83 2880.5,3261.5 Z"/></g>
<g><path style="opacity:0.949" fill="#5a5a5a" d="M 2794.5,3265.5 C 2796.23,3266.03 2797.56,3267.03 2798.5,3268.5C 2796.37,3268.45 2795.03,3267.45 2794.5,3265.5 Z"/></g>
<g><path style="opacity:0.169" fill="#7f7f7f" d="M 4296.5,3266.5 C 4295.34,3268.25 4293.67,3269.25 4291.5,3269.5C 4292.66,3267.75 4294.33,3266.75 4296.5,3266.5 Z"/></g>
<g><path style="opacity:0.18" fill="#828282" d="M 4219.5,3268.5 C 4222.24,3268.71 4224.57,3269.71 4226.5,3271.5C 4223.76,3271.29 4221.43,3270.29 4219.5,3268.5 Z"/></g>
<g><path style="opacity:0.173" fill="#828282" d="M 2872.5,3268.5 C 2870.57,3270.29 2868.24,3271.29 2865.5,3271.5C 2867.43,3269.71 2869.76,3268.71 2872.5,3268.5 Z"/></g>
<g><path style="opacity:1" fill="#4c4c4c" d="M 4289.5,3270.5 C 4287.15,3273.08 4284.15,3274.08 4280.5,3273.5C 4283.22,3271.93 4286.22,3270.93 4289.5,3270.5 Z"/></g>
<g><path style="opacity:1" fill="#4e4e4e" d="M 2805.5,3271.5 C 2807.79,3271.59 2809.79,3272.26 2811.5,3273.5C 2808.92,3273.97 2806.92,3273.31 2805.5,3271.5 Z"/></g>
<g><path style="opacity:1" fill="#505050" d="M 2865.5,3271.5 C 2865.39,3272.12 2865.06,3272.62 2864.5,3273C 2862.19,3273.5 2859.86,3273.66 2857.5,3273.5C 2859.96,3272.47 2862.63,3271.8 2865.5,3271.5 Z"/></g>
<g><path style="opacity:0.816" fill="#5a5a5a" d="M 2929.5,3271.5 C 2930.37,3274 2931.04,3276.67 2931.5,3279.5C 2930.88,3279.39 2930.38,3279.06 2930,3278.5C 2929.5,3276.19 2929.34,3273.86 2929.5,3271.5 Z"/></g>
<g><path style="opacity:0.816" fill="#5a5a5a" d="M 4162.5,3271.5 C 4162.66,3273.86 4162.5,3276.19 4162,3278.5C 4161.62,3279.06 4161.12,3279.39 4160.5,3279.5C 4160.96,3276.67 4161.63,3274 4162.5,3271.5 Z"/></g>
<g><path style="opacity:0.89" fill="#5d5d5d" d="M 2934.5,3303.5 C 2934.2,3305.4 2933.54,3307.07 2932.5,3308.5C 2932.12,3306.3 2932.79,3304.64 2934.5,3303.5 Z"/></g>
<g><path style="opacity:0.886" fill="#5d5d5d" d="M 4157.5,3303.5 C 4159.21,3304.64 4159.88,3306.3 4159.5,3308.5C 4158.46,3307.07 4157.8,3305.4 4157.5,3303.5 Z"/></g>
<g><path style="opacity:0.02" fill="#868686" d="M 2929.5,3313.5 C 2929.57,3315.03 2928.91,3316.03 2927.5,3316.5C 2927.43,3314.97 2928.09,3313.97 2929.5,3313.5 Z"/></g>
<g><path style="opacity:0.651" fill="#656565" d="M 4161.5,3312.5 C 4163.53,3313.54 4164.86,3315.21 4165.5,3317.5C 4163.46,3316.42 4162.12,3314.75 4161.5,3312.5 Z"/></g>
<g><path style="opacity:0.478" fill="#7a7a7a" d="M 4165.5,3317.5 C 4168.09,3318.42 4170.09,3320.09 4171.5,3322.5C 4168.91,3321.58 4166.91,3319.91 4165.5,3317.5 Z"/></g>
<g><path style="opacity:0.02" fill="#999999" d="M 2924.5,3319.5 C 2923.2,3321.82 2921.2,3323.16 2918.5,3323.5C 2920.15,3321.67 2922.15,3320.34 2924.5,3319.5 Z"/></g>
<g><path style="opacity:0.953" fill="#4e4e4e" d="M 4251.5,3323.5 C 4236.47,3323.38 4221.8,3323.38 4207.5,3323.5C 4213.3,3322.17 4219.46,3321.5 4226,3321.5C 4234.72,3321.29 4243.22,3321.96 4251.5,3323.5 Z"/></g>
<g><path style="opacity:0.024" fill="#969696" d="M 2883.5,3322.5 C 2886.02,3323.26 2888.35,3324.26 2890.5,3325.5C 2887.51,3325.83 2885.18,3324.83 2883.5,3322.5 Z"/></g>
<g><path style="opacity:0.024" fill="#9e9e9e" d="M 2918.5,3323.5 C 2916.9,3325.07 2914.9,3325.74 2912.5,3325.5C 2914.21,3324.26 2916.21,3323.59 2918.5,3323.5 Z"/></g>
<g><path style="opacity:0.027" fill="#878787" d="M 4171.5,3322.5 C 4174.58,3322.62 4177.24,3323.62 4179.5,3325.5C 4176.35,3325.58 4173.68,3324.58 4171.5,3322.5 Z"/></g>
<g><path style="opacity:0.004" fill="#a0a0a0" d="M 4206.5,3323.5 C 4205.36,3325.21 4203.7,3325.88 4201.5,3325.5C 4202.93,3324.46 4204.6,3323.8 4206.5,3323.5 Z"/></g>
<g><path style="opacity:0.988" fill="#5e5e5e" d="M 4267.5,3325.5 C 4270.23,3325.17 4272.56,3325.84 4274.5,3327.5C 4271.93,3327.28 4269.6,3326.61 4267.5,3325.5 Z"/></g>
<g><path style="opacity:0.992" fill="#575757" d="M 4274.5,3327.5 C 4276.7,3327.12 4278.36,3327.79 4279.5,3329.5C 4277.45,3329.6 4275.78,3328.93 4274.5,3327.5 Z"/></g>
<g><path style="opacity:0.259" fill="#787878" d="M 2808.5,3331.5 C 2807.34,3333.25 2805.67,3334.25 2803.5,3334.5C 2804.66,3332.75 2806.33,3331.75 2808.5,3331.5 Z"/></g>
<g><path style="opacity:0.267" fill="#7d7d7d" d="M 4283.5,3331.5 C 4285.03,3331.43 4286.03,3332.09 4286.5,3333.5C 4284.97,3333.57 4283.97,3332.91 4283.5,3331.5 Z"/></g>
<g><path style="opacity:0.541" fill="#818181" d="M 4288.5,3334.5 C 4292.5,3336.5 4295.5,3339.5 4297.5,3343.5C 4294.17,3340.83 4291.17,3337.83 4288.5,3334.5 Z"/></g>
<g><path style="opacity:0.008" fill="#979797" d="M 2802.5,3335.5 C 2800.17,3338.5 2797.5,3341.17 2794.5,3343.5C 2796.17,3339.83 2798.83,3337.17 2802.5,3335.5 Z"/></g>
<g><path style="opacity:0.973" fill="#5f5f5f" d="M 4297.5,3343.5 C 4301.33,3346.83 4303.33,3351.16 4303.5,3356.5C 4301.81,3352.11 4299.81,3347.78 4297.5,3343.5 Z"/></g>
<g><path style="opacity:0.431" fill="#6b6b6b" d="M 2793.5,3344.5 C 2792.4,3347.69 2791.07,3350.69 2789.5,3353.5C 2789.5,3349.84 2790.84,3346.84 2793.5,3344.5 Z"/></g>
<g><path style="opacity:0.951" fill="#242424" d="M 3565.5,3365.5 C 3561.7,3366.48 3557.7,3366.82 3553.5,3366.5C 3553.5,3473.83 3553.5,3581.17 3553.5,3688.5C 3552.5,3581 3552.17,3473.33 3552.5,3365.5C 3556.83,3365.5 3561.17,3365.5 3565.5,3365.5 Z"/></g>
<g><path style="opacity:0.624" fill="#626262" d="M 4074.5,3399.5 C 4072.74,3400.46 4070.74,3400.79 4068.5,3400.5C 4070.22,3399.78 4072.05,3399.11 4074,3398.5C 4074.4,3398.73 4074.57,3399.06 4074.5,3399.5 Z"/></g>
<g><path style="opacity:0.938" fill="#454545" d="M 2786.5,3412.5 C 2787.15,3413.27 2787.48,3414.27 2787.5,3415.5C 2786.95,3422.33 2786.28,3428.99 2785.5,3435.5C 2785.35,3427.8 2785.69,3420.14 2786.5,3412.5 Z"/></g>
<g><path style="opacity:0.939" fill="#454545" d="M 4305.5,3412.5 C 4306.31,3420.14 4306.65,3427.8 4306.5,3435.5C 4305.72,3428.99 4305.05,3422.33 4304.5,3415.5C 4304.52,3414.27 4304.85,3413.27 4305.5,3412.5 Z"/></g>
<g><path style="opacity:0.008" fill="#898989" d="M 2782.5,3441.5 C 2782.17,3443.83 2780.83,3445.17 2778.5,3445.5C 2779.5,3443.83 2780.83,3442.5 2782.5,3441.5 Z"/></g>
<g><path style="opacity:0.478" fill="#6c6c6c" d="M 4308.5,3440.5 C 4310.45,3441.78 4312.12,3443.45 4313.5,3445.5C 4310.86,3444.86 4309.19,3443.19 4308.5,3440.5 Z"/></g>
<g><path style="opacity:0.951" fill="#242424" d="M 3519.5,3365.5 C 3523.83,3365.5 3528.17,3365.5 3532.5,3365.5C 3532.83,3473.33 3532.5,3581 3531.5,3688.5C 3531.5,3581.17 3531.5,3473.83 3531.5,3366.5C 3527.3,3366.82 3523.3,3366.48 3519.5,3365.5 Z"/></g>
<g><path style="opacity:0.361" fill="#848484" d="M 3413.5,3534.5 C 3412.39,3534.56 3411.39,3534.89 3410.5,3535.5C 3411.05,3533.45 3412.05,3533.11 3413.5,3534.5 Z"/></g>
<g><path style="opacity:0.361" fill="#848484" d="M 3676.5,3534.5 C 3677.95,3533.11 3678.95,3533.45 3679.5,3535.5C 3678.61,3534.89 3677.61,3534.56 3676.5,3534.5 Z"/></g>
<g><path style="opacity:1" fill="#4b4b4b" d="M 3360.5,3613.5 C 3358.56,3615.16 3356.23,3615.83 3353.5,3615.5C 3355.6,3614.39 3357.93,3613.72 3360.5,3613.5 Z"/></g>
<g><path style="opacity:0.616" fill="#7d7d7d" d="M 4512.5,3615.5 C 4514.17,3616.5 4515.5,3617.83 4516.5,3619.5C 4514.17,3619.17 4512.83,3617.83 4512.5,3615.5 Z"/></g>
<g><path style="opacity:0.553" fill="#737373" d="M 2579.5,3615.5 C 2579.17,3617.83 2577.83,3619.17 2575.5,3619.5C 2576.5,3617.83 2577.83,3616.5 2579.5,3615.5 Z"/></g>
<g><path style="opacity:0.69" fill="#585858" d="M 4106.5,3622.5 C 4109.5,3622.29 4112.16,3622.96 4114.5,3624.5C 4111.57,3624.43 4108.91,3623.77 4106.5,3622.5 Z"/></g>
<g><path style="opacity:0.745" fill="#575757" d="M 3129.5,3634.5 C 3131.03,3634.43 3132.03,3635.09 3132.5,3636.5C 3130.97,3636.57 3129.97,3635.91 3129.5,3634.5 Z"/></g>
<g><path style="opacity:0.379" fill="#6e6e6e" d="M 4520.5,3623.5 C 4521.12,3623.61 4521.62,3623.94 4522,3624.5C 4522.83,3638.01 4522.66,3651.34 4521.5,3664.5C 4521.8,3650.78 4521.46,3637.12 4520.5,3623.5 Z"/></g>
<g><path style="opacity:0.915" fill="#565656" d="M 4315.5,3591.5 C 4316.07,3615.7 4317.07,3640.04 4318.5,3664.5C 4317.68,3662.61 4316.84,3660.61 4316,3658.5C 4315.5,3636.17 4315.33,3613.84 4315.5,3591.5 Z"/></g>
<g><path style="opacity:0.812" fill="#595959" d="M 2776.5,3591.5 C 2776.67,3613.84 2776.5,3636.17 2776,3658.5C 2775.09,3662.19 2773.59,3665.53 2771.5,3668.5C 2773.89,3661.07 2775.06,3653.4 2775,3645.5C 2775.17,3627.33 2775.67,3609.33 2776.5,3591.5 Z"/></g>
<g><path style="opacity:0.169" fill="#8b8b8b" d="M 2572.5,3668.5 C 2574.03,3668.43 2575.03,3669.09 2575.5,3670.5C 2573.97,3670.57 2572.97,3669.91 2572.5,3668.5 Z"/></g>
<g><path style="opacity:0.004" fill="#a1a1a1" d="M 4519.5,3668.5 C 4519.03,3669.91 4518.03,3670.57 4516.5,3670.5C 4516.97,3669.09 4517.97,3668.43 4519.5,3668.5 Z"/></g>
<g><path style="opacity:0.012" fill="#ababab" d="M 3418.5,3666.5 C 3419.45,3667.92 3419.78,3669.59 3419.5,3671.5C 3430.68,3671.17 3441.68,3671.51 3452.5,3672.5C 3441.17,3672.5 3429.83,3672.5 3418.5,3672.5C 3418.5,3670.5 3418.5,3668.5 3418.5,3666.5 Z"/></g>
<g><path style="opacity:0.012" fill="#ababab" d="M 3671.5,3666.5 C 3671.5,3668.5 3671.5,3670.5 3671.5,3672.5C 3660.17,3672.5 3648.83,3672.5 3637.5,3672.5C 3648.32,3671.51 3659.32,3671.17 3670.5,3671.5C 3670.22,3669.59 3670.55,3667.92 3671.5,3666.5 Z"/></g>
<g><path style="opacity:0.765" fill="#616161" d="M 2580.5,3672.5 C 2582.5,3672.5 2583.5,3673.5 2583.5,3675.5C 2582.17,3674.83 2581.17,3673.83 2580.5,3672.5 Z"/></g>
<g><path style="opacity:0.757" fill="#686868" d="M 4324.5,3674.5 C 4326.03,3674.43 4327.03,3675.09 4327.5,3676.5C 4325.97,3676.57 4324.97,3675.91 4324.5,3674.5 Z"/></g>
<g><path style="opacity:0.459" fill="#626262" d="M 2761.5,3678.5 C 2760.09,3680.54 2758.09,3681.54 2755.5,3681.5C 2757.18,3679.99 2759.18,3678.99 2761.5,3678.5 Z"/></g>
<g><path style="opacity:0.459" fill="#5e5e5e" d="M 4330.5,3678.5 C 4332.82,3678.99 4334.82,3679.99 4336.5,3681.5C 4333.91,3681.54 4331.91,3680.54 4330.5,3678.5 Z"/></g>
<g><path style="opacity:0.988" fill="#525252" d="M 2586.5,3680.5 C 2589.45,3682.79 2592.12,3685.45 2594.5,3688.5C 2590.86,3686.86 2588.19,3684.19 2586.5,3680.5 Z"/></g>
<g><path style="opacity:0.938" fill="#515151" d="M 4341.5,3682.5 C 4350.51,3682.33 4359.51,3682.5 4368.5,3683C 4371.36,3683.18 4374.03,3683.68 4376.5,3684.5C 4364.78,3684.83 4353.12,3684.16 4341.5,3682.5 Z"/></g>
<g><path style="opacity:0.424" fill="#6f6f6f" d="M 2715.5,3684.5 C 2713.82,3686.01 2711.82,3687.01 2709.5,3687.5C 2710.91,3685.46 2712.91,3684.46 2715.5,3684.5 Z"/></g>
<g><path style="opacity:0.424" fill="#6c6c6c" d="M 4376.5,3684.5 C 4378.38,3684.23 4379.71,3684.9 4380.5,3686.5C 4378.85,3686.34 4377.51,3685.67 4376.5,3684.5 Z"/></g>
<g><path style="opacity:0.051" fill="#787878" d="M 2694.5,3688.5 C 2692.28,3688.18 2690.44,3688.84 2689,3690.5C 2688.81,3694.77 2687.98,3698.77 2686.5,3702.5C 2686.92,3698.17 2687.42,3693.83 2688,3689.5C 2690.02,3687.39 2692.18,3687.06 2694.5,3688.5 Z"/></g>
<g><path style="opacity:0.902" fill="#505050" d="M 2600.5,3690.5 C 2603.06,3690.2 2605.39,3690.53 2607.5,3691.5C 2606.88,3691.61 2606.38,3691.94 2606,3692.5C 2604.05,3691.89 2602.22,3691.22 2600.5,3690.5 Z"/></g>
<g><path style="opacity:0.675" fill="#4f4f4f" d="M 4497.5,3688.5 C 4493.94,3690.36 4490.1,3691.69 4486,3692.5C 4485.62,3691.94 4485.12,3691.61 4484.5,3691.5C 4488.68,3690.37 4493.02,3689.37 4497.5,3688.5 Z"/></g>
<g><path style="opacity:0.573" fill="#6d6d6d" d="M 2607.5,3691.5 C 2610.95,3692.61 2612.95,3694.95 2613.5,3698.5C 2611.53,3696.19 2609.53,3693.86 2607.5,3691.5 Z"/></g>
<g><path style="opacity:0.096" fill="#858585" d="M 4401.5,3688.5 C 4402.5,3688.41 4403.33,3688.75 4404,3689.5C 4404.5,3692.48 4404.66,3695.48 4404.5,3698.5C 4403.98,3695.06 4402.98,3691.73 4401.5,3688.5 Z"/></g>
<g><path style="opacity:0.024" fill="#838383" d="M 4483.5,3692.5 C 4481.8,3694.52 4480.14,3696.52 4478.5,3698.5C 4478.71,3695.29 4480.38,3693.29 4483.5,3692.5 Z"/></g>
<g><path style="opacity:0.104" fill="#8f8f8f" d="M 3531.5,3700.5 C 3503.17,3700.5 3474.83,3700.5 3446.5,3700.5C 3446.83,3716.68 3446.5,3732.68 3445.5,3748.5C 3445.5,3732.17 3445.5,3715.83 3445.5,3699.5C 3474.34,3699.17 3503,3699.5 3531.5,3700.5 Z"/></g>
<g><path style="opacity:0.104" fill="#8f8f8f" d="M 3553.5,3700.5 C 3583.66,3699.5 3614,3699.17 3644.5,3699.5C 3644.5,3715.83 3644.5,3732.17 3644.5,3748.5C 3643.5,3732.68 3643.17,3716.68 3643.5,3700.5C 3613.5,3700.5 3583.5,3700.5 3553.5,3700.5 Z"/></g>
<g><path style="opacity:0.839" fill="#616161" d="M 2615.5,3702.5 C 2617.75,3703.08 2619.42,3704.41 2620.5,3706.5C 2618.25,3705.92 2616.58,3704.59 2615.5,3702.5 Z"/></g>
<g><path style="opacity:0.149" fill="#666666" d="M 4405.5,3702.5 C 4407.17,3703.5 4408.5,3704.83 4409.5,3706.5C 4407.17,3706.17 4405.83,3704.83 4405.5,3702.5 Z"/></g>
<g><path style="opacity:0.161" fill="#6d6d6d" d="M 2686.5,3702.5 C 2686.17,3704.83 2684.83,3706.17 2682.5,3706.5C 2683.5,3704.83 2684.83,3703.5 2686.5,3702.5 Z"/></g>
<g><path style="opacity:0.443" fill="#5e5e5e" d="M 4474.5,3704.5 C 4472.5,3706.98 4469.83,3707.98 4466.5,3707.5C 4469.08,3706.51 4471.74,3705.51 4474.5,3704.5 Z"/></g>
<g><path style="opacity:0.706" fill="#595959" d="M 3097.5,3707.5 C 3097.57,3709.03 3096.91,3710.03 3095.5,3710.5C 3095.43,3708.97 3096.09,3707.97 3097.5,3707.5 Z"/></g>
<g><path style="opacity:0.706" fill="#5a5a5a" d="M 3992.5,3707.5 C 3993.91,3707.97 3994.57,3708.97 3994.5,3710.5C 3993.09,3710.03 3992.43,3709.03 3992.5,3707.5 Z"/></g>
<g><path style="opacity:0.46" fill="#6e6e6e" d="M 3174.5,3744.5 C 3174.5,3750.83 3174.5,3757.17 3174.5,3763.5C 3171.17,3763.5 3167.83,3763.5 3164.5,3763.5C 3167.29,3762.52 3170.29,3762.19 3173.5,3762.5C 3173.18,3756.31 3173.51,3750.31 3174.5,3744.5 Z"/></g>
<g><path style="opacity:0.462" fill="#6e6e6e" d="M 3915.5,3744.5 C 3916.49,3750.31 3916.82,3756.31 3916.5,3762.5C 3919.71,3762.19 3922.71,3762.52 3925.5,3763.5C 3922.17,3763.5 3918.83,3763.5 3915.5,3763.5C 3915.5,3757.17 3915.5,3750.83 3915.5,3744.5 Z"/></g>
<g><path style="opacity:0.318" fill="#707070" d="M 3432.5,3762.5 C 3433.16,3838.84 3432.5,3914.84 3430.5,3990.5C 3430.17,3990.5 3429.83,3990.5 3429.5,3990.5C 3431.16,3914.54 3432.16,3838.54 3432.5,3762.5 Z"/></g>
<g><path style="opacity:0.318" fill="#797979" d="M 3657.5,3762.5 C 3658.07,3851.67 3659.07,3941.01 3660.5,4030.5C 3660.5,4044.34 3660.17,4058 3659.5,4071.5C 3657.97,3968.51 3657.31,3865.51 3657.5,3762.5 Z"/></g>
<g><path style="opacity:1" fill="#000000" d="M 666.5,3813.5 C 754.975,3811.06 835.642,3834.56 908.5,3884C 987.932,3942.89 1036.43,4021.39 1054,4119.5C 1064.73,4186.76 1060.73,4253.09 1042,4318.5C 1009.46,4418.04 945.624,4489.54 850.5,4533C 764.477,4568.67 675.81,4577 584.5,4558C 484.085,4536.17 406.252,4482.33 351,4396.5C 311.47,4328.21 293.803,4254.54 298,4175.5C 301.522,4067.98 342.689,3978.15 421.5,3906C 492.414,3847.3 574.081,3816.46 666.5,3813.5 Z M 664.5,4044.5 C 712.373,4040.87 752.54,4056.54 785,4091.5C 808.518,4120.68 820.018,4154.18 819.5,4192C 819.999,4236.88 803.999,4274.55 771.5,4305C 730.278,4336.11 684.612,4344.78 634.5,4331C 586.114,4315.28 555.614,4282.78 543,4233.5C 533.941,4193.42 537.941,4154.75 555,4117.5C 579.05,4074.64 615.55,4050.3 664.5,4044.5 Z"/></g>
<g><path style="opacity:1" fill="#010101" d="M 1520.5,3813.5 C 1584.61,3812.44 1647.11,3821.78 1708,3841.5C 1708.5,3918.5 1708.67,3995.5 1708.5,4072.5C 1673.59,4057.86 1637.25,4048.69 1599.5,4045C 1461.48,4034.35 1401.65,4097.51 1420,4234.5C 1430.21,4285.38 1460.38,4317.54 1510.5,4331C 1556.96,4341.26 1603.29,4340.59 1649.5,4329C 1669.57,4323.59 1689.24,4317.09 1708.5,4309.5C 1708.67,4386.5 1708.5,4463.5 1708,4540.5C 1632.97,4564.72 1556.14,4573.22 1477.5,4566C 1427.33,4562.9 1378.99,4551.9 1332.5,4533C 1226.36,4481.51 1159.19,4398.34 1131,4283.5C 1113.17,4201.49 1118.83,4121.15 1148,4042.5C 1182.94,3957.55 1241.44,3894.39 1323.5,3853C 1363.39,3835.28 1405.05,3823.94 1448.5,3819C 1472.59,3816.3 1496.59,3814.46 1520.5,3813.5 Z"/></g>
<g><path style="opacity:1" fill="#000000" d="M 2805.5,3813.5 C 2893.98,3811.06 2974.64,3834.56 3047.5,3884C 3126.93,3942.89 3175.43,4021.39 3193,4119.5C 3203.73,4186.76 3199.73,4253.09 3181,4318.5C 3148.46,4418.04 3084.62,4489.54 2989.5,4533C 2903.48,4568.67 2814.81,4577 2723.5,4558C 2623.09,4536.17 2545.25,4482.33 2490,4396.5C 2450.51,4328.2 2432.84,4254.53 2437,4175.5C 2440.52,4067.98 2481.69,3978.15 2560.5,3906C 2631.41,3847.3 2713.08,3816.46 2805.5,3813.5 Z M 2803.5,4044.5 C 2851.37,4040.87 2891.54,4056.54 2924,4091.5C 2947.52,4120.68 2959.02,4154.18 2958.5,4192C 2959,4236.88 2943,4274.55 2910.5,4305C 2869.28,4336.11 2823.61,4344.78 2773.5,4331C 2715.49,4310.3 2683.66,4269.13 2678,4207.5C 2672.61,4153.96 2689.78,4109.46 2729.5,4074C 2751.43,4057.2 2776.09,4047.37 2803.5,4044.5 Z"/></g>
<g><path style="opacity:1" fill="#000000" d="M 6528.5,3813.5 C 6603.47,3812.8 6677.47,3820.8 6750.5,3837.5C 6750.83,3909.5 6750.5,3981.5 6749.5,4053.5C 6710,4036.5 6669,4024.67 6626.5,4018C 6604.81,4014.85 6583.15,4014.85 6561.5,4018C 6541.12,4021.28 6532.29,4033.11 6535,4053.5C 6535.9,4057.54 6537.57,4061.2 6540,4064.5C 6553.11,4076.48 6568.28,4084.98 6585.5,4090C 6615.46,4099.54 6645.12,4109.87 6674.5,4121C 6772.59,4162.64 6818.09,4236.81 6811,4343.5C 6796.13,4428.46 6750.63,4490.96 6674.5,4531C 6642.78,4546.26 6609.45,4556.26 6574.5,4561C 6508.24,4568.83 6441.91,4569.49 6375.5,4563C 6333.34,4558.63 6292.17,4549.8 6252,4536.5C 6251.33,4459.5 6251.33,4382.5 6252,4305.5C 6293.37,4326.63 6336.87,4341.79 6382.5,4351C 6409.14,4356.18 6435.81,4356.51 6462.5,4352C 6485.64,4345.23 6492.8,4330.73 6484,4308.5C 6475.45,4300.14 6465.62,4293.64 6454.5,4289C 6426.8,4278.21 6398.8,4268.21 6370.5,4259C 6321.38,4240.54 6281.55,4210.04 6251,4167.5C 6229.75,4132.19 6219.59,4093.86 6220.5,4052.5C 6219.97,3974.36 6252.64,3914.86 6318.5,3874C 6383.24,3835.47 6453.24,3815.31 6528.5,3813.5 Z"/></g>
<g><path style="opacity:1" fill="#000000" d="M 4317.5,4336.5 C 4318.5,4310.67 4318.83,4284.67 4318.5,4258.5C 4294.5,4258.5 4270.5,4258.5 4246.5,4258.5C 4246.5,4208.83 4246.5,4159.17 4246.5,4109.5C 4349.5,4109.5 4452.5,4109.5 4555.5,4109.5C 4556.67,4238.67 4556.83,4368 4556,4497.5C 4532.64,4514.77 4507.14,4528.27 4479.5,4538C 4425.41,4556.63 4369.74,4566.29 4312.5,4567C 4239.39,4573.13 4169.06,4562.13 4101.5,4534C 3995.42,4484.89 3928.26,4403.39 3900,4289.5C 3880.25,4204.91 3886.25,4122.25 3918,4041.5C 3954.24,3959.92 4012.74,3900.09 4093.5,3862C 4152.49,3834.87 4214.49,3820.2 4279.5,3818C 4339.52,3813.29 4397.86,3820.96 4454.5,3841C 4465.29,3845.56 4475.95,3850.39 4486.5,3855.5C 4487.83,3926.5 4487.83,3997.5 4486.5,4068.5C 4417.23,4047.16 4346.56,4040.32 4274.5,4048C 4252.36,4050.58 4232.03,4057.91 4213.5,4070C 4193.45,4086.59 4180.95,4107.75 4176,4133.5C 4168.47,4177.22 4168.8,4220.89 4177,4264.5C 4189.23,4316.05 4221.89,4341.38 4275,4340.5C 4289.29,4340.45 4303.46,4339.12 4317.5,4336.5 Z"/></g>
<g><path style="opacity:1" fill="#000000" d="M 1803.5,3831.5 C 1996.5,3831.5 2189.5,3831.5 2382.5,3831.5C 2382.5,3905.5 2382.5,3979.5 2382.5,4053.5C 2332,4053.17 2281.66,4053.5 2231.5,4054.5C 2231.5,4218.5 2231.5,4382.5 2231.5,4546.5C 2139.17,4546.5 2046.83,4546.5 1954.5,4546.5C 1954.5,4382.5 1954.5,4218.5 1954.5,4054.5C 1904.34,4053.5 1854,4053.17 1803.5,4053.5C 1803.5,3979.5 1803.5,3905.5 1803.5,3831.5 Z"/></g>
<g><path style="opacity:1" fill="#000000" d="M 4638.5,3831.5 C 4735.17,3831.5 4831.83,3831.5 4928.5,3831.5C 4928.33,3976.83 4928.5,4122.17 4929,4267.5C 4933.03,4288.18 4944.53,4303.02 4963.5,4312C 4995.2,4319.31 5017.03,4307.81 5029,4277.5C 5030.73,4271.96 5031.73,4266.3 5032,4260.5C 5032.5,4117.5 5032.67,3974.5 5032.5,3831.5C 5129.17,3831.5 5225.83,3831.5 5322.5,3831.5C 5322.67,3981.17 5322.5,4130.83 5322,4280.5C 5320.35,4329.11 5306.35,4373.77 5280,4414.5C 5231.12,4485.33 5164.95,4532.16 5081.5,4555C 4997.52,4576.06 4915.19,4571.06 4834.5,4540C 4769.53,4513.44 4717.7,4470.94 4679,4412.5C 4655.9,4376.19 4642.56,4336.52 4639,4293.5C 4638.5,4139.5 4638.33,3985.5 4638.5,3831.5 Z"/></g>
<g><path style="opacity:1" fill="#000000" d="M 5902.5,4155.5 C 5902.56,4156.04 5902.89,4156.38 5903.5,4156.5C 5904.5,4048.5 5904.83,3940.5 5904.5,3832.5C 5989.17,3832.5 6073.83,3832.5 6158.5,3832.5C 6158.5,4070.5 6158.5,4308.5 6158.5,4546.5C 6073.16,4546.83 5987.83,4546.5 5902.5,4545.5C 5832,4437.83 5761.5,4330.17 5691,4222.5C 5690.5,4330.5 5690.33,4438.5 5690.5,4546.5C 5605.5,4546.5 5520.5,4546.5 5435.5,4546.5C 5435.5,4308.17 5435.5,4069.83 5435.5,3831.5C 5520.84,3831.17 5606.17,3831.5 5691.5,3832.5C 5762.1,3940.05 5832.44,4047.72 5902.5,4155.5 Z"/></g>
<g><path style="opacity:0.996" fill="#141414" d="M 6158.5,3832.5 C 6073.83,3832.5 5989.17,3832.5 5904.5,3832.5C 5904.83,3940.5 5904.5,4048.5 5903.5,4156.5C 5902.89,4156.38 5902.56,4156.04 5902.5,4155.5C 5903.5,4047.67 5903.83,3939.67 5903.5,3831.5C 5988.67,3831.17 6073.67,3831.5 6158.5,3832.5 Z"/></g>
<g><path style="opacity:0.945" fill="#242424" d="M 3261.5,3989.5 C 3269.83,3989.5 3278.17,3989.5 3286.5,3989.5C 3286.5,4182.5 3286.5,4375.5 3286.5,4568.5C 3285.5,4376 3285.17,4183.33 3285.5,3990.5C 3277.32,3990.83 3269.32,3990.49 3261.5,3989.5 Z"/></g>
<g><path style="opacity:0.945" fill="#242424" d="M 3828.5,3989.5 C 3820.68,3990.49 3812.68,3990.83 3804.5,3990.5C 3804.83,4183.33 3804.5,4376 3803.5,4568.5C 3803.5,4375.5 3803.5,4182.5 3803.5,3989.5C 3811.83,3989.5 3820.17,3989.5 3828.5,3989.5 Z"/></g>
<g><path style="opacity:0.957" fill="#404040" d="M 1803.5,3831.5 C 1803.5,3905.5 1803.5,3979.5 1803.5,4053.5C 1854,4053.17 1904.34,4053.5 1954.5,4054.5C 1903.83,4054.5 1853.17,4054.5 1802.5,4054.5C 1802.17,3980 1802.5,3905.66 1803.5,3831.5 Z"/></g>
<g><path style="opacity:0.957" fill="#353535" d="M 2382.5,3831.5 C 2383.5,3905.66 2383.83,3980 2383.5,4054.5C 2332.83,4054.5 2282.17,4054.5 2231.5,4054.5C 2281.66,4053.5 2332,4053.17 2382.5,4053.5C 2382.5,3979.5 2382.5,3905.5 2382.5,3831.5 Z"/></g>
<g><path style="opacity:0.306" fill="#828282" d="M 3429.5,3990.5 C 3429.83,3990.5 3430.17,3990.5 3430.5,3990.5C 3430.5,4017.5 3430.5,4044.5 3430.5,4071.5C 3445.5,4071.5 3460.5,4071.5 3475.5,4071.5C 3460.34,4072.5 3445.01,4072.83 3429.5,4072.5C 3429.5,4045.17 3429.5,4017.83 3429.5,3990.5 Z"/></g>
<g><path style="opacity:0.051" fill="#9d9d9d" d="M 3473.5,4083.5 C 3459.17,4083.5 3444.83,4083.5 3430.5,4083.5C 3430.5,4217.5 3430.5,4351.5 3430.5,4485.5C 3429.5,4351.33 3429.17,4217 3429.5,4082.5C 3444.34,4082.17 3459.01,4082.5 3473.5,4083.5 Z"/></g>
<g><path style="opacity:0.471" fill="#6b6b6b" d="M 4555.5,4109.5 C 4452.5,4109.5 4349.5,4109.5 4246.5,4109.5C 4246.5,4159.17 4246.5,4208.83 4246.5,4258.5C 4245.5,4208.67 4245.17,4158.67 4245.5,4108.5C 4349,4108.17 4452.33,4108.5 4555.5,4109.5 Z"/></g>
<g><path style="opacity:0.051" fill="#999999" d="M 4246.5,4258.5 C 4270.5,4258.5 4294.5,4258.5 4318.5,4258.5C 4318.83,4284.67 4318.5,4310.67 4317.5,4336.5C 4317.5,4310.83 4317.5,4285.17 4317.5,4259.5C 4293.66,4259.83 4269.99,4259.5 4246.5,4258.5 Z"/></g>
<g><path style="opacity:0.508" fill="#5b5b5b" d="M 3531.5,5014.5 C 3532.5,5084 3532.83,5153.66 3532.5,5223.5C 3539.17,5223.5 3545.83,5223.5 3552.5,5223.5C 3552.17,5153.66 3552.5,5084 3553.5,5014.5C 3553.5,5084.5 3553.5,5154.5 3553.5,5224.5C 3546.17,5224.5 3538.83,5224.5 3531.5,5224.5C 3531.5,5154.5 3531.5,5084.5 3531.5,5014.5 Z"/></g>
</svg>
